<svg width="1920" height="489" viewBox="0 0 1920 489" fill="none" xmlns="http://www.w3.org/2000/svg">
<path fill-rule="evenodd" clip-rule="evenodd" d="M327.179 201.5C327.179 254.243 284.382 297 231.59 297C178.797 297 136 254.243 136 201.5C136 148.757 178.797 106 231.59 106C284.382 106 327.179 148.757 327.179 201.5ZM252.708 163.776C265.852 168.551 275.411 175.117 273.618 187.949C272.125 197.499 267.047 201.976 261.072 202.871C270.333 207.646 275.112 215.107 270.631 228.238C264.956 244.354 251.513 245.548 233.59 242.265L229.11 259.574L218.654 256.888L222.837 239.878C220.148 239.281 217.46 238.684 214.472 237.788L210.29 255.098L199.835 252.412L204.316 235.103C201.926 234.506 199.537 233.909 196.848 233.312L183.107 230.029L188.185 218.092C188.185 218.092 195.952 220.181 195.952 219.882C198.939 220.778 200.134 218.688 200.731 217.495L207.602 190.038L212.381 170.342C212.68 168.253 211.784 165.567 207.602 164.373L199.835 162.582L202.524 151.242L216.862 154.823C218.028 155.156 219.193 155.396 220.411 155.646C221.377 155.845 222.376 156.051 223.434 156.315L227.616 139.006L238.071 141.692L233.889 158.703C236.169 159.462 238.663 160.006 241.008 160.518C241.429 160.61 241.844 160.701 242.253 160.792L246.435 144.079L256.89 146.467L252.708 163.776ZM219.635 226.422C228.274 228.732 246.72 233.665 249.721 221.673C252.683 209.568 234.531 205.464 225.671 203.461C224.701 203.242 223.843 203.048 223.135 202.871L217.46 225.851C218.082 226.006 218.814 226.202 219.635 226.422ZM227.496 192.863C234.641 194.765 250.261 198.923 253.007 187.949C255.797 176.242 239.302 173.126 232.246 171.793C231.747 171.699 231.296 171.614 230.902 171.535L225.824 192.426C226.306 192.546 226.868 192.696 227.496 192.863Z" fill="white"/>
<path fill-rule="evenodd" clip-rule="evenodd" d="M1094.12 322C1094.12 356.794 1065.89 385 1031.06 385C996.233 385 968 356.794 968 322C968 287.206 996.233 259 1031.06 259C1065.89 259 1094.12 287.206 1094.12 322ZM1044.99 297.114C1053.66 300.264 1059.97 304.595 1058.78 313.061C1057.8 319.361 1054.45 322.314 1050.51 322.905C1056.62 326.055 1059.77 330.977 1056.81 339.639C1053.07 350.27 1044.2 351.058 1032.38 348.892L1029.42 360.311L1022.53 358.539L1025.28 347.317C1023.51 346.923 1021.74 346.53 1019.77 345.939L1017.01 357.358L1010.11 355.586L1013.07 344.167L1013.07 344.167C1011.49 343.773 1009.91 343.38 1008.14 342.986L999.076 340.82L1002.43 332.945C1002.43 332.945 1007.55 334.323 1007.55 334.127C1009.52 334.717 1010.31 333.339 1010.7 332.552L1015.23 314.439L1018.39 301.445C1018.58 300.067 1017.99 298.295 1015.23 297.508L1010.11 296.327L1011.88 288.845L1021.34 291.208C1022.11 291.427 1022.88 291.586 1023.68 291.751C1024.32 291.882 1024.98 292.018 1025.68 292.192L1028.44 280.773L1035.33 282.545L1032.58 293.767C1034.08 294.268 1035.73 294.627 1037.27 294.965C1037.55 295.026 1037.82 295.085 1038.09 295.145L1040.85 284.12L1047.75 285.695L1044.99 297.114ZM1023.17 338.441C1028.87 339.965 1041.04 343.219 1043.02 335.308C1044.97 327.323 1033 324.615 1027.15 323.294C1026.51 323.149 1025.95 323.021 1025.48 322.905L1021.74 338.064C1022.15 338.167 1022.63 338.296 1023.17 338.441ZM1028.36 316.302C1033.07 317.557 1043.38 320.3 1045.19 313.061C1047.03 305.338 1036.15 303.282 1031.49 302.403C1031.16 302.341 1030.87 302.285 1030.61 302.233L1027.26 316.014C1027.57 316.094 1027.94 316.192 1028.36 316.302Z" fill="white"/>
<path fill-rule="evenodd" clip-rule="evenodd" d="M1713.07 113C1713.07 134.539 1695.6 152 1674.04 152C1652.48 152 1635 134.539 1635 113C1635 91.4609 1652.48 74 1674.04 74C1695.6 74 1713.07 91.4609 1713.07 113ZM1682.66 97.5944C1688.03 99.5444 1691.93 102.226 1691.2 107.466C1690.59 111.366 1688.52 113.194 1686.08 113.56C1689.86 115.51 1691.81 118.557 1689.98 123.919C1687.66 130.501 1682.17 130.988 1674.85 129.648L1673.02 136.716L1668.75 135.619L1670.46 128.673C1669.36 128.429 1668.27 128.185 1667.05 127.819L1665.34 134.888L1661.07 133.791L1662.9 126.723L1662.9 126.722C1661.92 126.479 1660.95 126.235 1659.85 125.991L1654.24 124.651L1656.31 119.776C1656.31 119.776 1659.48 120.629 1659.48 120.507C1660.7 120.873 1661.19 120.019 1661.43 119.532L1664.24 108.319L1666.19 100.276C1666.31 99.4225 1665.95 98.3256 1664.24 97.8381L1661.07 97.1069L1662.17 92.4756L1668.02 93.9381C1668.5 94.074 1668.97 94.172 1669.47 94.2744C1669.87 94.3556 1670.27 94.4396 1670.71 94.5475L1672.41 87.4788L1676.68 88.5756L1674.98 95.5225C1675.91 95.8325 1676.93 96.0549 1677.88 96.264C1678.05 96.3015 1678.22 96.3386 1678.39 96.3756L1680.1 89.5506L1684.37 90.5256L1682.66 97.5944ZM1669.15 123.177C1672.68 124.121 1680.22 126.135 1681.44 121.238C1682.65 116.295 1675.24 114.619 1671.62 113.801C1671.22 113.711 1670.87 113.632 1670.58 113.56L1668.27 122.944C1668.52 123.008 1668.82 123.088 1669.15 123.177ZM1672.36 109.473C1675.28 110.25 1681.66 111.948 1682.78 107.466C1683.92 102.685 1677.19 101.413 1674.3 100.869C1674.1 100.83 1673.92 100.795 1673.76 100.763L1671.68 109.294C1671.88 109.344 1672.11 109.405 1672.36 109.473Z" fill="white"/>
<path fill-rule="evenodd" clip-rule="evenodd" d="M1080.05 127C1080.05 140.807 1068.84 152 1055.02 152C1041.2 152 1030 140.807 1030 127C1030 113.193 1041.2 102 1055.02 102C1068.84 102 1080.05 113.193 1080.05 127ZM1060.55 117.125C1063.99 118.375 1066.49 120.093 1066.03 123.453C1065.63 125.953 1064.31 127.125 1062.74 127.359C1065.17 128.609 1066.42 130.562 1065.24 134C1063.76 138.218 1060.24 138.531 1055.55 137.672L1054.37 142.203L1051.64 141.5L1052.73 137.047L1052.73 137.046C1052.03 136.89 1051.32 136.734 1050.54 136.5L1049.45 141.031L1046.71 140.328L1047.88 135.797C1047.26 135.64 1046.63 135.484 1045.93 135.328L1042.33 134.468L1043.66 131.343C1043.66 131.343 1045.69 131.89 1045.69 131.812C1046.48 132.047 1046.79 131.5 1046.95 131.187L1048.74 124L1050 118.843C1050.07 118.297 1049.84 117.593 1048.74 117.281L1046.71 116.812L1047.41 113.843L1051.17 114.781C1051.47 114.868 1051.78 114.931 1052.1 114.996C1052.35 115.049 1052.61 115.102 1052.89 115.172L1053.98 110.64L1056.72 111.343L1055.63 115.797C1056.22 115.995 1056.88 116.138 1057.49 116.272C1057.6 116.296 1057.71 116.32 1057.81 116.343L1058.91 111.968L1061.65 112.593L1060.55 117.125ZM1051.89 133.524C1054.16 134.129 1058.98 135.42 1059.77 132.281C1060.55 129.112 1055.79 128.038 1053.47 127.513C1053.22 127.456 1053 127.405 1052.81 127.359L1051.32 133.375C1051.49 133.415 1051.68 133.467 1051.89 133.524ZM1053.95 124.739C1055.82 125.237 1059.91 126.325 1060.63 123.453C1061.36 120.388 1057.04 119.572 1055.2 119.223C1055.06 119.199 1054.95 119.176 1054.84 119.156L1053.51 124.625C1053.64 124.656 1053.79 124.695 1053.95 124.739Z" fill="white"/>
<path fill-rule="evenodd" clip-rule="evenodd" d="M95.0365 216.5C95.0365 227.27 86.2978 236 75.5182 236C64.7385 236 55.9999 227.27 55.9999 216.5C55.9999 205.73 64.7385 197 75.5182 197C86.2978 197 95.0365 205.73 95.0365 216.5ZM79.8302 208.797C82.514 209.772 84.4658 211.113 84.0999 213.733C83.7949 215.683 82.758 216.597 81.5381 216.78C83.4289 217.755 84.4048 219.278 83.4899 221.96C82.331 225.25 79.5863 225.494 75.9266 224.824L75.0117 228.358L72.8768 227.81L73.7308 224.336L73.7308 224.336C73.1818 224.214 72.6329 224.093 72.0229 223.91L71.169 227.444L69.0342 226.896L69.9491 223.361L69.9487 223.361C69.4609 223.239 68.973 223.117 68.4242 222.996L65.6185 222.325L66.6554 219.888C66.6554 219.888 68.2413 220.314 68.2413 220.253C68.8512 220.436 69.0952 220.01 69.2172 219.766L70.62 214.16L71.596 210.138C71.657 209.711 71.474 209.163 70.62 208.919L69.0342 208.553L69.5831 206.238L72.5109 206.969C72.7489 207.037 72.9869 207.086 73.2355 207.137C73.4328 207.178 73.6368 207.22 73.8528 207.274L74.7067 203.739L76.8415 204.288L75.9876 207.761C76.453 207.916 76.9624 208.027 77.4412 208.132C77.5271 208.151 77.6119 208.169 77.6954 208.188L78.5494 204.775L80.6842 205.263L79.8302 208.797ZM73.077 221.589C74.841 222.06 78.6076 223.068 79.2203 220.619C79.825 218.147 76.1187 217.31 74.3095 216.901C74.1115 216.856 73.9362 216.816 73.7918 216.78L72.6329 221.472C72.7599 221.504 72.9094 221.544 73.077 221.589ZM74.6821 214.736C76.1411 215.125 79.3305 215.974 79.8912 213.733C80.4609 211.343 77.0929 210.706 75.652 210.434C75.5502 210.415 75.4581 210.398 75.3776 210.382L74.3407 214.647C74.4392 214.672 74.554 214.702 74.6821 214.736Z" fill="white"/>
<path d="M375 398C351.251 398 332 417.476 332 441.5C332 465.525 351.251 485 375 485C398.749 485 418 465.525 418 441.5C418 417.476 398.749 398 375 398ZM391.691 462.713H358.093L360.917 449.075L355.426 452.884L356.76 445.42L362.503 441.421L368.137 414.219H378.625L374.747 432.897L388.402 423.39L386.802 431.123L373.149 440.592L370.448 453.602H393.557L391.691 462.713Z" fill="white"/>
<path d="M1207 135C1176.07 135 1151 160.296 1151 191.5C1151 222.705 1176.07 248 1207 248C1237.93 248 1263 222.705 1263 191.5C1263 160.296 1237.93 135 1207 135ZM1228.74 219.052H1184.98L1188.66 201.339L1181.51 206.286L1183.25 196.592L1190.73 191.397L1198.06 156.066H1211.72L1206.67 180.326L1224.45 167.978L1222.37 178.022L1204.59 190.32L1201.07 207.219H1231.17L1228.74 219.052Z" fill="white"/>
<path d="M1822.5 289C1794.61 289 1772 311.834 1772 340C1772 368.168 1794.61 391 1822.5 391C1850.39 391 1873 368.168 1873 340C1873 311.834 1850.39 289 1822.5 289ZM1842.1 364.87H1802.64L1805.96 348.881L1799.51 353.346L1801.08 344.596L1807.82 339.907L1814.44 308.015H1826.76L1822.2 329.914L1838.24 318.767L1836.36 327.834L1820.33 338.935L1817.15 354.189H1844.29L1842.1 364.87Z" fill="white"/>
<path d="M805 8C779.595 8 759 29.0427 759 55.0004C759 80.9585 779.595 102 805 102C830.405 102 851 80.9585 851 55.0004C851 29.0427 830.406 8 805 8ZM822.856 77.9196H786.914L789.935 63.1843L784.061 67.2996L785.488 59.2359L791.631 54.9147L797.658 25.524H808.878L804.729 45.705L819.337 35.4326L817.625 43.788L803.02 54.0185L800.13 68.076H824.852L822.856 77.9196Z" fill="white"/>
<path fill-rule="evenodd" clip-rule="evenodd" d="M1718 424.5C1718 459.57 1689.57 488 1654.5 488C1619.43 488 1591 459.57 1591 424.5C1591 389.43 1619.43 361 1654.5 361C1689.57 361 1718 389.43 1718 424.5ZM1644.15 408.28C1641.85 408.274 1639.54 408.267 1637.23 408.267C1637.17 407.787 1638.99 397.924 1639.25 396.692H1659.56C1659.79 396.692 1660.03 396.692 1660.26 396.692C1666.41 396.689 1672.37 396.686 1677.63 398.934C1682.31 400.934 1685.67 404.28 1687.05 409.846C1688.46 415.518 1687.61 422.395 1686.33 427.934C1683.91 438.368 1678.63 446.658 1668.29 450.47C1663.29 452.316 1657.39 452.292 1651.66 452.269C1651.02 452.266 1650.38 452.263 1649.75 452.263H1649.63C1642.91 452.263 1636.19 452.263 1629.46 452.262L1631.51 440.689C1633.85 440.689 1636.2 440.696 1638.54 440.702C1640.88 440.709 1643.22 440.715 1645.56 440.715C1646.57 440.715 1647.6 440.732 1648.64 440.749C1654.87 440.852 1661.43 440.96 1666.6 437.434C1670.16 435.004 1671.68 430.832 1672.78 426.239C1675.06 416.762 1674.48 410.164 1664.66 408.643C1661.54 408.16 1657.68 408.214 1654.12 408.264C1653.07 408.279 1652.05 408.293 1651.08 408.293C1648.77 408.293 1646.46 408.287 1644.15 408.28ZM1639.87 430.274C1633.99 430.295 1620.29 430.344 1619.34 430.24C1619.56 428.233 1620.88 422.977 1621.99 421.437C1623.99 418.655 1627.1 418.672 1630.14 418.689C1630.38 418.69 1630.61 418.691 1630.84 418.691H1654C1653.84 419.974 1653.42 421.611 1653.07 422.962C1653.02 423.164 1652.97 423.36 1652.92 423.548C1651.39 429.596 1649.1 430.266 1642.39 430.266C1642.07 430.266 1641.16 430.269 1639.87 430.274Z" fill="white"/>
<path fill-rule="evenodd" clip-rule="evenodd" d="M484 274C484 300.51 462.51 322 436 322C409.49 322 388 300.51 388 274C388 247.49 409.49 226 436 226C462.51 226 484 247.49 484 274ZM428.179 261.739C426.435 261.735 424.69 261.73 422.945 261.73C422.903 261.367 424.28 253.911 424.471 252.98H439.825C440.002 252.98 440.179 252.98 440.355 252.98C445.006 252.977 449.509 252.975 453.484 254.674C457.021 256.186 459.564 258.716 460.608 262.923C461.673 267.211 461.028 272.409 460.057 276.596C458.229 284.483 454.244 290.749 446.427 293.631C442.643 295.026 438.188 295.008 433.855 294.99C433.371 294.988 432.889 294.986 432.409 294.986H432.29C427.218 294.986 422.146 294.986 417.069 294.986L418.624 286.238C420.394 286.238 422.164 286.243 423.934 286.247C425.704 286.252 427.473 286.257 429.242 286.257C430.006 286.257 430.784 286.27 431.568 286.283C436.28 286.36 441.24 286.442 445.148 283.777C447.841 281.94 448.988 278.786 449.82 275.315C451.538 268.151 451.102 263.164 443.68 262.014C441.322 261.648 438.4 261.689 435.713 261.727C434.919 261.738 434.146 261.749 433.413 261.749C431.668 261.749 429.924 261.744 428.179 261.739ZM424.94 278.364C420.498 278.38 410.141 278.418 409.426 278.339C409.589 276.822 410.586 272.849 411.424 271.684C412.939 269.582 415.285 269.595 417.588 269.607C417.765 269.608 417.941 269.609 418.117 269.609H435.625C435.498 270.579 435.181 271.816 434.92 272.837C434.88 272.99 434.842 273.138 434.806 273.28C433.648 277.852 431.914 278.358 426.847 278.358C426.607 278.358 425.917 278.361 424.94 278.364Z" fill="white"/>
<path fill-rule="evenodd" clip-rule="evenodd" d="M705 429.5C705 445.24 692.24 458 676.5 458C660.76 458 648 445.24 648 429.5C648 413.76 660.76 401 676.5 401C692.24 401 705 413.76 705 429.5ZM671.856 422.22C670.821 422.217 669.785 422.214 668.749 422.214C668.724 421.999 669.541 417.572 669.655 417.019H678.771C678.876 417.019 678.981 417.019 679.086 417.019C681.847 417.018 684.521 417.016 686.881 418.025C688.981 418.923 690.491 420.425 691.111 422.923C691.743 425.469 691.36 428.555 690.784 431.041C689.698 435.724 687.332 439.445 682.691 441.156C680.444 441.984 677.799 441.974 675.227 441.963C674.939 441.962 674.653 441.961 674.368 441.961H674.308C671.293 441.961 668.278 441.961 665.26 441.96L666.183 436.766C667.234 436.766 668.285 436.769 669.336 436.772C670.387 436.775 671.437 436.778 672.487 436.778C672.941 436.778 673.403 436.785 673.869 436.793C676.666 436.839 679.611 436.887 681.931 435.305C683.53 434.214 684.211 432.342 684.706 430.281C685.726 426.027 685.467 423.066 681.06 422.383C679.66 422.166 677.925 422.191 676.33 422.213C675.858 422.22 675.399 422.226 674.964 422.226C673.928 422.226 672.892 422.223 671.856 422.22ZM669.933 432.091C667.296 432.101 661.146 432.123 660.722 432.076C660.819 431.175 661.41 428.816 661.908 428.125C662.807 426.877 664.201 426.884 665.568 426.892C665.673 426.892 665.778 426.893 665.882 426.893H676.277C676.202 427.469 676.014 428.203 675.858 428.809C675.835 428.9 675.813 428.988 675.791 429.072C675.104 431.787 674.074 432.088 671.065 432.088C670.923 432.088 670.513 432.089 669.933 432.091Z" fill="white"/>
<path fill-rule="evenodd" clip-rule="evenodd" d="M1190.03 30.5143C1190.03 47.3669 1176.37 61.0286 1159.51 61.0286C1142.66 61.0286 1129 47.3669 1129 30.5143C1129 13.6617 1142.66 0 1159.51 0C1176.37 0 1190.03 13.6617 1190.03 30.5143ZM1140.84 40.8917C1140.56 41.3175 1139.7 41.4594 1138.57 41.6013V42.169H1147.37V41.6013C1146.09 41.6013 1145.38 41.3175 1144.96 41.0336C1144.53 40.7498 1144.39 39.8982 1144.39 38.7628V33.0857H1146.8C1149.21 33.0857 1151.2 32.6599 1152.76 31.6665C1154.32 30.673 1155.17 29.1118 1155.17 26.9829C1155.17 25.2797 1154.47 23.8605 1153.05 22.867C1151.63 21.8735 1149.64 21.3058 1146.94 21.3058H1138.57V21.8735C1139.56 22.0154 1140.41 22.2993 1140.7 22.5831C1141.12 22.867 1141.27 23.5766 1141.27 24.712V38.337C1141.27 39.7563 1141.12 40.4659 1140.84 40.8917ZM1145.81 22.5831C1147.23 22.5831 1148.36 22.7251 1149.21 23.1508C1150.92 23.8605 1151.77 25.1378 1151.77 27.1248C1151.77 29.2537 1151.06 30.673 1149.5 31.3826C1148.65 31.8084 1147.51 31.9503 1146.09 31.9503H1145.52C1145.48 31.9503 1145.4 31.9345 1145.29 31.9135C1145.08 31.8715 1144.77 31.8084 1144.39 31.8084V23.5766C1144.39 23.1508 1144.53 22.867 1144.67 22.7251C1144.81 22.5831 1145.1 22.5831 1145.81 22.5831H1145.81ZM1158.58 40.7498C1158.16 41.1756 1157.3 41.4594 1156.03 41.6013V42.311H1163.41V41.7433C1162.13 41.6013 1161.42 41.3175 1161.14 41.0336C1160.71 40.4659 1160.43 39.3305 1160.43 37.6274V24.9959L1168.52 42.0271H1168.94L1177.03 24.1443V38.337C1177.03 39.7563 1176.89 40.4659 1176.61 40.8917C1176.32 41.3175 1175.47 41.4594 1174.19 41.6013V42.169H1182.99V41.6013C1181.86 41.6013 1181.15 41.4594 1180.72 41.0336C1180.3 40.6078 1180.15 39.8982 1180.15 38.7628V24.712C1180.15 23.7185 1180.44 22.867 1180.72 22.5831C1181.01 22.2993 1181.86 22.1573 1182.99 22.0154V21.4477H1176.75L1169.65 37.2016L1162.41 21.4477H1156.17V22.0154C1157.45 22.0154 1158.16 22.2993 1158.58 22.5831C1159.01 23.0089 1159.15 23.7185 1159.15 24.854V37.6274C1159.15 39.1886 1159.01 40.324 1158.58 40.7498Z" fill="white"/>
<path fill-rule="evenodd" clip-rule="evenodd" d="M153.028 443.514C153.028 460.367 139.367 474.029 122.514 474.029C105.662 474.029 91.9999 460.367 91.9999 443.514C91.9999 426.662 105.662 413 122.514 413C139.367 413 153.028 426.662 153.028 443.514ZM103.84 453.892C103.556 454.317 102.705 454.459 101.569 454.601V455.169H110.369V454.601C109.092 454.601 108.382 454.317 107.956 454.034C107.53 453.75 107.388 452.898 107.388 451.763V446.086H109.801C112.214 446.086 114.201 445.66 115.762 444.666C117.323 443.673 118.175 442.112 118.175 439.983C118.175 438.28 117.465 436.86 116.046 435.867C114.627 434.873 112.64 434.306 109.943 434.306H101.569V434.873C102.563 435.015 103.414 435.299 103.698 435.583C104.124 435.867 104.266 436.577 104.266 437.712V451.337C104.266 452.756 104.124 453.466 103.84 453.892ZM108.808 435.583C110.227 435.583 111.362 435.725 112.214 436.151C113.917 436.86 114.769 438.138 114.769 440.125C114.769 442.254 114.059 443.673 112.498 444.383C111.646 444.808 110.511 444.95 109.092 444.95H108.524C108.477 444.95 108.398 444.935 108.293 444.914C108.082 444.871 107.767 444.808 107.388 444.808V436.577C107.388 436.151 107.53 435.867 107.672 435.725C107.814 435.583 108.098 435.583 108.808 435.583H108.808ZM121.581 453.75C121.155 454.176 120.304 454.459 119.026 454.601V455.311H126.407V454.743C125.129 454.601 124.42 454.317 124.136 454.034C123.71 453.466 123.426 452.331 123.426 450.627V437.996L131.516 455.027H131.942L140.032 437.144V451.337C140.032 452.756 139.89 453.466 139.606 453.892C139.322 454.317 138.47 454.459 137.193 454.601V455.169H145.993V454.601C144.857 454.601 144.147 454.459 143.722 454.034C143.296 453.608 143.154 452.898 143.154 451.763V437.712C143.154 436.719 143.438 435.867 143.722 435.583C144.006 435.299 144.857 435.157 145.993 435.015V434.448H139.748L132.651 450.202L125.413 434.448H119.168V435.015C120.446 435.015 121.155 435.299 121.581 435.583C122.007 436.009 122.149 436.719 122.149 437.854V450.627C122.149 452.189 122.007 453.324 121.581 453.75Z" fill="white"/>
<path fill-rule="evenodd" clip-rule="evenodd" d="M1574 304C1574 331.614 1551.61 354 1524 354C1496.39 354 1474 331.614 1474 304C1474 276.386 1496.39 254 1524 254C1551.61 254 1574 276.386 1574 304ZM1493.4 321.004C1492.94 321.702 1491.54 321.934 1489.68 322.167V323.097H1504.1V322.167C1502.01 322.167 1500.84 321.702 1500.15 321.237C1499.45 320.772 1499.22 319.376 1499.22 317.516V308.213H1503.17C1507.12 308.213 1510.38 307.516 1512.94 305.888C1515.49 304.26 1516.89 301.702 1516.89 298.213C1516.89 295.423 1515.73 293.097 1513.4 291.469C1511.08 289.841 1507.82 288.911 1503.4 288.911H1489.68V289.841C1491.31 290.074 1492.7 290.539 1493.17 291.004C1493.87 291.469 1494.1 292.632 1494.1 294.493V316.818C1494.1 319.144 1493.87 320.306 1493.4 321.004ZM1501.54 291.004C1503.87 291.004 1505.73 291.237 1507.12 291.934C1509.91 293.097 1511.31 295.19 1511.31 298.446C1511.31 301.934 1510.15 304.26 1507.59 305.423C1506.19 306.12 1504.33 306.353 1502.01 306.353H1501.08C1501 306.353 1500.87 306.327 1500.7 306.293C1500.35 306.224 1499.84 306.12 1499.22 306.12V292.632C1499.22 291.934 1499.45 291.469 1499.68 291.237C1499.91 291.004 1500.38 291.004 1501.54 291.004ZM1522.47 320.772C1521.77 321.469 1520.38 321.934 1518.29 322.167V323.33H1530.38V322.4C1528.29 322.167 1527.12 321.702 1526.66 321.237C1525.96 320.306 1525.49 318.446 1525.49 315.655V294.958L1538.75 322.865H1539.45L1552.7 293.562V316.818C1552.7 319.144 1552.47 320.306 1552.01 321.004C1551.54 321.702 1550.15 321.934 1548.05 322.167V323.097H1562.47V322.167C1560.61 322.167 1559.45 321.934 1558.75 321.237C1558.05 320.539 1557.82 319.376 1557.82 317.516V294.493C1557.82 292.865 1558.29 291.469 1558.75 291.004C1559.22 290.539 1560.61 290.306 1562.47 290.074V289.144H1552.24L1540.61 314.958L1528.75 289.144H1518.52V290.074C1520.61 290.074 1521.77 290.539 1522.47 291.004C1523.17 291.702 1523.4 292.865 1523.4 294.725V315.655C1523.4 318.213 1523.17 320.074 1522.47 320.772Z" fill="white"/>
<path fill-rule="evenodd" clip-rule="evenodd" d="M1720.47 273.943C1738.96 273.943 1753.94 258.957 1753.94 240.471C1753.94 221.986 1738.96 207 1720.47 207C1701.99 207 1687 221.986 1687 240.471C1687 258.957 1701.99 273.943 1720.47 273.943ZM1720.22 229.639C1720.22 226.905 1721.62 224.312 1724 222.877H1724C1725.12 222.163 1726.53 221.869 1727.78 221.876C1729.04 221.876 1730.44 222.163 1731.56 222.884C1733.95 224.32 1735.35 226.912 1735.35 229.646C1735.35 232.379 1733.94 234.972 1731.56 236.407C1730.3 237.129 1728.76 237.415 1727.36 237.415C1725.69 237.415 1724.42 238.706 1724.42 240.435C1724.42 242.596 1726.1 243.455 1727.36 243.455C1728.9 243.455 1730.3 243.742 1731.56 244.463C1733.95 245.903 1735.35 248.495 1735.35 251.229C1735.35 253.962 1733.94 256.555 1731.56 257.99C1729.18 259.426 1726.38 259.426 1724 257.99C1721.61 256.554 1720.22 253.966 1720.22 251.229C1720.22 249.793 1720.64 248.354 1721.34 247.056C1722.03 245.62 1721.61 243.742 1720.22 242.883C1718.26 241.73 1716.72 243.028 1716.16 244.036C1715.46 245.334 1714.48 246.479 1713.22 247.201C1710.84 248.636 1708.04 248.636 1705.66 247.201C1703.27 245.761 1701.88 243.17 1701.88 240.435C1701.88 237.701 1703.28 235.102 1705.66 233.666C1708.04 232.231 1710.84 232.231 1713.22 233.666C1714.48 234.526 1715.46 235.679 1716.3 236.832C1717.13 238.271 1718.96 238.844 1720.36 237.984C1722.32 236.977 1722.04 234.964 1721.48 233.811C1720.78 232.521 1720.22 231.074 1720.22 229.639Z" fill="white"/>
<path fill-rule="evenodd" clip-rule="evenodd" d="M798 326C820.091 326 838 308.091 838 286C838 263.909 820.091 246 798 246C775.909 246 758 263.909 758 286C758 308.091 775.909 326 798 326ZM797.696 273.054C797.696 269.787 799.378 266.689 802.22 264.974H802.22C803.552 264.12 805.234 263.769 806.735 263.778C808.244 263.778 809.914 264.12 811.254 264.983C814.104 266.698 815.778 269.796 815.778 273.063C815.778 276.33 814.095 279.428 811.254 281.143C809.745 282.005 807.902 282.348 806.233 282.348C804.231 282.348 802.721 283.89 802.721 285.957C802.721 288.539 804.724 289.566 806.233 289.566C808.071 289.566 809.745 289.908 811.254 290.77C814.104 292.491 815.778 295.588 815.778 298.855C815.778 302.122 814.095 305.22 811.254 306.936C808.412 308.651 805.06 308.651 802.219 306.936C799.365 305.22 797.695 302.127 797.695 298.855C797.695 297.14 798.197 295.419 799.036 293.868C799.866 292.153 799.365 289.908 797.695 288.881C795.356 287.504 793.513 289.055 792.843 290.259C792.012 291.811 790.841 293.179 789.331 294.042C786.49 295.757 783.138 295.757 780.297 294.042C777.447 292.321 775.778 289.225 775.778 285.957C775.778 282.689 777.456 279.583 780.297 277.868C783.139 276.152 786.491 276.152 789.332 277.868C790.841 278.895 792.013 280.272 793.012 281.65C794.011 283.37 796.195 284.055 797.865 283.028C800.204 281.823 799.876 279.419 799.205 278.041C798.366 276.499 797.696 274.77 797.696 273.054Z" fill="white"/>
<path fill-rule="evenodd" clip-rule="evenodd" d="M313 35C320.732 35 327 28.732 327 21C327 13.268 320.732 7 313 7C305.268 7 299 13.268 299 21C299 28.732 305.268 35 313 35ZM312.894 16.469C312.894 15.3255 313.482 14.2412 314.477 13.6408H314.477C314.943 13.3421 315.532 13.2192 316.057 13.2223C316.585 13.2223 317.17 13.3421 317.639 13.6439C318.636 14.2444 319.222 15.3287 319.222 16.4721C319.222 17.6154 318.633 18.6997 317.639 19.3001C317.111 19.6019 316.466 19.7217 315.882 19.7217C315.181 19.7217 314.652 20.2616 314.652 20.9849C314.652 21.8887 315.353 22.2481 315.882 22.2481C316.525 22.2481 317.111 22.3679 317.639 22.6696C318.636 23.2717 319.222 24.3559 319.222 25.4994C319.222 26.6428 318.633 27.7271 317.639 28.3275C316.644 28.928 315.471 28.928 314.477 28.3275C313.478 27.727 312.893 26.6443 312.893 25.4994C312.893 24.8989 313.069 24.2968 313.363 23.7539C313.653 23.1535 313.478 22.3679 312.893 22.0085C312.074 21.5263 311.43 22.0692 311.195 22.4908C310.904 23.0337 310.494 23.5128 309.966 23.8146C308.971 24.4151 307.798 24.4151 306.804 23.8146C305.807 23.2125 305.222 22.1286 305.222 20.9849C305.222 19.8412 305.81 18.7541 306.804 18.1537C307.799 17.5533 308.972 17.5533 309.966 18.1537C310.494 18.5131 310.905 18.9953 311.254 19.4776C311.604 20.0796 312.368 20.3191 312.953 19.9598C313.771 19.5382 313.656 18.6966 313.422 18.2144C313.128 17.6745 312.894 17.0694 312.894 16.469Z" fill="white"/>
<path fill-rule="evenodd" clip-rule="evenodd" d="M1252.29 453.612C1254.05 448.395 1255 442.809 1255 437C1255 408.281 1231.72 385 1203 385C1174.28 385 1151 408.281 1151 437C1151 442.809 1151.95 448.396 1153.71 453.612H1169.44V409.89L1203 443.106L1236.56 409.89V453.612H1252.29ZM1246.91 464.858H1224.97V437.266L1203 459.233L1181.02 437.266V464.858H1159.08C1168.31 479.369 1184.53 488.996 1203 488.996C1221.46 488.996 1237.68 479.369 1246.91 464.858Z" fill="white"/>
<path fill-rule="evenodd" clip-rule="evenodd" d="M1541.62 42.9672C1542.52 40.3084 1543 37.4615 1543 34.5009C1543 19.8647 1531.14 8 1516.5 8C1501.86 8 1490 19.8649 1490 34.5009C1490 37.4615 1490.49 40.3085 1491.38 42.9672H1499.4V20.6847L1516.5 37.6129L1533.6 20.6847V42.9672H1541.62ZM1538.88 48.6981H1527.7V34.6365L1516.5 45.8318L1505.3 34.6365V48.6981H1494.12C1498.82 56.0936 1507.09 61 1516.5 61C1525.91 61 1534.18 56.0935 1538.88 48.6981Z" fill="white"/>
<path fill-rule="evenodd" clip-rule="evenodd" d="M681.484 202.066C683.765 195.293 685.002 188.042 685.002 180.501C685.002 143.221 654.781 113 617.501 113C580.221 113 550 143.221 550 180.501C550 188.042 551.237 195.293 553.518 202.066H573.94V145.309L617.501 188.427L661.063 145.309V202.066H681.484ZM674.496 216.663H646.024V180.846L617.495 209.362L588.963 180.846V216.663H560.494C572.468 235.5 593.522 247.997 617.495 247.997C641.467 247.997 662.522 235.5 674.496 216.663Z" fill="white"/>
<path fill-rule="evenodd" clip-rule="evenodd" d="M76.111 347.233C77.9866 341.665 79.0038 335.702 79.0038 329.502C79.0038 298.849 54.1546 274 23.5017 274C-7.15114 274 -32.0001 298.849 -32.0001 329.502C-32.0001 335.702 -30.9831 341.665 -29.1073 347.233H-12.3161V300.566L23.5019 336.019L59.32 300.566V347.233H76.111ZM70.3654 359.236H46.9549V329.786L23.4969 353.233L0.0365067 329.786V359.236H-23.3718C-13.5264 374.724 3.78552 385 23.4967 385C43.2078 385 60.52 374.724 70.3654 359.236Z" fill="white"/>
<path fill-rule="evenodd" clip-rule="evenodd" d="M224 375.5C224 363.074 213.926 353 201.5 353C189.073 353 179 363.071 179 375.5C179 387.929 189.075 398 201.5 398C213.925 398 224 387.926 224 375.5ZM204.277 366.89V370.237L204.279 370.238C210.489 370.525 215.157 371.756 215.157 373.23C215.157 374.705 210.489 375.936 204.279 376.223V386.945H198.744V376.224C192.525 375.936 187.845 374.704 187.845 373.228C187.845 371.752 192.523 370.52 198.744 370.234V366.89H191.089V361.79H211.931V366.89H204.277ZM204.279 375.312V375.315L204.28 375.313C209.763 375.068 213.858 374.11 213.858 372.968C213.858 371.827 209.765 370.869 204.28 370.625V374.362C204.122 374.377 203.264 374.448 201.557 374.448C200.136 374.448 199.106 374.387 198.746 374.362V370.625C193.251 370.869 189.148 371.825 189.148 372.97C189.148 374.115 193.25 375.072 198.746 375.316V375.311C199.101 375.33 200.105 375.37 201.534 375.37C203.32 375.37 204.123 375.322 204.279 375.312Z" fill="white"/>
<path fill-rule="evenodd" clip-rule="evenodd" d="M1465 162C1465 128.864 1438.14 102 1405 102C1371.86 102 1345 128.857 1345 162C1345 195.143 1371.87 222 1405 222C1438.13 222 1465 195.136 1465 162ZM1412.41 139.04V147.965L1412.41 147.968C1428.97 148.732 1441.42 152.015 1441.42 155.948C1441.42 159.88 1428.97 163.163 1412.41 163.928V192.52H1397.65V163.93C1381.07 163.163 1368.59 159.878 1368.59 155.942C1368.59 152.006 1381.06 148.72 1397.65 147.958V139.04H1377.24V125.44H1432.82V139.04H1412.41ZM1412.41 161.499V161.506L1412.41 161.5C1427.04 160.848 1437.96 158.292 1437.96 155.249C1437.96 152.206 1427.04 149.651 1412.41 149V158.966C1411.99 159.004 1409.7 159.194 1405.15 159.194C1401.36 159.194 1398.62 159.032 1397.66 158.966V149C1383 149.65 1372.06 152.199 1372.06 155.253C1372.06 158.307 1383 160.859 1397.66 161.508V161.496C1398.6 161.546 1401.28 161.654 1405.09 161.654C1409.85 161.654 1411.99 161.525 1412.41 161.499Z" fill="white"/>
<path fill-rule="evenodd" clip-rule="evenodd" d="M1398 435C1398 425.612 1390.39 418 1381 418C1371.61 418 1364 425.61 1364 435C1364 444.39 1371.61 452 1381 452C1390.39 452 1398 444.388 1398 435ZM1383.1 428.495V431.023L1383.1 431.024C1387.79 431.241 1391.32 432.171 1391.32 433.285C1391.32 434.399 1387.79 435.33 1383.1 435.546V443.647H1378.92V435.547C1374.22 435.33 1370.68 434.399 1370.68 433.283C1370.68 432.168 1374.22 431.237 1378.92 431.021V428.495H1373.13V424.641H1388.88V428.495H1383.1ZM1383.1 434.858V434.86L1383.1 434.858C1387.24 434.674 1390.34 433.95 1390.34 433.087C1390.34 432.225 1387.24 431.501 1383.1 431.317V434.14C1382.98 434.151 1382.33 434.205 1381.04 434.205C1379.97 434.205 1379.19 434.159 1378.92 434.14V431.317C1374.77 431.501 1371.67 432.223 1371.67 433.088C1371.67 433.954 1374.77 434.677 1378.92 434.861V434.857C1379.19 434.871 1379.95 434.902 1381.03 434.902C1382.38 434.902 1382.98 434.865 1383.1 434.858Z" fill="white"/>
<path fill-rule="evenodd" clip-rule="evenodd" d="M493 48C493 61.2548 482.255 72 469 72C455.745 72 445 61.2548 445 48C445 34.7452 455.745 24 469 24C482.255 24 493 34.7452 493 48ZM469.335 35.1628C465.428 35.1628 462.637 35.3861 460.628 35.721H460.516V63.8512H466.879V53.6931C467.549 53.8047 468.219 53.8047 469.112 53.8047C472.907 53.8047 476.144 52.9117 478.377 50.7907C480.163 49.1163 481.056 46.7721 481.056 43.9814C481.056 41.1907 479.828 38.8465 478.042 37.3954C476.144 35.9442 473.354 35.1628 469.335 35.1628ZM469.112 48.893C468.219 48.893 467.549 48.7814 466.991 48.6698V40.1861C467.437 40.0744 468.33 39.9628 469.67 39.9628C472.907 39.9628 474.693 41.5256 474.693 44.2047C474.693 47.107 472.572 48.893 469.112 48.893Z" fill="white"/>
<path fill-rule="evenodd" clip-rule="evenodd" d="M1332 322C1332 335.255 1321.25 346 1308 346C1294.75 346 1284 335.255 1284 322C1284 308.745 1294.75 298 1308 298C1321.25 298 1332 308.745 1332 322ZM1308.33 309.163C1304.43 309.163 1301.64 309.386 1299.63 309.721H1299.52V337.851H1305.88V327.693C1306.55 327.805 1307.22 327.805 1308.11 327.805C1311.91 327.805 1315.14 326.912 1317.38 324.791C1319.16 323.116 1320.06 320.772 1320.06 317.981C1320.06 315.191 1318.83 312.847 1317.04 311.395C1315.14 309.944 1312.35 309.163 1308.33 309.163ZM1308.11 322.893C1307.22 322.893 1306.55 322.781 1305.99 322.67V314.186C1306.44 314.074 1307.33 313.963 1308.67 313.963C1311.91 313.963 1313.69 315.526 1313.69 318.205C1313.69 321.107 1311.57 322.893 1308.11 322.893Z" fill="white"/>
<path fill-rule="evenodd" clip-rule="evenodd" d="M1935 435C1935 448.255 1924.25 459 1911 459C1897.75 459 1887 448.255 1887 435C1887 421.745 1897.75 411 1911 411C1924.25 411 1935 421.745 1935 435ZM1911.33 422.163C1907.43 422.163 1904.64 422.386 1902.63 422.721H1902.52V450.851H1908.88V440.693C1909.55 440.805 1910.22 440.805 1911.11 440.805C1914.91 440.805 1918.14 439.912 1920.38 437.791C1922.16 436.116 1923.06 433.772 1923.06 430.981C1923.06 428.191 1921.83 425.847 1920.04 424.395C1918.14 422.944 1915.35 422.163 1911.33 422.163ZM1911.11 435.893C1910.22 435.893 1909.55 435.781 1908.99 435.67V427.186C1909.44 427.074 1910.33 426.963 1911.67 426.963C1914.91 426.963 1916.69 428.526 1916.69 431.205C1916.69 434.107 1914.57 435.893 1911.11 435.893Z" fill="white"/>
<path fill-rule="evenodd" clip-rule="evenodd" d="M75.9999 120C75.9999 138.225 61.2253 153 42.9999 153C24.7745 153 9.99988 138.225 9.99988 120C9.99988 101.775 24.7745 87 42.9999 87C61.2253 87 75.9999 101.775 75.9999 120ZM43.4603 102.349C38.0882 102.349 34.251 102.656 31.4882 103.116H31.3347V141.795H40.0836V127.828C41.0045 127.981 41.9254 127.981 43.1534 127.981C48.372 127.981 52.8231 126.754 55.8929 123.837C58.3487 121.535 59.5766 118.312 59.5766 114.474C59.5766 110.637 57.8882 107.414 55.4324 105.419C52.8231 103.423 48.9859 102.349 43.4603 102.349ZM43.1534 121.228C41.9254 121.228 41.0045 121.074 40.2371 120.921V109.256C40.851 109.102 42.0789 108.949 43.9208 108.949C48.372 108.949 50.8278 111.098 50.8278 114.781C50.8278 118.772 47.9115 121.228 43.1534 121.228Z" fill="white"/>
<path fill-rule="evenodd" clip-rule="evenodd" d="M790 457.5C790 466.613 782.613 474 773.5 474C764.387 474 757 466.613 757 457.5C757 448.387 764.387 441 773.5 441C782.613 441 790 448.387 790 457.5ZM773.73 448.674C771.044 448.674 769.126 448.828 767.744 449.058H767.667V468.398H772.042V461.414C772.502 461.491 772.963 461.491 773.577 461.491C776.186 461.491 778.412 460.877 779.947 459.419C781.174 458.267 781.788 456.656 781.788 454.737C781.788 452.819 780.944 451.207 779.716 450.209C778.412 449.212 776.493 448.674 773.73 448.674ZM773.577 458.114C772.963 458.114 772.502 458.037 772.119 457.96V452.128C772.426 452.051 773.04 451.974 773.961 451.974C776.186 451.974 777.414 453.049 777.414 454.891C777.414 456.886 775.956 458.114 773.577 458.114Z" fill="white"/>
<path fill-rule="evenodd" clip-rule="evenodd" d="M962.5 482C973.27 482 982 473.27 982 462.5C982 451.73 973.27 443 962.5 443C951.73 443 943 451.73 943 462.5C943 473.27 951.73 482 962.5 482ZM970.936 468.123H961.141C961.995 467.219 962.749 466.416 963.502 465.512C965.461 463.251 967.37 461.041 969.279 458.781C969.436 458.597 969.615 458.413 969.795 458.227C970.303 457.702 970.825 457.164 970.936 456.571C971.151 455.499 971.111 454.377 971.07 453.222C971.054 452.752 971.037 452.278 971.037 451.799H964.959V447.78H960.086V451.899H954.511V456.822H963.904C963.521 457.25 963.158 457.648 962.806 458.033C962.374 458.507 961.958 458.963 961.543 459.434C959.584 461.694 957.675 463.904 955.767 466.165C955.605 466.37 955.413 466.576 955.218 466.785C954.749 467.288 954.266 467.807 954.159 468.375C953.944 469.449 953.985 470.574 954.026 471.714C954.042 472.173 954.059 472.635 954.059 473.096H960.086V477.165H965.16C965.109 476.46 965.072 475.78 965.034 475.101C964.996 474.424 964.959 473.748 964.909 473.046H970.936V468.123Z" fill="white"/>
<path fill-rule="evenodd" clip-rule="evenodd" d="M1791.5 113C1802.27 113 1811 104.27 1811 93.5C1811 82.7304 1802.27 74 1791.5 74C1780.73 74 1772 82.7304 1772 93.5C1772 104.27 1780.73 113 1791.5 113ZM1799.94 99.1234H1790.14C1791 98.2194 1791.75 97.4158 1792.5 96.5117C1794.46 94.251 1796.37 92.0412 1798.28 89.7808C1798.44 89.5967 1798.61 89.4126 1798.79 89.2267C1799.3 88.7024 1799.83 88.1639 1799.94 87.5706C1800.15 86.4991 1800.11 85.3768 1800.07 84.2218C1800.05 83.7524 1800.04 83.2776 1800.04 82.7987H1793.96V78.7803H1789.09V82.8991H1783.51V87.8216H1792.9C1792.52 88.2499 1792.16 88.6478 1791.81 89.0335C1791.37 89.5074 1790.96 89.963 1790.54 90.4337C1788.58 92.694 1786.68 94.904 1784.77 97.1645C1784.6 97.3705 1784.41 97.5765 1784.22 97.785C1783.75 98.2883 1783.27 98.8065 1783.16 99.3749C1782.94 100.449 1782.98 101.574 1783.03 102.714C1783.04 103.173 1783.06 103.635 1783.06 104.096H1789.09V108.165H1794.16C1794.11 107.46 1794.07 106.78 1794.03 106.101C1794 105.424 1793.96 104.748 1793.91 104.046H1799.94V99.1234Z" fill="white"/>
<path fill-rule="evenodd" clip-rule="evenodd" d="M1550.5 191C1561.27 191 1570 182.27 1570 171.5C1570 160.73 1561.27 152 1550.5 152C1539.73 152 1531 160.73 1531 171.5C1531 182.27 1539.73 191 1550.5 191ZM1558.94 177.123H1549.14C1550 176.219 1550.75 175.416 1551.5 174.512C1553.46 172.251 1555.37 170.041 1557.28 167.781C1557.44 167.597 1557.61 167.413 1557.79 167.227C1558.3 166.702 1558.83 166.164 1558.94 165.571C1559.15 164.499 1559.11 163.377 1559.07 162.222C1559.05 161.752 1559.04 161.278 1559.04 160.799H1552.96V156.78H1548.09V160.899H1542.51V165.822H1551.9C1551.52 166.25 1551.16 166.648 1550.81 167.033C1550.37 167.507 1549.96 167.963 1549.54 168.434C1547.58 170.694 1545.68 172.904 1543.77 175.165C1543.6 175.37 1543.41 175.576 1543.22 175.785C1542.75 176.288 1542.27 176.807 1542.16 177.375C1541.94 178.449 1541.98 179.574 1542.03 180.714C1542.04 181.173 1542.06 181.635 1542.06 182.096H1548.09V186.165H1553.16C1553.11 185.46 1553.07 184.78 1553.03 184.101C1553 183.424 1552.96 182.748 1552.91 182.046H1558.94V177.123Z" fill="white"/>
<path d="M1327.73 10.117L1329.14 11.4198L1311.73 21.7608L1303.33 16.7125L1304.12 15.084L1311.73 19.6438L1327.73 10.117ZM1324.2 8L1326 8.9771L1311.73 17.5267L1305.06 13.6183L1306.16 12.1527L1311.65 15.4097L1324.2 8ZM1330.24 12.7226L1331.25 14.1883L1311.73 25.8321L1302.31 20.2137L1302.71 18.4224L1311.73 23.7964L1330.24 12.7226Z" fill="white"/>
<path d="M1333.14 18.0153C1333.69 19.7252 1334 21.4351 1334 23.3079C1334 25.1807 1333.69 26.972 1333.14 28.6819L1332.75 29.8219C1331.96 31.7761 1330.78 33.5674 1329.37 35.1145C1327.88 36.6616 1326.16 37.8015 1324.27 38.6158C1322.24 39.5114 1320.2 40 1318 40C1315.8 40 1313.76 39.5114 1311.8 38.6158C1309.84 37.7201 1308.2 36.5802 1306.71 35.0331C1305.22 33.486 1304.12 31.6947 1303.33 29.7405C1302.39 27.6234 1302 25.5064 1302 23.2265V22.0865L1311.73 27.9491L1332.2 15.7354L1333.14 18.0153Z" fill="white"/>
<path d="M535.765 424.779L537.618 426.489L514.765 440.061L503.75 433.435L504.779 431.298L514.765 437.282L535.765 424.779ZM531.132 422L533.5 423.282L514.765 434.504L506.015 429.374L507.456 427.45L514.662 431.725L531.132 422ZM539.059 428.198L540.397 430.122L514.765 445.405L502.412 438.031L502.927 435.679L514.765 442.733L539.059 428.198Z" fill="white"/>
<path d="M542.868 435.145C543.588 437.389 544 439.634 544 442.092C544 444.55 543.588 446.901 542.868 449.145L542.353 450.641C541.324 453.206 539.779 455.557 537.926 457.588C535.971 459.618 533.706 461.115 531.235 462.183C528.559 463.359 525.882 464 523 464C520.118 464 517.441 463.359 514.868 462.183C512.294 461.008 510.132 459.511 508.176 457.481C506.221 455.45 504.779 453.099 503.75 450.534C502.515 447.756 502 444.977 502 441.985V440.489L514.765 448.183L541.632 432.153L542.868 435.145Z" fill="white"/>
<path d="M942.177 126.351L946.412 130.26L894.177 161.282L869 146.137L871.353 141.252L894.177 154.931L942.177 126.351ZM931.588 120L937 122.931L894.177 148.58L874.177 136.855L877.471 132.458L893.941 142.229L931.588 120ZM949.706 134.168L952.765 138.565L894.177 173.496L865.941 156.641L867.118 151.267L894.177 167.389L949.706 134.168Z" fill="white"/>
<path d="M958.412 150.046C960.059 155.176 961 160.305 961 165.924C961 171.542 960.059 176.916 958.412 182.046L957.235 185.466C954.882 191.328 951.353 196.702 947.118 201.344C942.647 205.985 937.471 209.405 931.824 211.847C925.706 214.534 919.588 216 913 216C906.412 216 900.294 214.534 894.412 211.847C888.529 209.16 883.588 205.74 879.118 201.099C874.647 196.458 871.353 191.084 869 185.221C866.176 178.87 865 172.519 865 165.679V162.26L894.176 179.847L955.588 143.206L958.412 150.046Z" fill="white"/>
<path d="M1915.98 141.417L1920.26 145.366L1867.48 176.712L1842.04 161.41L1844.42 156.473L1867.48 170.295L1915.98 141.417ZM1905.28 135L1910.75 137.962L1867.48 163.878L1847.27 152.031L1850.6 147.588L1867.24 157.461L1905.28 135ZM1923.59 149.316L1926.68 153.758L1867.48 189.053L1838.95 172.023L1840.14 166.593L1867.48 182.883L1923.59 149.316Z" fill="white"/>
<path d="M1932.38 165.359C1934.05 170.542 1935 175.725 1935 181.402C1935 187.079 1934.05 192.509 1932.38 197.692L1931.2 201.148C1928.82 207.071 1925.25 212.501 1920.97 217.191C1916.46 221.88 1911.23 225.336 1905.52 227.804C1899.34 230.519 1893.16 232 1886.5 232C1879.84 232 1873.66 230.519 1867.72 227.804C1861.77 225.089 1856.78 221.634 1852.26 216.944C1847.75 212.254 1844.42 206.824 1842.04 200.901C1839.19 194.483 1838 188.066 1838 181.155V177.7L1867.48 195.471L1929.53 158.448L1932.38 165.359Z" fill="white"/>
<path d="M1499.49 442.522L1500.5 443.458L1487.99 450.891L1481.96 447.262L1482.52 446.092L1487.99 449.369L1499.49 442.522ZM1496.95 441L1498.25 441.702L1487.99 447.847L1483.2 445.038L1483.99 443.985L1487.93 446.326L1496.95 441ZM1501.29 444.394L1502.03 445.448L1487.99 453.817L1481.23 449.779L1481.51 448.491L1487.99 452.354L1501.29 444.394Z" fill="white"/>
<path d="M1503.38 448.198C1503.77 449.427 1504 450.656 1504 452.003C1504 453.349 1503.77 454.636 1503.38 455.865L1503.1 456.684C1502.53 458.089 1501.69 459.377 1500.67 460.489C1499.6 461.601 1498.36 462.42 1497.01 463.005C1495.54 463.649 1494.08 464 1492.5 464C1490.92 464 1489.46 463.649 1488.05 463.005C1486.64 462.361 1485.45 461.542 1484.38 460.43C1483.31 459.318 1482.52 458.031 1481.96 456.626C1481.28 455.104 1481 453.583 1481 451.944V451.125L1487.99 455.338L1502.7 446.56L1503.38 448.198Z" fill="white"/>
<path d="M22.4901 442.522L23.5048 443.458L10.9901 450.891L4.95824 447.262L5.52196 446.092L10.9901 449.369L22.4901 442.522ZM19.9533 441L21.2499 441.702L10.9901 447.847L6.19843 445.038L6.98765 443.985L10.9337 446.326L19.9533 441ZM24.294 444.394L25.0269 445.448L10.9901 453.817L4.2254 449.779L4.50726 448.491L10.9901 452.354L24.294 444.394Z" fill="white"/>
<path d="M26.3798 448.198C26.7744 449.427 26.9999 450.656 26.9999 452.003C26.9999 453.349 26.7744 454.636 26.3798 455.865L26.0979 456.684C25.5342 458.089 24.6886 459.377 23.6739 460.489C22.6028 461.601 21.3626 462.42 20.0097 463.005C18.544 463.649 17.0783 464 15.4999 464C13.9214 464 12.4558 463.649 11.0464 463.005C9.63713 462.361 8.45331 461.542 7.38223 460.43C6.31115 459.318 5.52194 458.031 4.95821 456.626C4.28174 455.104 3.99988 453.583 3.99988 451.944V451.125L10.9901 455.338L25.7033 446.56L26.3798 448.198Z" fill="white"/>
<path d="M454.49 146.522L455.505 147.458L442.99 154.891L436.958 151.262L437.522 150.092L442.99 153.369L454.49 146.522ZM451.953 145L453.25 145.702L442.99 151.847L438.199 149.038L438.988 147.985L442.934 150.326L451.953 145ZM456.294 148.394L457.027 149.448L442.99 157.817L436.226 153.779L436.507 152.491L442.99 156.354L456.294 148.394Z" fill="white"/>
<path d="M458.38 152.198C458.775 153.427 459 154.656 459 156.003C459 157.349 458.775 158.636 458.38 159.865L458.098 160.684C457.534 162.089 456.689 163.377 455.674 164.489C454.603 165.601 453.363 166.42 452.01 167.005C450.544 167.649 449.078 168 447.5 168C445.922 168 444.456 167.649 443.047 167.005C441.637 166.361 440.453 165.542 439.382 164.43C438.311 163.318 437.522 162.031 436.958 160.626C436.282 159.104 436 157.583 436 155.944V155.125L442.99 159.338L457.703 150.56L458.38 152.198Z" fill="white"/>
</svg>
