<svg width="307" height="307" viewBox="0 0 307 307" fill="none" xmlns="http://www.w3.org/2000/svg">
<mask id="mask0" mask-type="alpha" maskUnits="userSpaceOnUse" x="0" y="0" width="307" height="307">
<rect width="307" height="307" rx="10" fill="#F3DA1F"/>
</mask>
<g mask="url(#mask0)">
<path fill-rule="evenodd" clip-rule="evenodd" d="M112 301C141.823 301 166 276.823 166 247C166 217.177 141.823 193 112 193C82.1766 193 58 217.177 58 247C58 276.823 82.1766 301 112 301ZM111.589 229.523C111.589 225.113 113.861 220.93 117.696 218.614H117.697C119.495 217.462 121.766 216.988 123.793 217C125.829 217 128.083 217.462 129.893 218.626C133.74 220.943 136 225.125 136 229.535C136 233.945 133.729 238.127 129.893 240.443C127.855 241.607 125.368 242.069 123.114 242.069C120.411 242.069 118.374 244.152 118.374 246.942C118.374 250.428 121.077 251.814 123.114 251.814C125.596 251.814 127.855 252.276 129.893 253.44C133.74 255.762 136 259.944 136 264.355C136 268.765 133.729 272.947 129.892 275.263C126.056 277.579 121.532 277.579 117.696 275.263C113.842 272.947 111.589 268.771 111.589 264.355C111.589 262.039 112.266 259.716 113.399 257.622C114.52 255.306 113.842 252.276 111.589 250.89C108.43 249.03 105.943 251.124 105.038 252.75C103.917 254.844 102.335 256.692 100.297 257.856C96.4612 260.172 91.9363 260.172 88.1005 257.856C84.2537 255.534 82 251.353 82 246.942C82 242.53 84.2654 238.337 88.1014 236.021C91.9375 233.705 96.4624 233.705 100.298 236.021C102.336 237.408 103.918 239.268 105.267 241.128C106.615 243.45 109.564 244.374 111.817 242.988C114.976 241.362 114.532 238.115 113.627 236.255C112.494 234.173 111.589 231.839 111.589 229.523Z" fill="#F3C41F"/>
<path fill-rule="evenodd" clip-rule="evenodd" d="M326 38C326 72.7939 297.767 101 262.941 101C228.114 101 199.882 72.7939 199.882 38C199.882 3.20606 228.114 -25 262.941 -25C297.767 -25 326 3.20606 326 38ZM276.873 13.1139C285.543 16.2639 291.849 20.5951 290.667 29.0607C289.682 35.3607 286.332 38.3139 282.39 38.9045C288.499 42.0545 291.652 46.9764 288.696 55.6389C284.952 66.2701 276.084 67.0576 264.261 64.892L261.305 76.3108L254.408 74.5389L257.167 63.317C255.393 62.9232 253.62 62.5295 251.649 61.9389L248.89 73.3576L241.993 71.5857L244.949 60.167L244.949 60.167C243.372 59.7732 241.796 59.3795 240.022 58.9857L230.958 56.8201L234.308 48.9451C234.308 48.9451 239.431 50.3232 239.431 50.1264C241.402 50.717 242.19 49.3389 242.584 48.5514L247.117 30.4389L250.27 17.4451C250.467 16.067 249.875 14.2951 247.117 13.5076L241.993 12.3264L243.767 4.84512L253.225 7.20761C253.994 7.4271 254.763 7.58542 255.566 7.75076C256.204 7.88203 256.863 8.01773 257.561 8.19199L260.32 -3.22676L267.217 -1.45489L264.458 9.76699C265.962 10.2678 267.607 10.6271 269.154 10.9648C269.432 11.0254 269.706 11.0852 269.976 11.1451L272.734 0.120113L279.631 1.69511L276.873 13.1139ZM255.055 54.4404C260.754 55.9643 272.922 59.2184 274.902 51.3076C276.856 43.3223 264.881 40.6152 259.036 39.2937C258.397 39.1491 257.83 39.021 257.364 38.9045L253.62 54.0639C254.03 54.1664 254.513 54.2956 255.055 54.4404ZM260.24 32.3022C264.954 33.557 275.258 36.3 277.07 29.0607C278.91 21.3374 268.029 19.2821 263.374 18.4029C263.045 18.3408 262.747 18.2846 262.487 18.2326L259.137 32.0139C259.455 32.0933 259.826 32.192 260.24 32.3022Z" fill="#F3C41F"/>
<path fill-rule="evenodd" clip-rule="evenodd" d="M204 57C204 68.0457 195.046 77 184 77C172.954 77 164 68.0457 164 57C164 45.9543 172.954 37 184 37C195.046 37 204 45.9543 204 57ZM180.741 51.8914C180.014 51.8894 179.288 51.8874 178.56 51.8874C178.543 51.7362 179.116 48.6297 179.196 48.2417H185.594C185.667 48.2417 185.741 48.2417 185.815 48.2416C187.752 48.2406 189.629 48.2396 191.285 48.9477C192.759 49.5776 193.818 50.6316 194.254 52.3845C194.697 54.1711 194.428 56.3371 194.024 58.0816C193.262 61.3679 191.601 63.9789 188.345 65.1797C186.768 65.761 184.912 65.7534 183.106 65.746C182.905 65.7452 182.704 65.7444 182.504 65.7444H182.444C180.334 65.7444 178.224 65.7444 176.112 65.744L176.76 62.099C177.498 62.099 178.235 62.101 178.973 62.103C179.71 62.105 180.447 62.107 181.184 62.107C181.503 62.107 181.827 62.1124 182.153 62.1178C184.117 62.1501 186.183 62.1841 187.812 61.0737C188.934 60.3084 189.412 58.9942 189.758 57.5478C190.474 54.5629 190.293 52.4848 187.2 52.0057C186.217 51.8535 185 51.8706 183.88 51.8863C183.55 51.8909 183.227 51.8954 182.922 51.8954C182.195 51.8954 181.468 51.8934 180.741 51.8914ZM179.392 58.8184C177.541 58.8251 173.225 58.8407 172.927 58.8079C172.996 58.1757 173.411 56.5203 173.76 56.0352C174.391 55.1591 175.369 55.1644 176.328 55.1696C176.402 55.17 176.476 55.1704 176.549 55.1704H183.844C183.791 55.5746 183.659 56.0901 183.55 56.5155C183.533 56.5792 183.518 56.641 183.503 56.7C183.02 58.6051 182.298 58.8159 180.186 58.8159C180.086 58.8159 179.799 58.817 179.392 58.8184Z" fill="#F3C41F"/>
<path fill-rule="evenodd" clip-rule="evenodd" d="M32.0286 194.514C32.0286 206.949 21.9486 217.029 9.51429 217.029C-2.92001 217.029 -13 206.949 -13 194.514C-13 182.08 -2.92001 172 9.51429 172C21.9486 172 32.0286 182.08 32.0286 194.514ZM-4.26387 202.171C-4.4733 202.485 -5.10161 202.59 -5.93935 202.695V203.113H0.553144V202.695C-0.389316 202.695 -0.912903 202.485 -1.22706 202.276C-1.54121 202.066 -1.64593 201.438 -1.64593 200.6V196.412H0.134272C1.91447 196.412 3.38052 196.097 4.53241 195.364C5.68431 194.631 6.31261 193.479 6.31261 191.909C6.31261 190.652 5.78902 189.605 4.74185 188.872C3.69467 188.139 2.22862 187.72 0.23899 187.72H-5.93935V188.139C-5.20633 188.244 -4.57802 188.453 -4.36858 188.662C-4.05443 188.872 -3.94971 189.395 -3.94971 190.233V200.286C-3.94971 201.333 -4.05443 201.857 -4.26387 202.171ZM-0.598751 188.662C0.448425 188.662 1.28617 188.767 1.91447 189.081C3.17108 189.605 3.79939 190.547 3.79939 192.013C3.79939 193.584 3.2758 194.631 2.12391 195.155C1.4956 195.469 0.65786 195.574 -0.389316 195.574H-0.808187C-0.843092 195.574 -0.901268 195.562 -0.978837 195.547C-1.13397 195.516 -1.36668 195.469 -1.64593 195.469V189.395C-1.64593 189.081 -1.54121 188.872 -1.43649 188.767C-1.33178 188.662 -1.12235 188.662 -0.59878 188.662H-0.598751ZM8.82583 202.066C8.51168 202.38 7.88338 202.59 6.94092 202.695V203.218H12.3862V202.799C11.4438 202.695 10.9202 202.485 10.7108 202.276C10.3966 201.857 10.1872 201.019 10.1872 199.763V190.443L16.1561 203.009H16.4702L22.4391 189.814V200.286C22.4391 201.333 22.3344 201.857 22.125 202.171C21.9155 202.485 21.2872 202.59 20.3448 202.695V203.113H26.8373V202.695C25.9995 202.695 25.4759 202.59 25.1618 202.276C24.8476 201.962 24.7429 201.438 24.7429 200.6V190.233C24.7429 189.5 24.9523 188.872 25.1618 188.662C25.3712 188.453 25.9995 188.348 26.8373 188.244V187.825H22.2297L16.9938 199.448L11.6532 187.825H7.04564V188.244C7.98809 188.244 8.51168 188.453 8.82583 188.662C9.13999 188.977 9.24471 189.5 9.24471 190.338V199.763C9.24471 200.914 9.13999 201.752 8.82583 202.066Z" fill="#F3C41F"/>
<path fill-rule="evenodd" clip-rule="evenodd" d="M305.541 199.945C306.487 197.136 307 194.128 307 191C307 175.536 294.464 163 279 163C263.536 163 251 175.536 251 191C251 194.128 251.513 197.136 252.459 199.945H260.93V176.402L279 194.288L297.07 176.402V199.945H305.541ZM302.642 206H290.832V191.143L278.997 202.972L267.162 191.143V206H255.353C260.32 213.814 269.053 218.998 278.997 218.998C288.941 218.998 297.675 213.814 302.642 206Z" fill="#F3C41F"/>
<path d="M50.4997 -11C34.2074 -11 21 2.43153 21 19.0003C21 35.5693 34.2074 49 50.4997 49C66.7926 49 80 35.5693 80 19.0003C80.0003 2.43153 66.7928 -11 50.4997 -11ZM61.9511 33.6295H38.9012L40.8386 24.224L37.0715 26.8508L37.9866 21.7038L41.9266 18.9455L45.7914 0.18554H52.9871L50.3263 13.067L59.6947 6.51018L58.5968 11.8434L49.2299 18.3735L47.3769 27.3464H63.2313L61.9511 33.6295Z" fill="#F3C41F"/>
</g>
</svg>
