<?xml version="1.0" encoding="UTF-8" standalone="no"?>
<!-- Generator: Adobe Illustrator 22.1.0, SVG Export Plug-In . SVG Version: 6.00 Build 0)  -->

<svg
   xmlns:dc="http://purl.org/dc/elements/1.1/"
   xmlns:cc="http://creativecommons.org/ns#"
   xmlns:rdf="http://www.w3.org/1999/02/22-rdf-syntax-ns#"
   xmlns:svg="http://www.w3.org/2000/svg"
   xmlns="http://www.w3.org/2000/svg"
   xmlns:sodipodi="http://sodipodi.sourceforge.net/DTD/sodipodi-0.dtd"
   xmlns:inkscape="http://www.inkscape.org/namespaces/inkscape"
   version="1.1"
   id="Слой_1"
   x="0px"
   y="0px"
   viewBox="0 0 967.17786 363.66013"
   xml:space="preserve"
   sodipodi:docname="contactBack.svg"
   inkscape:version="0.92.3 (2405546, 2018-03-11)"
   width="967.17786"
   height="363.66013"><metadata
   id="metadata137"><rdf:RDF><cc:Work
       rdf:about=""><dc:format>image/svg+xml</dc:format><dc:type
         rdf:resource="http://purl.org/dc/dcmitype/StillImage" /></cc:Work></rdf:RDF></metadata><defs
   id="defs135" /><sodipodi:namedview
   pagecolor="#ffffff"
   bordercolor="#666666"
   borderopacity="1"
   objecttolerance="10"
   gridtolerance="10"
   guidetolerance="10"
   inkscape:pageopacity="0"
   inkscape:pageshadow="2"
   inkscape:window-width="1920"
   inkscape:window-height="1017"
   id="namedview133"
   showgrid="false"
   inkscape:zoom="1.1114812"
   inkscape:cx="407.32021"
   inkscape:cy="118.83964"
   inkscape:window-x="-8"
   inkscape:window-y="-8"
   inkscape:window-maximized="1"
   inkscape:current-layer="g130" />
<style
   type="text/css"
   id="style2">
	.st0{fill:#FCE21D;}
</style>
<circle
   class="st0"
   cx="280.5"
   cy="107.5"
   r="82.5"
   id="circle4"
   style="fill:#fce21d" />
<circle
   class="st0"
   cx="374"
   cy="143"
   r="42"
   id="circle6"
   style="fill:#fce21d" />
<circle
   class="st0"
   cx="167.5"
   cy="26.5"
   r="12.5"
   id="circle8"
   style="fill:#fce21d" />
<circle
   class="st0"
   cx="564.5"
   cy="130.5"
   r="12.5"
   id="circle10"
   style="fill:#fce21d" />
<circle
   class="st0"
   cx="490.5"
   cy="134.5"
   r="12.5"
   id="circle12"
   style="fill:#fce21d" />
<circle
   class="st0"
   cx="367"
   cy="96"
   r="7"
   id="circle14"
   style="fill:#fce21d" />
<circle
   class="st0"
   cx="14"
   cy="78"
   r="9"
   id="circle16"
   style="fill:#fce21d" />
<circle
   class="st0"
   cx="673"
   cy="142"
   r="49"
   id="circle18"
   style="fill:#fce21d" />
<circle
   class="st0"
   cx="943"
   cy="201"
   r="23"
   id="circle20"
   style="fill:#fce21d" />
<path
   class="st0"
   d="m 171.2,93.9 c 0,25.9 -21,46.9 -46.9,46.9 -25.9,0 -46.9,-21 -46.9,-46.9 0,-25.9 21,-46.9 46.9,-46.9 25.9,0.1 46.9,21.1 46.9,46.9 z M 134.7,75.4 c 6.4,2.3 11.1,5.6 10.3,11.9 -0.7,4.7 -3.2,6.9 -6.2,7.3 4.5,2.3 6.9,6 4.7,12.4 -2.8,7.9 -9.4,8.5 -18.2,6.9 l -2.2,8.5 -5.1,-1.3 2.1,-8.3 c -1.3,-0.3 -2.6,-0.6 -4.1,-1 l -2.1,8.5 -5.1,-1.3 2.2,-8.5 v 0 c -1.2,-0.3 -2.3,-0.6 -3.7,-0.9 l -6.7,-1.6 2.5,-5.9 c 0,0 3.8,1 3.8,0.9 1.5,0.4 2.1,-0.6 2.3,-1.2 l 3.4,-13.5 2.3,-9.7 c 0.1,-1 -0.3,-2.3 -2.3,-2.9 l -3.8,-0.9 1.3,-5.6 7,1.8 c 0.6,0.2 1.1,0.3 1.7,0.4 0.5,0.1 1,0.2 1.5,0.3 l 2.1,-8.5 5.1,1.3 -2.1,8.3 c 1.1,0.4 2.3,0.6 3.5,0.9 0.2,0 0.4,0.1 0.6,0.1 l 2.1,-8.2 5.1,1.2 z m -16.3,30.8 c 4.2,1.1 13.3,3.6 14.8,-2.3 1.5,-5.9 -7.5,-8 -11.8,-8.9 -0.5,-0.1 -0.9,-0.2 -1.2,-0.3 l -2.8,11.3 c 0.3,0 0.6,0 1,0.2 z m 3.9,-16.5 c 3.5,0.9 11.2,3 12.5,-2.4 1.4,-5.7 -6.7,-7.3 -10.2,-7.9 -0.2,0 -0.5,-0.1 -0.7,-0.1 l -2.5,10.2 c 0.3,0 0.6,0.1 0.9,0.2 z"
   id="path22"
   inkscape:connector-curvature="0"
   style="fill:#fce21d" />
<path
   class="st0"
   d="m 556.9,117.9 c 0,17.1 -13.9,30.9 -30.9,30.9 -17.1,0 -30.9,-13.8 -30.9,-30.9 0,-17.1 13.9,-30.9 30.9,-30.9 17,0 30.9,13.8 30.9,30.9 z m -24.1,-12.2 c 4.3,1.5 7.3,3.7 6.8,7.8 -0.5,3.1 -2.1,4.5 -4.1,4.8 3,1.5 4.5,4 3.1,8.2 -1.8,5.2 -6.2,5.6 -12,4.5 l -1.5,5.6 -3.4,-0.9 1.4,-5.5 c -0.9,-0.2 -1.7,-0.4 -2.7,-0.7 l -1.4,5.6 -3.4,-0.9 1.5,-5.6 v 0 c -0.8,-0.2 -1.5,-0.4 -2.4,-0.6 l -4.4,-1.1 1.6,-3.9 c 0,0 2.5,0.7 2.5,0.6 1,0.3 1.4,-0.4 1.5,-0.8 l 2.2,-8.9 1.5,-6.4 c 0.1,-0.7 -0.2,-1.5 -1.5,-1.9 l -2.5,-0.6 0.9,-3.7 4.6,1.2 c 0.4,0.1 0.8,0.2 1.1,0.3 0.3,0.1 0.6,0.1 1,0.2 l 1.4,-5.6 3.4,0.9 -1.4,5.5 c 0.7,0.2 1.5,0.4 2.3,0.6 0.1,0 0.3,0.1 0.4,0.1 l 1.4,-5.4 3.4,0.8 z M 522.1,126 c 2.8,0.7 8.8,2.3 9.7,-1.5 1,-3.9 -4.9,-5.2 -7.8,-5.9 -0.3,-0.1 -0.6,-0.1 -0.8,-0.2 l -1.8,7.4 c 0.2,0 0.4,0.1 0.7,0.2 z m 2.5,-10.9 c 2.3,0.6 7.4,2 8.3,-1.6 0.9,-3.8 -4.4,-4.8 -6.7,-5.2 -0.2,0 -0.3,-0.1 -0.4,-0.1 l -1.6,6.8 c 0,0 0.2,0.1 0.4,0.1 z"
   id="path24"
   inkscape:connector-curvature="0"
   style="fill:#fce21d" />
<path
   class="st0"
   d="m 373.9,37.9 c 0,14.3 -11.6,25.9 -25.9,25.9 -14.3,0 -25.9,-11.6 -25.9,-25.9 0,-14.3 11.6,-25.9 25.9,-25.9 14.3,0 25.9,11.6 25.9,25.9 z M 353.7,27.7 c 3.6,1.3 6.2,3.1 5.7,6.6 -0.4,2.6 -1.8,3.8 -3.4,4 2.5,1.3 3.8,3.3 2.6,6.9 -1.5,4.4 -5.2,4.7 -10,3.8 l -1.2,4.7 -2.8,-0.7 1.1,-4.6 c -0.7,-0.2 -1.5,-0.3 -2.3,-0.6 l -1.1,4.7 -2.8,-0.7 1.2,-4.7 v 0 c -0.6,-0.2 -1.3,-0.3 -2,-0.5 l -3.7,-0.9 1.4,-3.2 c 0,0 2.1,0.6 2.1,0.5 0.8,0.2 1.1,-0.3 1.3,-0.6 l 1.9,-7.4 1.3,-5.3 c 0.1,-0.6 -0.2,-1.3 -1.3,-1.6 l -2.1,-0.5 0.7,-3.1 3.9,1 c 0.3,0.1 0.6,0.2 1,0.2 0.3,0.1 0.5,0.1 0.8,0.2 l 1.1,-4.7 2.8,0.7 -1.1,4.6 c 0.6,0.2 1.3,0.4 1.9,0.5 0.1,0 0.2,0 0.3,0.1 l 1.1,-4.5 2.8,0.6 z m -9,17 c 2.3,0.6 7.3,2 8.2,-1.3 0.8,-3.3 -4.1,-4.4 -6.5,-4.9 -0.3,-0.1 -0.5,-0.1 -0.7,-0.2 l -1.5,6.2 c 0.1,0.1 0.3,0.1 0.5,0.2 z m 2.1,-9.1 c 1.9,0.5 6.2,1.6 6.9,-1.3 0.8,-3.2 -3.7,-4 -5.6,-4.4 -0.1,0 -0.3,0 -0.4,-0.1 l -1.4,5.7 c 0.2,0 0.4,0 0.5,0.1 z"
   id="path26"
   inkscape:connector-curvature="0"
   style="fill:#fce21d" />
<path
   class="st0"
   d="m 858.3,48.1 c 0,10.6 -8.6,19.1 -19.2,19.1 -10.6,0 -19.1,-8.5 -19.1,-19.1 0,-10.6 8.6,-19.1 19.2,-19.1 10.6,0 19.1,8.6 19.1,19.1 z m -14.9,-7.5 c 2.6,1 4.5,2.3 4.2,4.8 -0.3,1.9 -1.3,2.8 -2.5,3 1.9,1 2.8,2.5 1.9,5.1 -1.1,3.2 -3.8,3.5 -7.4,2.8 l -0.9,3.5 -2.1,-0.5 0.8,-3.4 c -0.5,-0.1 -1.1,-0.2 -1.7,-0.4 l -0.8,3.5 -2.1,-0.5 0.9,-3.5 c -0.5,-0.1 -1,-0.2 -1.5,-0.4 l -2.8,-0.7 1,-2.4 c 0,0 1.6,0.4 1.6,0.4 0.6,0.2 0.8,-0.2 1,-0.5 l 1.4,-5.5 1,-3.9 c 0.1,-0.4 -0.1,-1 -1,-1.2 l -1.6,-0.4 0.5,-2.3 2.9,0.7 c 0.2,0.1 0.5,0.1 0.7,0.2 0.2,0 0.4,0.1 0.6,0.1 l 0.8,-3.5 2.1,0.5 -0.8,3.4 c 0.5,0.2 1,0.3 1.4,0.4 0.1,0 0.2,0 0.2,0.1 l 0.8,-3.3 2.1,0.5 z m -6.6,12.5 c 1.7,0.5 5.4,1.5 6,-1 0.6,-2.4 -3,-3.2 -4.8,-3.6 -0.2,0 -0.4,-0.1 -0.5,-0.1 l -1.1,4.6 c 0,0 0.2,0.1 0.4,0.1 z m 1.5,-6.7 c 1.4,0.4 4.6,1.2 5.1,-1 0.6,-2.3 -2.7,-3 -4.2,-3.2 -0.1,0 -0.2,0 -0.3,-0.1 l -1,4.2 c 0.2,0 0.3,0.1 0.4,0.1 z"
   id="path28"
   inkscape:connector-curvature="0"
   style="fill:#fce21d" />
<path
   class="st0"
   d="m 573.6,76.3 c 0,6.8 -5.5,12.3 -12.3,12.3 -6.8,0 -12.3,-5.6 -12.3,-12.3 0,-6.8 5.5,-12.3 12.3,-12.3 6.8,0 12.3,5.5 12.3,12.3 z M 564,71.4 c 1.7,0.6 2.9,1.5 2.7,3.1 -0.2,1.2 -0.8,1.8 -1.6,1.9 1.2,0.6 1.8,1.6 1.2,3.3 -0.7,2.1 -2.5,2.2 -4.8,1.8 l -0.6,2.2 -1.3,-0.3 0.5,-2.2 C 559.8,81.1 559.4,81 559,80.9 l -0.5,2.2 -1.3,-0.3 0.6,-2.2 v 0 c -0.3,-0.1 -0.6,-0.2 -1,-0.2 L 555,80 l 0.7,-1.5 c 0,0 1,0.3 1,0.2 0.4,0.1 0.5,-0.2 0.6,-0.3 l 0.9,-3.5 0.6,-2.5 c 0,-0.3 -0.1,-0.6 -0.6,-0.8 l -1,-0.2 0.3,-1.5 1.8,0.5 c 0.2,0 0.3,0.1 0.5,0.1 0.1,0 0.3,0.1 0.4,0.1 l 0.5,-2.2 1.3,0.3 -0.5,2.2 c 0.3,0.1 0.6,0.2 0.9,0.2 0.1,0 0.1,0 0.2,0 l 0.5,-2.1 1.3,0.3 z m -4.3,8.1 c 1.1,0.3 3.5,0.9 3.9,-0.6 0.4,-1.6 -2,-2.1 -3.1,-2.3 -0.1,0 -0.2,-0.1 -0.3,-0.1 l -0.7,3 c 0,-0.1 0.1,-0.1 0.2,0 z m 1.1,-4.3 c 0.9,0.2 2.9,0.8 3.3,-0.6 0.4,-1.5 -1.8,-1.9 -2.7,-2.1 -0.1,0 -0.1,0 -0.2,0 l -0.7,2.7 c 0.1,-0.1 0.2,-0.1 0.3,0 z"
   id="path30"
   inkscape:connector-curvature="0"
   style="fill:#fce21d" />
<path
   class="st0"
   d="m 57.3,101.3 c 0,5.3 -4.3,9.6 -9.6,9.6 -5.3,0 -9.6,-4.3 -9.6,-9.6 0,-5.3 4.3,-9.6 9.6,-9.6 5.3,0 9.6,4.3 9.6,9.6 z m -7.4,-3.8 c 1.3,0.5 2.3,1.1 2.1,2.4 -0.1,1 -0.7,1.4 -1.3,1.5 0.9,0.5 1.4,1.2 1,2.5 -0.6,1.6 -1.9,1.7 -3.7,1.4 l -0.4,1.7 -1,-0.3 0.4,-1.7 c -0.3,-0.1 -0.5,-0.1 -0.8,-0.2 l -0.4,1.7 -1,-0.3 0.4,-1.7 c -0.2,-0.1 -0.5,-0.1 -0.7,-0.2 l -1.4,-0.3 0.5,-1.2 c 0,0 0.8,0.2 0.8,0.2 0.3,0.1 0.4,-0.1 0.5,-0.2 l 0.7,-2.8 0.5,-2 c 0,-0.2 -0.1,-0.5 -0.5,-0.6 l -0.8,-0.2 0.3,-1.1 1.4,0.4 c 0.1,0 0.2,0.1 0.4,0.1 0.1,0 0.2,0 0.3,0.1 l 0.4,-1.7 1,0.3 L 48,97 c 0.2,0.1 0.5,0.1 0.7,0.2 0,0 0.1,0 0.1,0 l 0.4,-1.7 1,0.2 z m -3.3,6.3 c 0.9,0.2 2.7,0.7 3,-0.5 0.3,-1.2 -1.5,-1.6 -2.4,-1.8 -0.1,0 -0.2,0 -0.3,-0.1 l -0.6,2.3 c 0.1,0 0.2,0.1 0.3,0.1 z m 0.7,-3.4 c 0.7,0.2 2.3,0.6 2.6,-0.5 0.3,-1.2 -1.4,-1.5 -2.1,-1.6 0,0 -0.1,0 -0.1,0 l -0.5,2.1 c 0,0 0.1,0 0.1,0 z"
   id="path32"
   inkscape:connector-curvature="0"
   style="fill:#fce21d" />
<path
   class="st0"
   d="m 194.7,190.3 c -11.7,0 -21.1,9.6 -21.1,21.3 0,11.8 9.4,21.3 21.1,21.3 11.7,0 21.1,-9.6 21.1,-21.3 0,-11.7 -9.5,-21.3 -21.1,-21.3 z m 8.2,31.8 h -16.5 l 1.4,-6.7 -2.7,1.9 0.7,-3.7 2.8,-2 2.8,-13.3 h 5.1 l -1.9,9.2 6.7,-4.7 -0.8,3.8 -6.7,4.6 -1.3,6.4 h 11.3 z"
   id="path34"
   inkscape:connector-curvature="0"
   style="fill:#fce21d" />
<path
   class="st0"
   d="m 602.8,94 c -15.2,0 -27.5,12.4 -27.5,27.7 0,15.3 12.3,27.7 27.5,27.7 15.2,0 27.5,-12.4 27.5,-27.7 C 630.3,106.4 618,94 602.8,94 Z m 10.7,41.2 H 592 l 1.8,-8.7 -3.5,2.4 0.9,-4.8 3.7,-2.5 3.6,-17.3 h 6.7 l -2.5,11.9 8.7,-6.1 -1,4.9 -8.7,6 -1.7,8.3 h 14.8 z"
   id="path36"
   inkscape:connector-curvature="0"
   style="fill:#fce21d" />
<path
   class="st0"
   d="m 904.8,136.9 c -13.7,0 -24.8,11.2 -24.8,25 0,13.8 11.1,25 24.8,25 13.7,0 24.8,-11.2 24.8,-25 0,-13.8 -11.1,-25 -24.8,-25 z m 9.6,37.2 H 895 l 1.6,-7.8 -3.2,2.2 0.8,-4.3 3.3,-2.3 3.2,-15.6 h 6 l -2.2,10.7 7.9,-5.5 -0.9,4.4 -7.9,5.4 -1.6,7.5 h 13.3 z"
   id="path38"
   inkscape:connector-curvature="0"
   style="fill:#fce21d" />
<path
   class="st0"
   d="m 451.5,19 c -10.2,0 -18.5,8.5 -18.5,19 0,10.5 8.3,19 18.5,19 10.2,0 18.5,-8.5 18.5,-19 0,-10.5 -8.3,-19 -18.5,-19 z m 7.2,28.3 h -14.5 l 1.2,-6 -2.4,1.7 0.6,-3.3 2.5,-1.7 2.4,-11.9 h 4.5 l -1.7,8.2 5.9,-4.2 -0.7,3.4 -5.9,4.1 -1.2,5.7 h 9.9 z"
   id="path40"
   inkscape:connector-curvature="0"
   style="fill:#fce21d" />
<path
   class="st0"
   d="M 938.5,66 C 932.7,66 928,70.7 928,76.5 928,82.3 932.7,87 938.5,87 944.3,87 949,82.3 949,76.5 949,70.7 944.3,66 938.5,66 Z m 4.1,15.6 h -8.2 l 0.7,-3.3 -1.3,0.9 0.3,-1.8 1.4,-1 1.4,-6.6 h 2.6 l -0.9,4.5 3.3,-2.3 -0.4,1.9 -3.3,2.3 -0.7,3.1 h 5.6 z"
   id="path42"
   inkscape:connector-curvature="0"
   style="fill:#fce21d" />
<path
   class="st0"
   d="m 833.3,98.2 c 0,17.2 -13.9,31.2 -31.2,31.2 -17.2,0 -31.2,-13.9 -31.2,-31.2 0,-17.2 13.9,-31.2 31.2,-31.2 17.3,0 31.2,13.9 31.2,31.2 z m -36.2,-8 c -1.1,0 -2.3,0 -3.4,0 0,-0.2 0.9,-5.1 1,-5.7 h 10 c 0.1,0 0.2,0 0.3,0 3,0 5.9,0 8.5,1.1 2.3,1 3.9,2.6 4.6,5.4 0.7,2.8 0.3,6.2 -0.4,8.9 -1.2,5.1 -3.8,9.2 -8.8,11.1 -2.5,0.9 -5.3,0.9 -8.2,0.9 -0.3,0 -0.6,0 -0.9,0 h -0.1 c -3.3,0 -6.6,0 -9.9,0 l 1,-5.7 c 1.1,0 2.3,0 3.4,0 1.1,0 2.3,0 3.4,0 0.5,0 1,0 1.5,0 3.1,0.1 6.3,0.1 8.8,-1.6 1.7,-1.2 2.5,-3.2 3,-5.5 1.1,-4.6 0.8,-7.9 -4,-8.6 -1.5,-0.2 -3.4,-0.2 -5.2,-0.2 -0.5,0 -1,0 -1.5,0 -0.9,-0.1 -2,-0.1 -3.1,-0.1 z M 795,101 c -2.9,0 -9.6,0 -10.1,0 0.1,-1 0.8,-3.6 1.3,-4.3 1,-1.4 2.5,-1.4 4,-1.3 0.1,0 0.2,0 0.3,0 h 11.4 c -0.1,0.6 -0.3,1.4 -0.5,2.1 0,0.1 -0.1,0.2 -0.1,0.3 -0.8,3 -1.9,3.3 -5.2,3.3 0,-0.1 -0.5,-0.1 -1.1,-0.1 z"
   id="path44"
   inkscape:connector-curvature="0"
   style="fill:#fce21d" />
<path
   class="st0"
   d="m 248.1,129.5 c 0,13 -10.5,23.5 -23.5,23.5 -13,0 -23.5,-10.5 -23.5,-23.5 0,-13 10.5,-23.5 23.5,-23.5 13,0 23.5,10.5 23.5,23.5 z m -27.3,-6 c -0.9,0 -1.7,0 -2.6,0 0,-0.2 0.7,-3.8 0.7,-4.3 h 7.5 c 0.1,0 0.2,0 0.3,0 2.3,0 4.5,0 6.4,0.8 1.7,0.7 3,2 3.5,4 0.5,2.1 0.2,4.7 -0.3,6.7 -0.9,3.9 -2.9,6.9 -6.7,8.4 -1.9,0.7 -4,0.7 -6.2,0.7 -0.2,0 -0.5,0 -0.7,0 h -0.1 c -2.5,0 -5,0 -7.5,0 l 0.8,-4.3 c 0.9,0 1.7,0 2.6,0 0.9,0 1.7,0 2.6,0 0.4,0 0.8,0 1.1,0 2.3,0 4.7,0.1 6.7,-1.2 1.3,-0.9 1.9,-2.4 2.3,-4.2 0.8,-3.5 0.6,-6 -3,-6.5 -1.2,-0.2 -2.6,-0.2 -3.9,-0.1 -0.4,0 -0.8,0 -1.1,0 -0.7,0 -1.6,0 -2.4,0 z m -1.6,8.1 c -2.2,0 -7.3,0 -7.6,0 0.1,-0.7 0.6,-2.7 1,-3.3 0.7,-1 1.9,-1 3,-1 0.1,0 0.2,0 0.3,0 h 8.6 c -0.1,0.5 -0.2,1.1 -0.3,1.6 0,0.1 0,0.1 -0.1,0.2 -0.6,2.2 -1.4,2.5 -3.9,2.5 -0.2,0 -0.5,0 -1,0 z"
   id="path46"
   inkscape:connector-curvature="0"
   style="fill:#fce21d" />
<path
   class="st0"
   d="m 241,18 c 0,9.4 -7.6,17 -17,17 -9.4,0 -17,-7.6 -17,-17 0,-9.4 7.6,-17 17,-17 9.4,0 17,7.6 17,17 z m -19.8,-4.4 c -0.6,0 -1.2,0 -1.9,0 0,-0.1 0.5,-2.8 0.5,-3.1 h 5.4 c 0.1,0 0.1,0 0.2,0 1.6,0 3.2,0 4.6,0.6 1.3,0.5 2.2,1.4 2.5,2.9 0.4,1.5 0.1,3.4 -0.2,4.8 -0.6,2.8 -2.1,5 -4.8,6 -1.3,0.5 -2.9,0.5 -4.4,0.5 -0.2,0 -0.3,0 -0.5,0 v 0 c -1.8,0 -3.6,0 -5.4,0 l 0.6,-3.1 c 0.6,0 1.3,0 1.9,0 0.6,0 1.3,0 1.9,0 0.3,0 0.5,0 0.8,0 1.7,0 3.4,0.1 4.8,-0.9 1,-0.7 1.4,-1.8 1.7,-3 0.6,-2.5 0.5,-4.3 -2.2,-4.7 -0.8,-0.1 -1.9,-0.1 -2.8,-0.1 -0.3,0 -0.6,0 -0.8,0 -0.7,0.1 -1.3,0.1 -1.9,0.1 z m -1.1,5.9 c -1.6,0 -5.2,0 -5.5,0 0.1,-0.5 0.4,-1.9 0.7,-2.4 0.5,-0.7 1.4,-0.7 2.2,-0.7 0.1,0 0.1,0 0.2,0 h 6.2 c 0,0.3 -0.2,0.8 -0.2,1.1 0,0.1 0,0.1 0,0.2 -0.4,1.6 -1,1.8 -2.8,1.8 -0.2,0 -0.5,0 -0.8,0 z"
   id="path48"
   inkscape:connector-curvature="0"
   style="fill:#fce21d" />
<path
   class="st0"
   d="m 642.9,67 c 0,8.3 -6.7,15 -15,15 -8.3,0 -15,-6.7 -15,-15 0,-8.3 6.7,-15 15,-15 8.3,0 15,6.7 15,15 z m -24.1,5.1 c -0.1,0.2 -0.6,0.3 -1.1,0.3 v 0.3 h 4.3 v -0.3 c -0.6,0 -1,-0.1 -1.2,-0.3 -0.2,-0.1 -0.3,-0.6 -0.3,-1.1 v -2.8 h 1.2 c 1.2,0 2.2,-0.2 2.9,-0.7 0.8,-0.5 1.2,-1.3 1.2,-2.3 0,-0.8 -0.3,-1.5 -1,-2 -0.7,-0.5 -1.7,-0.8 -3,-0.8 h -4.1 v 0.3 c 0.5,0.1 0.9,0.2 1,0.3 0.2,0.1 0.3,0.5 0.3,1 v 6.7 c 0,0.8 -0.1,1.2 -0.2,1.4 z m 2.4,-9 c 0.7,0 1.3,0.1 1.7,0.3 0.8,0.3 1.3,1 1.3,1.9 0,1 -0.3,1.7 -1.1,2.1 -0.4,0.2 -1,0.3 -1.7,0.3 h -0.3 c 0,0 -0.1,0 -0.1,0 -0.1,0 -0.3,-0.1 -0.4,-0.1 v -4 c 0,-0.2 0.1,-0.3 0.1,-0.4 0.1,-0.1 0.2,-0.1 0.5,-0.1 z m 6.3,8.9 c -0.2,0.2 -0.6,0.3 -1.3,0.4 v 0.3 h 3.6 v -0.3 c -0.6,-0.1 -1,-0.2 -1.1,-0.3 -0.2,-0.3 -0.3,-0.8 -0.3,-1.7 v -6.2 l 4,8.4 h 0.2 l 4,-8.8 v 7 c 0,0.7 -0.1,1 -0.2,1.3 -0.1,0.2 -0.6,0.3 -1.2,0.3 v 0.3 h 4.3 v -0.3 c -0.6,0 -0.9,-0.1 -1.1,-0.3 -0.2,-0.2 -0.3,-0.6 -0.3,-1.1 v -6.9 c 0,-0.5 0.1,-0.9 0.3,-1 0.1,-0.1 0.6,-0.2 1.1,-0.3 v -0.3 h -3.1 l -3.5,7.7 -3.6,-7.7 h -3.1 v 0.3 c 0.6,0 1,0.1 1.2,0.3 0.2,0.2 0.3,0.6 0.3,1.1 v 6.3 c 0.1,0.7 0,1.3 -0.2,1.5 z"
   id="path50"
   inkscape:connector-curvature="0"
   style="fill:#fce21d" />
<path
   class="st0"
   d="m 85.8,212.7 c 0,8.3 -6.7,15 -15,15 -8.3,0 -15,-6.7 -15,-15 0,-8.3 6.7,-15 15,-15 8.3,0 15,6.7 15,15 z m -24.2,5.1 c -0.1,0.2 -0.6,0.3 -1.1,0.3 v 0.3 h 4.3 v -0.3 c -0.6,0 -1,-0.1 -1.2,-0.3 -0.2,-0.1 -0.3,-0.6 -0.3,-1.1 v -2.8 h 1.2 c 1.2,0 2.2,-0.2 2.9,-0.7 0.8,-0.5 1.2,-1.3 1.2,-2.3 0,-0.8 -0.3,-1.5 -1,-2 -0.7,-0.5 -1.7,-0.8 -3,-0.8 h -4.1 v 0.3 c 0.5,0.1 0.9,0.2 1,0.3 0.2,0.1 0.3,0.5 0.3,1 v 6.7 c 0.1,0.8 0,1.1 -0.2,1.4 z m 2.5,-9 c 0.7,0 1.3,0.1 1.7,0.3 0.8,0.3 1.3,1 1.3,1.9 0,1 -0.3,1.7 -1.1,2.1 -0.4,0.2 -1,0.3 -1.7,0.3 H 64 c 0,0 -0.1,0 -0.1,0 -0.1,0 -0.3,-0.1 -0.4,-0.1 v -4 c 0,-0.2 0.1,-0.3 0.1,-0.4 0,-0.1 0.1,-0.1 0.5,-0.1 z m 6.2,8.9 c -0.2,0.2 -0.6,0.3 -1.3,0.4 v 0.3 h 3.6 v -0.3 c -0.6,-0.1 -1,-0.2 -1.1,-0.3 -0.2,-0.3 -0.3,-0.8 -0.3,-1.7 V 210 l 4,8.4 h 0.2 l 4,-8.8 v 7 c 0,0.7 -0.1,1 -0.2,1.3 -0.1,0.2 -0.6,0.3 -1.2,0.3 v 0.3 h 4.3 v -0.3 c -0.6,0 -0.9,-0.1 -1.1,-0.3 -0.2,-0.2 -0.3,-0.6 -0.3,-1.1 v -6.9 c 0,-0.5 0.1,-0.9 0.3,-1 0.1,-0.1 0.6,-0.2 1.1,-0.3 v -0.3 h -3.1 l -3.5,7.7 -3.6,-7.7 H 69 v 0.3 c 0.6,0 1,0.1 1.2,0.3 0.2,0.2 0.3,0.6 0.3,1.1 v 6.3 c 0.1,0.6 0.1,1.2 -0.2,1.4 z"
   id="path52"
   inkscape:connector-curvature="0"
   style="fill:#fce21d" />
<path
   class="st0"
   d="m 768.1,123.5 c 0,13.5 -11,24.5 -24.5,24.5 -13.5,0 -24.5,-11 -24.5,-24.5 C 719,110 730,99 743.5,99 c 13.6,0 24.6,11 24.6,24.5 z m -39.6,8.4 c -0.2,0.3 -0.9,0.5 -1.8,0.6 v 0.5 h 7.1 v -0.5 c -1,0 -1.6,-0.2 -1.9,-0.5 -0.3,-0.2 -0.5,-0.9 -0.5,-1.8 v -4.6 h 1.9 c 1.9,0 3.5,-0.3 4.8,-1.1 1.3,-0.8 1.9,-2.1 1.9,-3.8 0,-1.4 -0.6,-2.5 -1.7,-3.3 -1.1,-0.8 -2.7,-1.3 -4.9,-1.3 h -6.7 v 0.5 c 0.8,0.1 1.5,0.3 1.7,0.6 0.3,0.2 0.5,0.8 0.5,1.7 v 11 c 0,1.1 -0.2,1.6 -0.4,2 z m 4,-14.7 c 1.1,0 2.1,0.1 2.7,0.5 1.4,0.6 2.1,1.6 2.1,3.2 0,1.7 -0.6,2.9 -1.8,3.4 -0.7,0.3 -1.6,0.5 -2.7,0.5 h -0.5 c 0,0 -0.1,0 -0.2,0 -0.2,0 -0.4,-0.1 -0.7,-0.1 V 118 c 0,-0.3 0.1,-0.6 0.2,-0.7 0.1,-0.1 0.3,-0.1 0.9,-0.1 z m 10.3,14.6 c -0.3,0.3 -1,0.6 -2.1,0.7 v 0.6 h 5.9 v -0.5 c -1,-0.1 -1.6,-0.3 -1.8,-0.6 -0.3,-0.5 -0.6,-1.4 -0.6,-2.7 v -10.2 l 6.5,13.7 h 0.3 l 6.5,-14.4 v 11.4 c 0,1.1 -0.1,1.7 -0.3,2.1 -0.2,0.3 -0.9,0.5 -1.9,0.6 v 0.5 h 7.1 v -0.5 c -0.9,0 -1.5,-0.1 -1.8,-0.5 -0.3,-0.3 -0.5,-0.9 -0.5,-1.8 v -11.3 c 0,-0.8 0.2,-1.5 0.5,-1.7 0.2,-0.2 0.9,-0.3 1.8,-0.5 v -0.5 h -5 l -5.7,12.7 -5.8,-12.7 h -5 v 0.5 c 1,0 1.6,0.2 1.9,0.5 0.3,0.3 0.5,0.9 0.5,1.8 v 10.3 c -0.1,1.2 -0.2,2.1 -0.5,2.5 z"
   id="path54"
   inkscape:connector-curvature="0"
   style="fill:#fce21d" />
<path
   class="st0"
   d="m 854.8,129.5 c 9.1,0 16.4,-7.4 16.4,-16.4 0,-9 -7.4,-16.4 -16.4,-16.4 -9.1,0 -16.4,7.4 -16.4,16.4 0,9 7.3,16.4 16.4,16.4 z m -0.2,-21.8 c 0,-1.3 0.7,-2.6 1.9,-3.3 v 0 c 0.5,-0.4 1.2,-0.5 1.9,-0.5 0.6,0 1.3,0.1 1.9,0.5 1.2,0.7 1.9,2 1.9,3.3 0,1.3 -0.7,2.6 -1.9,3.3 -0.6,0.4 -1.4,0.5 -2.1,0.5 -0.8,0 -1.4,0.6 -1.4,1.5 0,1.1 0.8,1.5 1.4,1.5 0.8,0 1.4,0.1 2.1,0.5 1.2,0.7 1.9,2 1.9,3.3 0,1.3 -0.7,2.6 -1.9,3.3 -1.2,0.7 -2.5,0.7 -3.7,0 -1.2,-0.7 -1.9,-2 -1.9,-3.3 0,-0.7 0.2,-1.4 0.5,-2 0.3,-0.7 0.1,-1.6 -0.5,-2 -1,-0.6 -1.7,0.1 -2,0.6 -0.3,0.6 -0.8,1.2 -1.4,1.6 -1.2,0.7 -2.5,0.7 -3.7,0 -1.2,-0.7 -1.9,-2 -1.9,-3.3 0,-1.3 0.7,-2.6 1.9,-3.3 1.2,-0.7 2.5,-0.7 3.7,0 0.6,0.4 1.1,1 1.5,1.6 0.4,0.7 1.3,1 2,0.6 1,-0.5 0.8,-1.5 0.6,-2 -0.5,-1 -0.8,-1.7 -0.8,-2.4 z"
   id="path56"
   inkscape:connector-curvature="0"
   style="fill:#fce21d" />
<path
   class="st0"
   d="m 448.6,142.2 c 10.8,0 19.6,-8.8 19.6,-19.6 0,-10.8 -8.8,-19.6 -19.6,-19.6 -10.8,0 -19.6,8.8 -19.6,19.6 0,10.9 8.8,19.6 19.6,19.6 z m -0.1,-25.9 c 0,-1.6 0.8,-3.1 2.2,-4 v 0 c 0.7,-0.4 1.5,-0.6 2.2,-0.6 0.7,0 1.6,0.2 2.2,0.6 1.4,0.8 2.2,2.4 2.2,4 0,1.6 -0.8,3.1 -2.2,4 -0.7,0.4 -1.6,0.6 -2.5,0.6 -1,0 -1.7,0.8 -1.7,1.8 0,1.3 1,1.8 1.7,1.8 0.9,0 1.7,0.2 2.5,0.6 1.4,0.8 2.2,2.4 2.2,4 0,1.6 -0.8,3.1 -2.2,4 -1.4,0.8 -3,0.8 -4.4,0 -1.4,-0.8 -2.2,-2.4 -2.2,-4 0,-0.8 0.2,-1.7 0.7,-2.4 0.4,-0.8 0.2,-1.9 -0.7,-2.4 -1.1,-0.7 -2.1,0.1 -2.4,0.7 -0.4,0.8 -1,1.4 -1.7,1.9 -1.4,0.8 -3,0.8 -4.4,0 -1.4,-0.8 -2.2,-2.4 -2.2,-4 0,-1.6 0.8,-3.1 2.2,-4 1.4,-0.8 3,-0.8 4.4,0 0.7,0.5 1.3,1.2 1.8,1.9 0.5,0.8 1.6,1.2 2.4,0.7 1.1,-0.6 1,-1.8 0.7,-2.4 -0.5,-1.1 -0.8,-2 -0.8,-2.8 z"
   id="path58"
   inkscape:connector-curvature="0"
   style="fill:#fce21d" />
<path
   class="st0"
   d="m 274.9,24.7 c 3.8,0 6.9,-3.1 6.9,-6.9 0,-3.8 -3.1,-6.9 -6.9,-6.9 -3.8,0 -6.9,3.1 -6.9,6.9 0,3.9 3.1,6.9 6.9,6.9 z m -0.1,-9.1 c 0,-0.6 0.3,-1.1 0.8,-1.4 v 0 c 0.2,-0.1 0.5,-0.2 0.8,-0.2 0.3,0 0.5,0.1 0.8,0.2 0.5,0.3 0.8,0.8 0.8,1.4 0,0.6 -0.3,1.1 -0.8,1.4 -0.3,0.1 -0.6,0.2 -0.9,0.2 -0.3,0 -0.6,0.3 -0.6,0.6 0,0.4 0.3,0.6 0.6,0.6 0.3,0 0.6,0.1 0.9,0.2 0.5,0.3 0.8,0.8 0.8,1.4 0,0.6 -0.3,1.1 -0.8,1.4 -0.5,0.3 -1.1,0.3 -1.6,0 -0.5,-0.3 -0.8,-0.8 -0.8,-1.4 0,-0.3 0.1,-0.6 0.2,-0.9 0.1,-0.3 0.1,-0.7 -0.2,-0.9 -0.4,-0.2 -0.7,0 -0.8,0.2 -0.1,0.3 -0.3,0.5 -0.6,0.6 -0.5,0.3 -1.1,0.3 -1.6,0 -0.5,-0.3 -0.8,-0.8 -0.8,-1.4 0,-0.6 0.3,-1.1 0.8,-1.4 0.5,-0.3 1.1,-0.3 1.6,0 0.3,0.2 0.5,0.4 0.6,0.6 0.2,0.3 0.5,0.4 0.8,0.2 0.4,-0.2 0.3,-0.6 0.2,-0.9 -0.1,0.1 -0.2,-0.2 -0.2,-0.5 z"
   id="path60"
   inkscape:connector-curvature="0"
   style="fill:#fce21d" />
<path
   class="st0"
   d="m 951.7,132.7 c 0.9,-2.6 1.3,-5.3 1.3,-8.2 C 953,110.4 941.6,99 927.5,99 913.4,99 902,110.4 902,124.5 c 0,2.9 0.5,5.6 1.3,8.2 h 7.7 v -21.5 l 16.5,16.3 16.5,-16.3 v 21.5 z m -2.6,5.5 h -10.8 v -13.5 l -10.8,10.8 -10.8,-10.8 v 13.5 H 906 c 4.5,7.1 12.5,11.8 21.5,11.8 9,0 17,-4.7 21.6,-11.8 z"
   id="path62"
   inkscape:connector-curvature="0"
   style="fill:#fce21d" />
<path
   class="st0"
   d="m 747.3,41.2 c 0.4,-1.3 0.7,-2.7 0.7,-4.2 0,-7.2 -5.8,-13 -13,-13 -7.2,0 -13,5.8 -13,13 0,1.5 0.2,2.8 0.7,4.2 h 3.9 v -11 l 8.4,8.3 8.4,-8.3 v 10.9 h 3.9 z M 746,44 h -5.5 v -6.9 l -5.5,5.5 -5.5,-5.5 V 44 H 724 c 2.3,3.6 6.4,6 11,6 4.6,0 8.7,-2.4 11,-6 z"
   id="path64"
   inkscape:connector-curvature="0"
   style="fill:#fce21d" />
<path
   class="st0"
   d="m 442.8,99.8 c 0.9,-2.7 1.4,-5.6 1.4,-8.7 0,-15 -12.1,-27.1 -27.1,-27.1 -15,0 -27.1,12.1 -27.1,27.1 0,3 0.5,5.9 1.4,8.7 h 8.2 V 77 L 417.1,94.3 434.6,77 v 22.8 z m -2.8,5.8 H 428.6 V 91.3 l -11.5,11.5 -11.5,-11.5 v 14.4 h -11.4 c 4.8,7.6 13.3,12.6 22.9,12.6 9.6,0 18.1,-5.1 22.9,-12.7 z"
   id="path66"
   inkscape:connector-curvature="0"
   style="fill:#fce21d" />
<path
   class="st0"
   d="M 62.6,11.2 C 62.9,10.3 63,9.4 63,8.5 63,3.8 59.2,0 54.5,0 49.8,0 46,3.8 46,8.5 c 0,0.9 0.2,1.9 0.4,2.7 H 49 V 4.1 L 54.5,9.5 60,4.1 v 7.1 z m -0.9,1.9 H 58.1 V 8.5 L 54.5,12.1 50.9,8.5 V 13 h -3.6 c 1.5,2.4 4.2,3.9 7.2,3.9 3,0.1 5.7,-1.5 7.2,-3.8 z"
   id="path68"
   inkscape:connector-curvature="0"
   style="fill:#fce21d" />
<path
   class="st0"
   d="m 120.6,179.3 c 0,-6.1 -4.9,-11 -11,-11 -6.1,0 -11,4.9 -11,11 0,6.1 4.9,11 11,11 6,0 11,-4.9 11,-11 z m -9.7,-4.2 v 1.6 0 c 3,0.1 5.3,0.7 5.3,1.5 0,0.7 -2.3,1.3 -5.3,1.5 v 5.3 h -2.7 v -5.3 c -3.1,-0.1 -5.3,-0.7 -5.3,-1.5 0,-0.7 2.3,-1.3 5.3,-1.5 v -1.6 h -3.8 v -2.5 h 10.2 v 2.5 z m 0,4.1 v 0 0 c 2.7,-0.1 4.7,-0.6 4.7,-1.1 0,-0.5 -2,-1 -4.7,-1.1 v 1.8 c -0.1,0 -0.5,0 -1.3,0 -0.7,0 -1.2,0 -1.4,0 V 177 c -2.7,0.1 -4.7,0.6 -4.7,1.1 0,0.5 2,1 4.7,1.2 v 0 c 0.2,0 0.7,0 1.4,0 0.8,-0.1 1.2,-0.1 1.3,-0.1 z"
   id="path70"
   inkscape:connector-curvature="0"
   style="fill:#fce21d" />
<path
   class="st0"
   d="M 729,78.5 C 729,64.4 717.6,53 703.5,53 689.4,53 678,64.4 678,78.5 678,92.6 689.4,104 703.5,104 717.6,104 729,92.6 729,78.5 Z m -22.4,-9.8 v 3.8 0 c 7,0.3 12.3,1.7 12.3,3.4 0,1.7 -5.3,3.1 -12.3,3.4 v 12.1 h -6.3 V 79.3 C 693.3,79 688,77.6 688,75.9 c 0,-1.7 5.3,-3.1 12.3,-3.4 v -3.8 h -8.7 V 63 h 23.6 v 5.8 h -8.6 z m 0,9.6 v 0 0 c 6.2,-0.3 10.9,-1.4 10.9,-2.7 0,-1.3 -4.6,-2.4 -10.9,-2.7 v 4.2 c -0.2,0 -1.2,0.1 -3.1,0.1 -1.6,0 -2.8,-0.1 -3.2,-0.1 V 73 c -6.2,0.3 -10.9,1.4 -10.9,2.7 0,1.3 4.6,2.4 10.9,2.7 v 0 c 0.4,0 1.5,0.1 3.2,0.1 2.1,-0.2 3,-0.2 3.1,-0.2 z"
   id="path72"
   inkscape:connector-curvature="0"
   style="fill:#fce21d" />
<path
   class="st0"
   d="m 408.5,22.8 c 0,6.5 -5.3,11.8 -11.8,11.8 -6.5,0 -11.8,-5.3 -11.8,-11.8 0,-6.5 5.3,-11.8 11.8,-11.8 6.6,0 11.8,5.3 11.8,11.8 z m -11.6,-6.3 c -1.9,0 -3.3,0.1 -4.3,0.3 h -0.1 v 13.8 h 3.1 v -5 c 0.3,0.1 0.7,0.1 1.1,0.1 1.9,0 3.4,-0.4 4.5,-1.5 0.9,-0.8 1.3,-2 1.3,-3.3 0,-1.4 -0.6,-2.5 -1.5,-3.2 -0.7,-0.8 -2.1,-1.2 -4.1,-1.2 z m -0.1,6.7 c -0.4,0 -0.8,-0.1 -1,-0.1 v -4.2 c 0.2,-0.1 0.7,-0.1 1.3,-0.1 1.6,0 2.5,0.8 2.5,2.1 0,1.4 -1.1,2.3 -2.8,2.3 z"
   id="path74"
   inkscape:connector-curvature="0"
   style="fill:#fce21d" />
<path
   class="st0"
   d="m 664.2,153 c 0,6.5 -5.3,11.8 -11.8,11.8 -6.5,0 -11.8,-5.3 -11.8,-11.8 0,-6.5 5.3,-11.8 11.8,-11.8 6.5,0.1 11.8,5.3 11.8,11.8 z m -11.6,-6.3 c -1.9,0 -3.3,0.1 -4.3,0.3 h -0.1 v 13.8 h 3.1 v -5 c 0.3,0.1 0.7,0.1 1.1,0.1 1.9,0 3.4,-0.4 4.5,-1.5 0.9,-0.8 1.3,-2 1.3,-3.3 0,-1.4 -0.6,-2.5 -1.5,-3.2 -0.8,-0.8 -2.2,-1.2 -4.1,-1.2 z m -0.1,6.8 c -0.4,0 -0.8,-0.1 -1,-0.1 v -4.2 c 0.2,-0.1 0.7,-0.1 1.3,-0.1 1.6,0 2.5,0.8 2.5,2.1 -0.1,1.4 -1.1,2.3 -2.8,2.3 z"
   id="path76"
   inkscape:connector-curvature="0"
   style="fill:#fce21d" />
<path
   class="st0"
   d="m 966.5,161.8 c 0,6.5 -5.3,11.8 -11.8,11.8 -6.5,0 -11.8,-5.3 -11.8,-11.8 0,-6.5 5.3,-11.8 11.8,-11.8 6.6,0 11.8,5.3 11.8,11.8 z m -11.6,-6.3 c -1.9,0 -3.3,0.1 -4.3,0.3 h -0.1 v 13.8 h 3.1 v -5 c 0.3,0.1 0.7,0.1 1.1,0.1 1.9,0 3.5,-0.4 4.5,-1.5 0.9,-0.8 1.3,-2 1.3,-3.3 0,-1.4 -0.6,-2.5 -1.5,-3.2 -0.7,-0.8 -2.1,-1.2 -4.1,-1.2 z m -0.1,6.7 c -0.4,0 -0.8,-0.1 -1,-0.1 v -4.2 c 0.2,-0.1 0.7,-0.1 1.3,-0.1 1.6,0 2.5,0.8 2.5,2.1 0,1.4 -1.1,2.3 -2.8,2.3 z"
   id="path78"
   inkscape:connector-curvature="0"
   style="fill:#fce21d" />
<path
   class="st0"
   d="m 45.4,37.2 c 0,8.9 -7.2,16.2 -16.2,16.2 -9,0 -16.2,-7.3 -16.2,-16.2 0,-9 7.2,-16.2 16.2,-16.2 9,0 16.2,7.2 16.2,16.2 z m -16,-8.7 c -2.6,0 -4.5,0.2 -5.9,0.4 h -0.1 v 19 h 4.3 V 41 c 0.5,0.1 0.9,0.1 1.5,0.1 2.6,0 4.7,-0.6 6.3,-2 1.2,-1.1 1.8,-2.7 1.8,-4.6 0,-1.9 -0.8,-3.5 -2,-4.4 -1.3,-1 -3.2,-1.6 -5.9,-1.6 z m -0.1,9.3 c -0.6,0 -1.1,-0.1 -1.4,-0.2 v -5.7 c 0.3,-0.1 0.9,-0.2 1.8,-0.2 2.2,0 3.4,1.1 3.4,2.9 -0.1,2 -1.5,3.2 -3.8,3.2 z"
   id="path80"
   inkscape:connector-curvature="0"
   style="fill:#fce21d" />
<path
   class="st0"
   d="m 387.2,71.1 c 0,4.5 -3.6,8.1 -8.1,8.1 -4.5,0 -8.1,-3.6 -8.1,-8.1 0,-4.5 3.6,-8.1 8.1,-8.1 4.5,0 8.1,3.6 8.1,8.1 z m -8,-4.3 c -1.3,0 -2.3,0.1 -2.9,0.2 v 0 9.5 h 2.1 V 73 c 0.2,0 0.5,0 0.8,0 1.3,0 2.4,-0.3 3.1,-1 0.6,-0.6 0.9,-1.4 0.9,-2.3 0,-0.9 -0.4,-1.7 -1,-2.2 -0.7,-0.5 -1.6,-0.7 -3,-0.7 z m -0.1,4.6 c -0.3,0 -0.5,0 -0.7,-0.1 v -2.9 c 0.2,0 0.5,-0.1 0.9,-0.1 1.1,0 1.7,0.5 1.7,1.4 0,1.1 -0.7,1.7 -1.9,1.7 z"
   id="path82"
   inkscape:connector-curvature="0"
   style="fill:#fce21d" />
<path
   class="st0"
   d="m 487.6,118.1 c 5.3,0 9.6,-4.3 9.6,-9.6 0,-5.3 -4.3,-9.6 -9.6,-9.6 -5.3,0 -9.6,4.3 -9.6,9.6 0,5.4 4.3,9.6 9.6,9.6 z m 4.1,-6.8 h -4.8 c 0.4,-0.4 0.8,-0.8 1.2,-1.3 1,-1.1 1.9,-2.2 2.8,-3.3 0.1,-0.1 0.2,-0.2 0.3,-0.3 0.3,-0.3 0.5,-0.5 0.6,-0.8 0.1,-0.5 0.1,-1.1 0.1,-1.6 0,-0.2 0,-0.5 0,-0.7 h -3 v -2 h -2.4 v 2 h -2.7 v 2.4 h 4.6 c -0.2,0.2 -0.4,0.4 -0.5,0.6 -0.2,0.2 -0.4,0.5 -0.6,0.7 -1,1.1 -1.9,2.2 -2.8,3.3 -0.1,0.1 -0.2,0.2 -0.3,0.3 -0.2,0.2 -0.5,0.5 -0.5,0.8 -0.1,0.5 -0.1,1.1 -0.1,1.6 0,0.2 0,0.5 0,0.7 h 3 v 2 h 2.5 c 0,-0.3 0,-0.7 -0.1,-1 0,-0.3 0,-0.7 -0.1,-1 h 3 v -2.4 z"
   id="path84"
   inkscape:connector-curvature="0"
   style="fill:#fce21d" />
<path
   class="st0"
   d="m 889.6,42.1 c 5.3,0 9.6,-4.3 9.6,-9.6 0,-5.3 -4.3,-9.6 -9.6,-9.6 -5.3,0 -9.6,4.3 -9.6,9.6 0,5.4 4.3,9.6 9.6,9.6 z m 4.1,-6.8 h -4.8 c 0.4,-0.4 0.8,-0.8 1.2,-1.3 1,-1.1 1.9,-2.2 2.8,-3.3 0.1,-0.1 0.2,-0.2 0.3,-0.3 0.3,-0.3 0.5,-0.5 0.6,-0.8 0.1,-0.5 0.1,-1.1 0.1,-1.6 0,-0.2 0,-0.5 0,-0.7 h -3 v -2 h -2.4 v 2 h -2.7 v 2.4 h 4.6 c -0.2,0.2 -0.4,0.4 -0.5,0.6 -0.2,0.2 -0.4,0.5 -0.6,0.7 -1,1.1 -1.9,2.2 -2.8,3.3 -0.1,0.1 -0.2,0.2 -0.3,0.3 -0.2,0.2 -0.5,0.5 -0.5,0.8 -0.1,0.5 -0.1,1.1 -0.1,1.6 0,0.2 0,0.5 0,0.7 h 3 v 2 h 2.5 c 0,-0.3 0,-0.7 -0.1,-1 0,-0.3 0,-0.7 -0.1,-1 h 3 v -2.4 z"
   id="path86"
   inkscape:connector-curvature="0"
   style="fill:#fce21d" />
<path
   class="st0"
   d="m 757.6,82.1 c 5.3,0 9.6,-4.3 9.6,-9.6 0,-5.3 -4.3,-9.6 -9.6,-9.6 -5.3,0 -9.6,4.3 -9.6,9.6 0,5.4 4.3,9.6 9.6,9.6 z m 4.1,-6.8 h -4.8 c 0.4,-0.4 0.8,-0.8 1.2,-1.3 1,-1.1 1.9,-2.2 2.8,-3.3 0.1,-0.1 0.2,-0.2 0.3,-0.3 0.2,-0.3 0.5,-0.5 0.6,-0.8 0.1,-0.5 0.1,-1.1 0.1,-1.6 0,-0.2 0,-0.5 0,-0.7 h -3 v -2 h -2.4 v 2 h -2.7 v 2.4 h 4.6 c -0.2,0.2 -0.4,0.4 -0.5,0.6 -0.2,0.2 -0.4,0.5 -0.6,0.7 -1,1.1 -1.9,2.2 -2.8,3.3 -0.1,0.1 -0.2,0.2 -0.3,0.3 -0.2,0.2 -0.5,0.5 -0.5,0.8 -0.1,0.5 -0.1,1.1 -0.1,1.6 0,0.2 0,0.5 0,0.7 h 3 v 2 h 2.5 c 0,-0.3 0,-0.7 -0.1,-1 0,-0.3 0,-0.7 -0.1,-1 h 3 v -2.4 z"
   id="path88"
   inkscape:connector-curvature="0"
   style="fill:#fce21d" />
<path
   class="st0"
   d="m 273.5,83.5 0.9,0.8 -11.2,6.7 -5.4,-3.3 0.5,-1 4.9,2.9 z m -2.2,-1.4 1.2,0.6 -9.2,5.5 -4.3,-2.5 0.7,-0.9 3.5,2.1 z m 3.9,3 0.7,0.9 -12.6,7.5 -6.1,-3.6 0.3,-1.2 5.8,3.5 z"
   id="path90"
   inkscape:connector-curvature="0"
   style="fill:#fce21d" />
<path
   class="st0"
   d="m 277,88.6 c 0.4,1.1 0.6,2.2 0.6,3.4 0,1.2 -0.2,2.4 -0.6,3.5 l -0.3,0.7 c -0.5,1.3 -1.3,2.4 -2.2,3.4 -1,1 -2.1,1.7 -3.3,2.3 -1.3,0.6 -2.6,0.9 -4,0.9 -1.4,0 -2.7,-0.3 -4,-0.9 -1.3,-0.6 -2.3,-1.3 -3.3,-2.3 -1,-1 -1.7,-2.1 -2.2,-3.4 -0.6,-1.4 -0.9,-2.7 -0.9,-4.2 v -0.7 l 6.3,3.8 13.2,-7.9 z"
   id="path92"
   inkscape:connector-curvature="0"
   style="fill:#fce21d" />
<path
   class="st0"
   d="m 522.7,37.4 1.6,1.5 -20.1,12 -9.7,-5.8 0.9,-1.9 8.8,5.3 z m -4,-2.4 2.1,1.1 -16.6,9.9 -7.7,-4.5 1.3,-1.7 6.3,3.8 z m 6.9,5.5 1.2,1.7 -22.6,13.5 -10.9,-6.5 0.5,-2.1 10.4,6.2 z"
   id="path94"
   inkscape:connector-curvature="0"
   style="fill:#fce21d" />
<path
   class="st0"
   d="m 529,46.6 c 0.6,2 1,4 1,6.1 0,2.2 -0.4,4.2 -1,6.2 l -0.5,1.3 c -0.9,2.3 -2.3,4.3 -3.9,6.1 -1.7,1.8 -3.7,3.1 -5.9,4 -2.4,1 -4.7,1.6 -7.3,1.6 -2.6,0 -4.9,-0.6 -7.2,-1.6 -2.3,-1 -4.2,-2.4 -5.9,-4.1 -1.7,-1.8 -3,-3.9 -3.9,-6.1 -1.1,-2.4 -1.5,-4.9 -1.5,-7.5 v -1.3 l 11.2,6.8 23.7,-14.1 z"
   id="path96"
   inkscape:connector-curvature="0"
   style="fill:#fce21d" />
<path
   class="st0"
   d="m 898.1,64.3 1.5,1.4 -19,11.3 -9.2,-5.5 0.9,-1.8 8.3,5 z m -3.8,-2.3 2,1.1 -15.6,9.4 -7.3,-4.3 1.2,-1.6 6,3.6 z m 6.6,5.2 1.1,1.6 -21.4,12.7 -10.3,-6.1 0.4,-2 9.9,5.9 z"
   id="path98"
   inkscape:connector-curvature="0"
   style="fill:#fce21d" />
<path
   class="st0"
   d="m 904.1,73 c 0.6,1.9 0.9,3.7 0.9,5.8 0,2 -0.3,4 -0.9,5.9 l -0.4,1.2 c -0.9,2.1 -2.1,4.1 -3.7,5.8 -1.6,1.7 -3.5,2.9 -5.6,3.8 -2.2,1 -4.5,1.5 -6.9,1.5 -2.4,0 -4.6,-0.5 -6.8,-1.5 -2.1,-1 -3.9,-2.2 -5.6,-3.9 -1.6,-1.7 -2.8,-3.7 -3.7,-5.8 -1,-2.3 -1.5,-4.6 -1.5,-7.1 v -1.2 l 10.6,6.4 22.5,-13.4 z"
   id="path100"
   inkscape:connector-curvature="0"
   style="fill:#fce21d" />
<path
   class="st0"
   d="m 588.1,39.7 0.5,0.5 -6.1,3.6 -3,-1.8 0.3,-0.6 2.7,1.6 z m -1.3,-0.7 0.6,0.3 -5,3 -2.4,-1.4 0.4,-0.5 1.9,1.1 z m 2.2,1.7 0.4,0.5 -6.9,4.1 -3.3,-2 0.1,-0.6 3.2,1.9 z"
   id="path102"
   inkscape:connector-curvature="0"
   style="fill:#fce21d" />
<path
   class="st0"
   d="m 590,42.5 c 0.2,0.6 0.3,1.2 0.3,1.9 0,0.7 -0.1,1.3 -0.3,1.9 l -0.1,0.4 c -0.3,0.7 -0.7,1.3 -1.2,1.9 -0.5,0.5 -1.1,0.9 -1.8,1.2 -0.7,0.3 -1.4,0.5 -2.2,0.5 -0.8,0 -1.5,-0.2 -2.2,-0.5 -0.7,-0.3 -1.3,-0.7 -1.8,-1.3 -0.5,-0.5 -0.9,-1.2 -1.2,-1.9 -0.3,-0.7 -0.5,-1.5 -0.5,-2.3 V 44 l 3.4,2.1 7.2,-4.3 z"
   id="path104"
   inkscape:connector-curvature="0"
   style="fill:#fce21d" />
<path
   class="st0"
   d="m 21.7,212.2 0.5,0.5 -6.1,3.6 -3,-1.8 0.3,-0.6 2.7,1.6 z m -1.2,-0.8 0.6,0.3 -5,3 -2.4,-1.4 0.4,-0.5 1.9,1.1 z m 2.1,1.7 0.4,0.5 -6.9,4.1 -3.3,-2 0.1,-0.6 3.2,1.9 z"
   id="path106"
   inkscape:connector-curvature="0"
   style="fill:#fce21d" />
<path
   class="st0"
   d="m 23.6,215 c 0.2,0.6 0.3,1.2 0.3,1.9 0,0.7 -0.1,1.3 -0.3,1.9 l -0.1,0.4 c -0.3,0.7 -0.7,1.3 -1.2,1.9 -0.5,0.5 -1.1,0.9 -1.8,1.2 -0.7,0.3 -1.4,0.5 -2.2,0.5 -0.8,0 -1.5,-0.2 -2.2,-0.5 -0.7,-0.3 -1.3,-0.7 -1.8,-1.3 -0.5,-0.5 -0.9,-1.2 -1.2,-1.9 -0.3,-0.7 -0.5,-1.5 -0.5,-2.3 v -0.4 l 3.4,2.1 7.2,-4.3 z"
   id="path108"
   inkscape:connector-curvature="0"
   style="fill:#fce21d" />
<path
   class="st0"
   d="m 233.7,67 0.5,0.5 -6.1,3.6 -3,-1.8 0.3,-0.6 2.7,1.6 z m -1.3,-0.8 0.6,0.3 -5,3 -2.4,-1.4 0.4,-0.5 1.9,1.1 z m 2.2,1.7 0.4,0.5 -6.9,4.1 -3.3,-2 0.1,-0.6 3.2,1.9 z"
   id="path110"
   inkscape:connector-curvature="0"
   style="fill:#fce21d" />
<path
   class="st0"
   d="m 235.6,69.7 c 0.2,0.6 0.3,1.2 0.3,1.9 0,0.7 -0.1,1.3 -0.3,1.9 l -0.1,0.4 c -0.3,0.7 -0.7,1.3 -1.2,1.9 -0.5,0.5 -1.1,0.9 -1.8,1.2 -0.7,0.3 -1.4,0.5 -2.2,0.5 -0.8,0 -1.5,-0.2 -2.2,-0.5 -0.7,-0.3 -1.3,-0.7 -1.8,-1.3 -0.5,-0.5 -0.9,-1.2 -1.2,-1.9 -0.3,-0.7 -0.5,-1.5 -0.5,-2.3 v -0.4 l 3.4,2.1 7.2,-4.3 z"
   id="path112"
   inkscape:connector-curvature="0"
   style="fill:#fce21d" />
<g
   id="g130">
	<path
   class="st0"
   d="m 10,117 h 185 c 5.5,0 10,4.5 10,10 v 68 h 16.8 C 232.1,177.4 238,156.9 238,135 238,69.3 184.7,16 119,16 57.1,16 6.2,63.3 0.5,123.8 1.9,119.9 5.6,117 10,117 Z"
   id="path114"
   inkscape:connector-curvature="0"
   style="fill:#fce21d" />
	<path
   class="st0"
   d="M 0,135 V 244 H 71.2 C 29.3,225.6 0,183.7 0,135 Z"
   id="path116"
   inkscape:connector-curvature="0"
   style="fill:#fce21d" />
	<path
   class="st0"
   d="m 0,127 v 8 c 0,-3.8 0.2,-7.5 0.5,-11.2 -0.3,1 -0.5,2.1 -0.5,3.2 z"
   id="path118"
   inkscape:connector-curvature="0"
   style="fill:#fce21d" />
	<path
   class="st0"
   d="M 71.2,244 H 164 v -39 c 0,-5.5 4.5,-10 10,-10 h 31 v -68 c 0,-5.5 -4.5,-10 -10,-10 H 10 c -4.4,0 -8.1,2.9 -9.5,6.8 -0.3,3.7 -0.5,7.4 -0.5,11.2 0,48.7 29.3,90.6 71.2,109 z"
   id="path120"
   inkscape:connector-curvature="0"
   style="fill:#fce21d" />
	
	<path
   class="st0"
   d="m 205,217.2 c 6.4,-6.7 12.1,-14.2 16.8,-22.2 H 205 Z"
   id="path124"
   inkscape:connector-curvature="0"
   style="fill:#fce21d" />
	<path
   class="st0"
   d="m 166.8,244 h 27.9 10.3 v -26.8 c -10.8,11.3 -23.7,20.4 -38.2,26.8 z"
   id="path126"
   inkscape:connector-curvature="0"
   style="fill:#fce21d" />
	<path
   class="st0"
   d="m 174,195 c -5.5,0 -10,4.5 -10,10 v 39 h 2.8 c 14.5,-6.4 27.4,-15.5 38.2,-26.8 V 195 Z"
   id="path128"
   inkscape:connector-curvature="0"
   style="fill:#fce21d" />
<rect
   style="fill:#fce21d;fill-opacity:1;stroke-width:2.02821016"
   id="rect139"
   width="967.17786"
   height="162.84575"
   x="0"
   y="200.81438" /></g>
</svg>