<?xml version="1.0" encoding="UTF-8" standalone="no"?>
<!-- Created with Inkscape (http://www.inkscape.org/) -->

<svg
   width="49.14212mm"
   height="12.435416mm"
   viewBox="0 0 49.14212 12.435416"
   version="1.1"
   id="svg5"
   inkscape:version="1.1.1 (c3084ef, 2021-09-22)"
   sodipodi:docname="logo.svg"
   xmlns:inkscape="http://www.inkscape.org/namespaces/inkscape"
   xmlns:sodipodi="http://sodipodi.sourceforge.net/DTD/sodipodi-0.dtd"
   xmlns="http://www.w3.org/2000/svg"
   xmlns:svg="http://www.w3.org/2000/svg">
  <sodipodi:namedview
     id="namedview7"
     pagecolor="#ffffff"
     bordercolor="#666666"
     borderopacity="1.0"
     inkscape:pageshadow="2"
     inkscape:pageopacity="0.0"
     inkscape:pagecheckerboard="0"
     inkscape:document-units="mm"
     showgrid="false"
     fit-margin-top="0"
     fit-margin-left="0"
     fit-margin-right="0"
     fit-margin-bottom="0"
     inkscape:zoom="1.2131358"
     inkscape:cx="89.025482"
     inkscape:cy="18.13482"
     inkscape:window-width="1440"
     inkscape:window-height="900"
     inkscape:window-x="0"
     inkscape:window-y="0"
     inkscape:window-maximized="0"
     inkscape:current-layer="g48" />
  <defs
     id="defs2">
    <rect
       x="381.07581"
       y="386.19666"
       width="152.34499"
       height="53.342079"
       id="rect1397" />
    <rect
       x="381.07581"
       y="386.19666"
       width="152.34499"
       height="53.342079"
       id="rect1397-0" />
    <rect
       x="381.07581"
       y="386.19666"
       width="152.34499"
       height="53.342079"
       id="rect1397-1" />
  </defs>
  <g
     inkscape:label="Слой 1"
     inkscape:groupmode="layer"
     id="layer1"
     transform="translate(-88.38553,-81.101692)">
    <g
       inkscape:label="Layer 1"
       id="layer1-9"
       transform="translate(57.521105,-98.0001)">
      <g
         transform="translate(-37.797622,69.547619)"
         id="layer1-35"
         inkscape:label="Layer 1">
        <g
           inkscape:label="Слой 1"
           id="layer1-3"
           transform="translate(-23.518332,6.0811525)">
          <g
             style="fill:none"
             id="g48"
             transform="matrix(0.26458333,0,0,0.26458333,92.180379,103.47302)">
            <path
               style="clip-rule:evenodd;fill:#f7f6f6;fill-rule:evenodd"
               inkscape:connector-curvature="0"
               d="M 180.202,0 H 59.8744 L 46.9653,47 H 180.202 c 3.042,0 5.532,-2.5251 5.532,-5.6119 V 5.61193 C 185.734,2.5251 183.244,0 180.202,0 Z"
               id="path28" />
            <path
               style="clip-rule:evenodd;fill:#f3da1f;fill-rule:evenodd;stroke-width:1.16687"
               inkscape:connector-curvature="0"
               d="M 7.5326614,0 H 122.3818 L 105.74731,47 H 7.5326614 C 3.3898045,47 0,44.4749 0,41.3881 V 5.61193 C 0,2.5251 3.3893688,0 7.5326614,0 Z"
               id="path30" />
            <g
               transform="translate(116)"
               aria-label="COIN"
               id="text52"
               style="font-size:22.6667px;line-height:1.25;font-family:sans-serif;word-spacing:0px" />
            <g
               aria-label="NETEX"
               transform="matrix(0.57446704,0,0,0.57446704,-204.717,-210.59078)"
               id="text1395"
               style="font-size:40px;line-height:1.25;white-space:pre;shape-inside:url(#rect1397);fill:#000000">
              <path
                 d="m 411.23242,422.69048 h -7.22656 l -12.34375,-19.96094 v 19.96094 h -6.875 v -29.08203 h 8.96484 l 10.60547,16.66015 v -16.66015 h 6.875 z"
                 style="font-weight:bold;-inkscape-font-specification:'sans-serif Bold'"
                 id="path11214" />
              <path
                 d="m 439.72852,422.69048 h -21.03516 v -29.08203 h 21.03516 v 5.625 H 426.1543 v 5.01953 h 12.59765 v 5.625 H 426.1543 v 7.1875 h 13.57422 z"
                 style="font-weight:bold;-inkscape-font-specification:'sans-serif Bold'"
                 id="path11216" />
              <path
                 d="m 468.79102,399.23345 h -9.08204 v 23.45703 h -7.5 v -23.45703 h -9.08203 v -5.625 h 25.66407 z"
                 style="font-weight:bold;-inkscape-font-specification:'sans-serif Bold'"
                 id="path11218" />
              <path
                 d="m 494.33789,422.69048 h -21.03516 v -29.08203 h 21.03516 v 5.625 h -13.57422 v 5.01953 h 12.59766 v 5.625 h -12.59766 v 7.1875 h 13.57422 z"
                 style="font-weight:bold;-inkscape-font-specification:'sans-serif Bold'"
                 id="path11220" />
              <path
                 d="m 527.01367,422.69048 h -8.67187 l -6.26953,-9.57031 -6.38672,9.57031 h -8.28125 l 10.3125,-14.64844 -10.09766,-14.43359 h 8.65234 l 6.05469,9.0625 6.23047,-9.0625 h 8.30078 l -10.15625,14.14062 z"
                 style="font-weight:bold;-inkscape-font-specification:'sans-serif Bold'"
                 id="path11222" />
            </g>
            <g
               aria-label="24"
               transform="matrix(0.57446704,0,0,0.57446704,-86.49886,-210.43296)"
               id="text1395-9"
               style="font-size:40px;line-height:1.25;white-space:pre;shape-inside:url(#rect1397-1);fill:#000000">
              <path
                 d="m 407.52148,422.69048 h -22.83203 v -4.80469 q 2.61719,-1.89453 5.23438,-4.02344 2.63672,-2.1289 4.21875,-3.67187 2.36328,-2.28516 3.35937,-3.98438 0.9961,-1.69922 0.9961,-3.35937 0,-1.99219 -1.28907,-3.06641 -1.26953,-1.09375 -3.67187,-1.09375 -1.79688,0 -3.78906,0.74219 -1.97266,0.74219 -3.67188,1.89453 h -0.625 v -6.46484 q 1.38672,-0.60547 4.08203,-1.21094 2.71485,-0.60547 5.42969,-0.60547 5.46875,0 8.33984,2.30469 2.8711,2.28515 2.8711,6.48437 0,2.75391 -1.38672,5.23438 -1.36719,2.48047 -4.19922,5.11719 -1.77734,1.64062 -3.57422,3.02734 -1.79687,1.36719 -2.55859,1.91406 h 13.0664 z"
                 style="font-weight:bold;-inkscape-font-specification:'sans-serif Bold'"
                 id="path12763" />
              <path
                 d="m 436.36914,415.99126 h -3.96484 v 6.77734 h -7.16797 v -6.77734 H 411.1543 v -5.50781 l 13.61328,-16.875 h 7.63672 v 17.07031 h 3.96484 z m -11.13281,-5.3125 v -10.50781 l -8.45703,10.50781 z"
                 style="font-weight:bold;-inkscape-font-specification:'sans-serif Bold'"
                 id="path12765" />
            </g>
            <text
               xml:space="preserve"
               transform="matrix(0.57446704,0,0,0.57446704,-182.44749,-103.58943)"
               id="text1395-0"
               style="font-style:normal;font-weight:normal;font-size:40px;line-height:1.25;font-family:sans-serif;white-space:pre;shape-inside:url(#rect1397-0);fill:#000000;fill-opacity:1;stroke:none" />
          </g>
        </g>
      </g>
    </g>
  </g>
</svg>
