<svg width="42" height="42" viewBox="0 0 42 42" fill="none" xmlns="http://www.w3.org/2000/svg">
<rect width="42" height="42" rx="6" fill="#64A9DC"/>
<path d="M7.34738 21.3728C9.70035 20.1481 12.3269 19.1259 14.781 18.0985C19.003 16.4157 23.2418 14.762 27.5234 13.2225C28.3564 12.9602 29.8532 12.7037 30 13.8702C29.9196 15.5215 29.589 17.1631 29.3623 18.8047C28.7867 22.4147 28.1214 26.0123 27.4727 29.6105C27.2492 30.809 25.6604 31.4294 24.6437 30.6624C22.2005 29.103 19.7385 27.5587 17.3265 25.963C16.5364 25.2044 17.2691 24.1149 17.9747 23.5731C19.987 21.6992 22.1211 20.1071 24.0282 18.1363C24.5427 16.9624 23.0227 17.9517 22.5213 18.2548C19.7664 20.0487 17.079 21.9522 14.1745 23.5288C12.6909 24.3005 10.9617 23.641 9.47881 23.2104C8.1492 22.6902 6.20079 22.1661 7.34725 21.3729L7.34738 21.3728Z" fill="white"/>
</svg>
