<svg id="1f1e6155-84c6-4fd3-970d-cdf26e53daf7" data-name="Слой 1" xmlns="http://www.w3.org/2000/svg" viewBox="0 0 79 79"><title>wrongorder</title><circle cx="39.5" cy="39.5" r="39.5" style="fill:#48423b"/><path d="M49.1,28.7l-7.6-7.8a2.8,2.8,0,0,0-2.2-.9H28.1A3.1,3.1,0,0,0,25,23.2V48.8A3.1,3.1,0,0,0,28.1,52H40a11.1,11.1,0,0,1,2.3-6.4H32.8a1.6,1.6,0,1,1,0-3.2h9.4A1.6,1.6,0,0,1,43.7,44h0A11,11,0,0,1,50,41.5V30.9A3.1,3.1,0,0,0,49.1,28.7ZM42.2,39.2H32.8a1.6,1.6,0,0,1,0-3.2h9.4a1.6,1.6,0,0,1,0,3.2Zm-1.6-8a1.6,1.6,0,0,1-1.5-1.6V22.4l8.6,8.8Z" style="fill:#fce21d"/><path d="M50,44.5A7.5,7.5,0,1,0,57.5,52,7.6,7.6,0,0,0,50,44.5Zm3.2,9.3a1,1,0,0,1-1.4,1.4L50,53.4l-1.8,1.8a1,1,0,0,1-1.4-1.4L48.6,52l-1.8-1.8a1,1,0,0,1,1.4-1.4L50,50.6l1.8-1.8a1,1,0,0,1,1.4,1.4L51.4,52Z" style="fill:#f3911f"/></svg>