<?xml version="1.0" encoding="UTF-8"?>
<svg width="22px" height="35px" viewBox="0 0 22 35" version="1.1" xmlns="http://www.w3.org/2000/svg" xmlns:xlink="http://www.w3.org/1999/xlink">
    <!-- Generator: Sketch 41 (35326) - http://www.bohemiancoding.com/sketch -->
    <title>Shape</title>
    <desc>Created with Sketch.</desc>
    <defs></defs>
    <g id="Symbols" stroke="none" stroke-width="1" fill="none" fill-rule="evenodd">
        <g id="Alfa" fill="#EE3524">
            <path d="M11,0 C13.3239437,0 14.07277,1.67840376 14.6924883,3.35680751 C14.9507042,4.05399061 21.0187793,20.657277 21.1995305,21.1737089 C21.2511737,21.3028169 21.2253521,21.5352113 20.9929577,21.6126761 C20.786385,21.6901408 17.6361502,22.9295775 17.4553991,22.9812207 C17.2746479,23.0586854 17.0938967,22.9553991 17.0164319,22.7746479 C16.9647887,22.5938967 15.6478873,18.9788732 15.4929577,18.5657277 L6.50704225,18.5657277 C6.35211268,18.9788732 5.03521127,22.5938967 4.98356808,22.7746479 C4.93192488,22.9295775 4.72535211,23.0586854 4.54460094,22.9812207 C4.36384977,22.9037559 1.18779343,21.6901408 1.00704225,21.6126761 C0.82629108,21.5352113 0.748826291,21.3286385 0.800469484,21.1737089 C1.03286385,20.5539906 6.99765258,4.20892019 7.30751174,3.35680751 C7.92723005,1.70422535 8.67605634,0 11,0 Z M0.335680751,29.6948357 C0.154929577,29.6948357 0,29.8497653 0,30.056338 L0,33.9295775 C0,34.1103286 0.154929577,34.2652582 0.335680751,34.2652582 L21.6643192,34.2652582 C21.8450704,34.2652582 22,34.1103286 22,33.9295775 L22,30.056338 C22,29.8755869 21.8450704,29.6948357 21.6643192,29.6948357 L0.335680751,29.6948357 L0.335680751,29.6948357 Z M11,5.42253521 L7.95305164,14.5375587 L14.07277,14.5375587 L11.0258216,5.42253521 L11,5.42253521 Z" id="Shape"></path>
        </g>
    </g>
</svg>