<?xml version="1.0" encoding="UTF-8"?>
<svg width="38px" height="26px" viewBox="0 0 38 26" version="1.1" xmlns="http://www.w3.org/2000/svg" xmlns:xlink="http://www.w3.org/1999/xlink">
    <!-- Generator: Sketch 41 (35326) - http://www.bohemiancoding.com/sketch -->
    <title>layer1</title>
    <desc>Created with Sketch.</desc>
    <defs></defs>
    <g id="Page-1" stroke="none" stroke-width="1" fill="none" fill-rule="evenodd">
        <g id="Icons" transform="translate(-310.000000, -480.000000)">
            <g id="1495109531__" transform="translate(310.000000, 480.000000)">
                <g id="svg2">
                    <g id="layer1" transform="translate(0.000000, 0.331666)">
                        <path d="M5.11284722,0.50375 C3.46354167,0.50375 2.22796322,0.681122 1.38541667,1.51125 C0.542870111,2.341378 0.362847222,3.55875 0.362847222,5.18375 L0.362847222,20.783776 C0.362847222,22.408776 0.542870111,23.626096 1.38541667,24.456224 C2.22796322,25.286404 3.46354167,25.463776 5.11284722,25.463776 L32.8211806,25.463776 C34.4704861,25.463776 35.689571,25.286404 36.5321181,24.456224 C37.3746651,23.626096 37.5711806,22.408776 37.5711806,20.783776 L37.5711806,5.18375 C37.5711806,3.55875 37.3746651,2.341378 36.5321181,1.51125 C35.689571,0.681122 34.4704861,0.50375 32.8211806,0.50375 L5.11284722,0.50375 Z" id="path15225" fill="#09a30f"></path>
                        <path d="M30.0833333,4.4037396 C28.3561642,4.4037396 26.9447978,5.7942976 26.9447978,7.4960392 C26.9447978,9.197708 28.356161,10.588344 30.0833333,10.588344 C31.8105056,10.588344 33.2218684,9.197708 33.2218684,7.4960392 C33.2218684,5.7942976 31.8105019,4.4037396 30.0833333,4.4037396 Z" id="path15233" fill="#F05542"></path>
                        <path d="M25.8986192,4.4037396 C24.1714506,4.4037396 22.7600842,5.7942976 22.7600842,7.4960392 C22.7600842,9.197708 24.1714469,10.588344 25.8986192,10.588344 C27.6257915,10.588344 29.0371548,9.197708 29.0371548,7.4960392 C29.0371548,5.7942976 27.6257884,4.4037396 25.8986192,4.4037396 Z" id="path15230" fill="#FCD062"></path>
                        <polygon id="path15235" fill="#999999" points="4.32118056 18.443776 4.32118056 20.003776 5.11284722 20.003776 9.07118056 20.003776 9.86284722 20.003776 9.86284722 18.443776 9.07118056 18.443776 5.11284722 18.443776"></polygon>
                        <polygon id="path15237" fill="#999999" points="12.2378472 18.443776 12.2378472 20.003776 13.0295139 20.003776 16.9878472 20.003776 17.7795139 20.003776 17.7795139 18.443776 16.9878472 18.443776 13.0295139 18.443776"></polygon>
                        <polygon id="path15239" fill="#999999" points="20.1545139 18.443776 20.1545139 20.003776 20.9461806 20.003776 24.9045139 20.003776 25.6961806 20.003776 25.6961806 18.443776 24.9045139 18.443776 20.9461806 18.443776"></polygon>
                        <polygon id="path15241" fill="#999999" points="28.0711806 18.443776 28.0711806 20.003776 28.8628472 20.003776 32.8211806 20.003776 33.6128472 20.003776 33.6128472 18.443776 32.8211806 18.443776 28.8628472 18.443776"></polygon>
                    </g>
                </g>
            </g>
        </g>
    </g>
</svg>