<?xml version="1.0" encoding="UTF-8" standalone="no"?>
<!-- Created with Inkscape (http://www.inkscape.org/) -->

<svg
   xmlns:dc="http://purl.org/dc/elements/1.1/"
   xmlns:cc="http://creativecommons.org/ns#"
   xmlns:rdf="http://www.w3.org/1999/02/22-rdf-syntax-ns#"
   xmlns:svg="http://www.w3.org/2000/svg"
   xmlns="http://www.w3.org/2000/svg"
   xmlns:sodipodi="http://sodipodi.sourceforge.net/DTD/sodipodi-0.dtd"
   xmlns:inkscape="http://www.inkscape.org/namespaces/inkscape"
   width="529.1546mm"
   height="529.15228mm"
   viewBox="0 0 529.1546 529.15228"
   version="1.1"
   id="svg8"
   inkscape:version="0.92.5 (2060ec1f9f, 2020-04-08)"
   sodipodi:docname="drawing.svg">
  <defs
     id="defs2" />
  <sodipodi:namedview
     id="base"
     pagecolor="#ffffff"
     bordercolor="#666666"
     borderopacity="1.0"
     inkscape:pageopacity="0.0"
     inkscape:pageshadow="2"
     inkscape:zoom="0.0875"
     inkscape:cx="1131.7517"
     inkscape:cy="1194.3232"
     inkscape:document-units="mm"
     inkscape:current-layer="g24"
     showgrid="false"
     inkscape:window-width="1528"
     inkscape:window-height="836"
     inkscape:window-x="72"
     inkscape:window-y="27"
     inkscape:window-maximized="1"
     fit-margin-top="0"
     fit-margin-left="0"
     fit-margin-right="0"
     fit-margin-bottom="0" />
  <metadata
     id="metadata5">
    <rdf:RDF>
      <cc:Work
         rdf:about="">
        <dc:format>image/svg+xml</dc:format>
        <dc:type
           rdf:resource="http://purl.org/dc/dcmitype/StillImage" />
        <dc:title></dc:title>
      </cc:Work>
    </rdf:RDF>
  </metadata>
  <g
     inkscape:label="Layer 1"
     inkscape:groupmode="layer"
     id="layer1"
     transform="translate(185.2023,121.79043)">
    <g
       id="g24"
       transform="matrix(0.26458333,0,0,0.26458333,-185.20592,-121.79784)">
      <path
         id="path10"
         d="M 1970,1242 C 1836.52,1777.66 1293.82,2103.68 758,1970 222.18,1836.32 -103.69,1293.89 30,758.18 163.69,222.47 706.12,-103.7 1241.82,30 1777.52,163.7 2103.69,706.16 1970,1242 Z"
         inkscape:connector-curvature="0"
         style="fill:#ffcc00" />
      <path
         id="path12"
         d="M 1441,857.53 C 1460.88,724.46 1359.56,652.92 1221,605.2 l 45,-180.25 -109.76,-27.34 -43.84,175.51 c -28.82,-7.18 -58.44,-14 -87.88,-20.68 l 44,-176.67 L 958.87,348.43 914,528.61 692.68,473.79 663.48,591 c 0,0 81.42,18.66 79.7,19.82 44.44,11.1 52.5,40.5 51.14,63.82 l -123.14,493.8 c -5.44,13.5 -19.22,33.74 -50.28,26 1.1,1.6 -79.76,-20 -79.76,-20 l -54.48,125.79 221,55.8 -45.42,182.35 109.6,27.34 45,-180.39 c 30,8.12 59,15.62 87.42,22.68 l -44.82,179.55 109.74,27.34 45.42,-182 c 187.13,35.4 327.85,21.12 387,-148 47.72,-136.25 -2.34,-214.85 -100.8,-266.13 71.7,-16.6 125.7,-63.74 140.11,-161.17 m -250.71,351.52 c -34,136.25 -263.35,62.62 -337.77,44.12 l 60.26,-241.55 c 74.38,18.56 312.89,55.32 277.55,197.41 m 34,-353.5 c -30.94,124 -221.91,61 -283.89,45.54 L 994.91,682 c 62,15.48 261.51,44.3 229.25,173.59"
         inkscape:connector-curvature="0"
         style="fill:#ffffff" />
    </g>
  </g>
</svg>
