<svg id="ce184cdf-d3fd-47b1-8c3c-d71c80b15d11" data-name="Слой 1" xmlns="http://www.w3.org/2000/svg" viewBox="0 0 235 222.1"><title>pax</title><path d="M76.4,17.1l.2.3.2-.3Z" style="fill:none"/><path d="M60.4,194.7c18.4,1.8,36.8,2.8,55.1-1.1a107,107,0,0,0,47.3-23.4h0c5.9-7.1,12.8-13.5,17.1-21.8,16.5-31.5,17.3-62.6-2.9-92.8-6.1-9.2-15.3-15-24.1-21.4l-4.1-1.3c-21.2-2.8-41.6-.1-60.8,9.3C56.1,57.9,37.3,83.3,32.6,118.8c-2,15.5-.1,30.6,4.7,45.3.3,1,.3,2,.5,2.9h0c4.4,9,8.6,18.1,15.2,25.7a2.2,2.2,0,0,1,.6,2.3h1.1C56.4,193.5,58.4,194.5,60.4,194.7ZM62.9,76.8c16.4-24,46.6-34.9,71.7-25.9a50.2,50.2,0,0,1,29,26,81.8,81.8,0,0,1,8.4,35.7c0,26.8-15,48-39.8,56.3a61.1,61.1,0,0,1-68.3-21.1C48.1,126.8,47.7,99,62.9,76.8Z" style="fill:#075229"/><path d="M53,192.7C46.4,185.1,42.2,176,37.8,167h0a20.1,20.1,0,0,1-2.3-2.8,21.7,21.7,0,0,0,.7,2.4c4.2,10.5,8.9,20.6,17.4,28.4h0A2.2,2.2,0,0,0,53,192.7Z" style="fill:#b9cf47"/><path d="M153.3,32.7a9.7,9.7,0,0,0-4.7-1.2l-3.4-.6,3.6,2h0l4.1,1.3,3.6.7Z" style="fill:#ebe538"/><path d="M224.5,88h0c-2.1-.5-3-2-3.8-3.7l-1.4-.7c-4.8-3.9-8-9.3-12.2-13.7-12.8-13.5-27.2-24.7-44.6-31.6l-2.8-1.2a44.8,44.8,0,0,0-6.8-2.9c8.8,6.4,18,12.2,24.1,21.4,20.2,30.2,19.4,61.3,2.9,92.8-4.3,8.3-11.2,14.7-17.1,21.8h0c3.7-3.2,7.4-6.6,10.9-10.1l-4,4.5c-1.3,1.5-2.7,2.8-4,4.3a16.8,16.8,0,0,0,2.9-2.4c22.4-19.7,40.2-42.7,52.1-70.2.9-2.1,1.2-5,4.1-5.9h0Z" style="fill:#2e8160"/><path d="M173.7,160.1c-3.5,3.5-7.2,6.9-10.9,10.1a7.6,7.6,0,0,0,2.9-1.3c1.3-1.5,2.7-2.8,4-4.3Z" style="fill:#2e8160"/><path d="M162.5,38.3c17.4,6.9,31.8,18.1,44.6,31.6,4.2,4.4,7.4,9.8,12.2,13.7l1.4.7a22.6,22.6,0,0,0-1.1-2.2h0c-8.7-11.3-18.3-21.8-29.9-30.3S169,37.5,156.5,34.9l3.2,2.2Z" style="fill:#2e8160"/><path d="M156.5,34.9l-3.6-.7a44.8,44.8,0,0,1,6.8,2.9Z" style="fill:#2e8160"/><path d="M138.3,9A37,37,0,0,0,117.2.5c-5-.4-10.3-1.4-15,1.5C115.3-1.2,127.1,2.4,138.3,9Z" style="fill:#d2d077"/><path d="M136.3,8.7a6,6,0,0,0,2,.3c-11.2-6.6-23-10.2-36.1-7h0C114.2,1.3,125.8,1.9,136.3,8.7Z" style="fill:#d2d077"/><path d="M220.7,84.3c.8,1.7,1.7,3.2,3.8,3.7a23.4,23.4,0,0,0-2.4-3.1Z" style="fill:#d2d563"/><path d="M222.1,84.9l-2.5-2.8a22.6,22.6,0,0,1,1.1,2.2Z" style="fill:#d2d563"/><path d="M225.8,44.5h0a6.1,6.1,0,0,0-.7-1.4,9.4,9.4,0,0,0-1-2.3c-6.9-9.8-17.5-11.4-28.3-12.2h0l-1.9-.6c-15.1-2.7-30.2-5.1-44.2-12.3-3.9-2-7-5.4-11.4-6.7a6,6,0,0,1-2-.3C125.8,1.9,114.2,1.3,102.2,2h0C93.9,3.6,86.9,7.7,80.8,13.5c-.3,1.1-.6,2.2-1,3.4h0c21.8.8,43.1,4.3,63.3,13l2.1,1,3.4.6a9.7,9.7,0,0,1,4.7,1.2l3.2,2.2c12.5,2.6,23,9.5,33.2,16.9s21.2,19,29.9,30.3h0l2.5,2.8a23.4,23.4,0,0,1,2.4,3.1h0a52,52,0,0,0,4.2-15.9h0c.3-2,.8-3.9.9-5.8C229.7,58.8,230,51.2,225.8,44.5Z" style="fill:#eaea54"/><path d="M74.2,20.1c.8-.8,1.6-1.8,2.4-2.7l-.2-.3-11-.2h0a38.9,38.9,0,0,0-23.6,6.9A21.5,21.5,0,0,0,31.2,35h0c-3.9,6-6,12.7-7.3,19.6-4,19.9-7.2,40-15.8,58.7C5,120,2.3,126.9,1.7,134.4v10.9c-1.5-2.4-.6-4.4-1.2-6.2h0a52.3,52.3,0,0,0,.2,15.8c2.7,16.3,13,26,27.4,32.5,8.2,3.7,17.1,4.8,25.5,7.6-8.5-7.8-13.2-17.9-17.4-28.4a21.7,21.7,0,0,1-.7-2.4c-5.2-7-7.3-15.4-8.7-23.9-3.8-23.5,1-45.9,10.5-67.4C46.2,53,58.9,35.7,74.2,20.1Z" style="fill:#aeb973"/><path d="M75.7,16.5c-3.4.2-6.9-.4-10.3.4l11,.2Z" style="fill:#afb97c"/><path d="M79.4,16.9h.4c.4-1.2.7-2.3,1-3.4C80.2,14.6,78.8,15.4,79.4,16.9Z" style="fill:#afb97c"/><path d="M1.2,142.9c.6-2.3-.5-5.5.5-8.5-1.6,1.3-.6,3.2-1.2,4.7h0C1.9,140.5,1,142.1,1.2,142.9Z" style="fill:#becc78"/><path d="M1.7,134.4c-1,3,.1,6.2-.5,8.5-.2-.8.7-2.4-.7-3.8.6,1.8-.3,3.8,1.2,6.2Z" style="fill:#becc78"/><path d="M233.8,127.7v-.2h0a12.4,12.4,0,0,0,.1-10.5c.8-3.5-.9-6.7-1.5-10h0c-.8-3-1.5-6-3.6-8.4h0a17.1,17.1,0,0,0-4-8.2h0c-2.9.9-3.2,3.8-4.1,5.9-11.9,27.5-29.7,50.5-52.1,70.2a16.8,16.8,0,0,1-2.9,2.4,7.6,7.6,0,0,1-2.9,1.3h0a107,107,0,0,1-47.3,23.4c-18.3,3.9-36.7,2.9-55.1,1.1-2-.2-4-1.2-5.7.4,7.2,8.1,15.2,15.1,25.5,18.9a35.8,35.8,0,0,0,13.6,5.5h0l6.9,1.3c7.3,2.2,14.3,1.3,21.1-1.8h0c3.2.8,5.1-1.8,7.5-3.1h0c1-1.8,3-1.7,4.5-2.5s7-2.5,7.9-6.8h0c4.6-2.3,8.2-6,11.9-9.5,15.8-15.1,33-28,53.3-36.4a37.3,37.3,0,0,0,13.8-9.4c8.2-5.8,12.7-13.6,13.1-23.7Z" style="fill:#5395a8"/><path d="M35.5,164.2a20.1,20.1,0,0,0,2.3,2.8,83.4,83.4,0,0,1-3.8-8Z" style="fill:#79b453"/><path d="M148.8,32.9l-8.1-2.5,4.5.5-2.1-1c-20.2-8.7-41.5-12.2-63.3-13h0l-.3.3a1.9,1.9,0,0,1-2.7-.1l-.2.3c-.8.9-1.6,1.9-2.4,2.7C58.9,35.7,46.2,53,37.3,72.9,27.8,94.4,23,116.8,26.8,140.3c1.4,8.5,3.5,16.9,8.7,23.9L34,159a83.4,83.4,0,0,0,3.8,8h0c-.2-.9-.2-1.9-.5-2.9-4.8-14.7-6.7-29.8-4.7-45.3C37.3,83.3,56.1,57.9,88,42.2c19.2-9.4,39.6-12.1,60.8-9.3Z" style="fill:#91d366"/><path d="M145.2,30.9l-4.5-.5,8.1,2.5h0Z" style="fill:#79b453"/><path d="M79.5,17.2c0-.1-.1-.2-.1-.3l-2.6.2A1.9,1.9,0,0,0,79.5,17.2Z" style="fill:#79b453"/><path d="M79.8,16.9h-.4c0,.1.1.2.1.3Z" style="fill:#79b453"/></svg>