<?xml version="1.0" encoding="UTF-8"?>
<svg width="36px" height="36px" viewBox="0 0 36 36" version="1.1" xmlns="http://www.w3.org/2000/svg" xmlns:xlink="http://www.w3.org/1999/xlink">
    <!-- Generator: Sketch 41 (35326) - http://www.bohemiancoding.com/sketch -->
    <title>Layer_1</title>
    <desc>Created with Sketch.</desc>
    <defs></defs>
    <g id="Page-1" stroke="none" stroke-width="1" fill="none" fill-rule="evenodd">
        <g id="Icons" transform="translate(-311.000000, -182.000000)" fill="#999999">
            <g id="RS" transform="translate(311.000000, 182.000000)">
                <g id="Слой_2">
                    <g>
                        <g id="Layer_1">
                            <path d="M18.0415385,35.9778462 C26.7478336,35.9769244 34.1969867,29.7257193 35.7088844,21.1517038 C37.2207821,12.5776883 32.3590345,4.15564236 24.1781538,1.17692308 L24.2501538,1.58123077 C32.9790844,4.87836959 37.5756158,14.453589 34.6889594,23.3267264 C31.802303,32.1998639 22.4517593,37.2377464 13.4537064,34.7678484 C4.45565341,32.2979503 -1.01262724,23.1924117 1.03514253,14.0890062 C3.0829123,4.98560064 11.9236493,-0.901189396 21.1126154,0.72 L21.7218462,0.479076923 C20.5109152,0.230068133 19.2778066,0.104808793 18.0415385,0.105230769 C8.13558925,0.105230769 0.105230769,8.13558925 0.105230769,18.0415385 C0.105230769,27.9474877 8.13558925,35.9778462 18.0415385,35.9778462 L18.0415385,35.9778462 Z" id="Shape"></path>
                            <path d="M24.2501538,1.58123077 C32.9790844,4.87836959 37.5756158,14.453589 34.6889594,23.3267264 C31.802303,32.1998639 22.4517593,37.2377464 13.4537064,34.7678484 C4.45565341,32.2979503 -1.01262724,23.1924117 1.03514253,14.0890062 C3.0829123,4.98560064 11.9236493,-0.901189396 21.1126154,0.72 L21.7218462,0.479076923 C20.5109152,0.230068133 19.2778066,0.104808793 18.0415385,0.105230769 C8.75834336,0.123290505 1.02841315,7.23308245 0.235896655,16.4824043 C-0.556619837,25.7317262 5.8511286,34.0528873 14.9959359,35.6499272 C24.1407432,37.2469671 32.9895828,31.5902011 35.3789488,22.6197514 C37.7683147,13.6493017 32.9057345,4.34036648 24.1781538,1.17692308 L24.2501538,1.58123077 L24.2501538,1.58123077 Z" id="Shape"></path>
                            <path d="M9.48738462,21.384 C9.77207691,21.0690599 10.1166193,20.8139479 10.5009231,20.6335385 C11.1821538,20.2901538 13.1206154,20.0658462 14.1950769,20.0796923 C14.7101578,20.0835462 15.2013165,20.2976154 15.5547692,20.6723077 C15.8510769,20.9686154 15.3415385,21.0129231 15.0867692,20.7996923 C14.8517426,20.6112452 14.5570895,20.5130275 14.256,20.5227692 C13.9790884,20.5255288 13.7088703,20.608229 13.4778462,20.7609231 C13.3128123,20.9634069 13.0910053,21.1119211 12.8409231,21.1873846 C12.3286154,21.3313846 11.7332308,20.8689231 11.7332308,20.8689231 C12.0107467,21.4368767 12.6607956,21.71782 13.2646154,21.5307692 C13.5415385,21.456 13.644,21.3203077 14.0704615,21.3147692 C14.4380408,21.2867405 14.7982181,21.4285667 15.048,21.6996923 C14.1978462,21.6553846 12.7578462,22.1870769 12.0738462,22.3366154 C11.5268327,22.4534185 10.9710888,22.5247389 10.4123077,22.5498462 C10.9661538,23.2310769 11.772,23.2310769 12.3701538,23.2310769 C12.9683077,23.2310769 14.8624615,23.0898462 16.02,23.1867692 C17.46,23.3058462 18.6092308,24.2501538 18.6092308,25.6513846 C18.6104416,26.4783537 18.256446,27.266019 17.6372308,27.8141538 C18.3681198,27.5932333 18.9908682,27.1086541 19.3846154,26.4544615 C19.9288526,28.4737321 19.1547403,30.6180232 17.4461538,31.824 C16.4104615,32.5107692 13.3061538,33.2086154 10.9218462,32.0815385 C8.28276923,30.8187692 7.28584615,29.5892308 7.28584615,29.5892308 C13.0209231,30.0572308 15.8261538,28.4676923 15.8261538,28.4676923 C12.003639,28.7187021 8.17837856,28.0204328 4.69107692,26.4350769 C3.74113984,24.9392766 3.05458639,23.2917356 2.66123077,21.564 L2.66123077,21.564 C6.95076923,24.7956923 10.7529231,25.3495385 10.7529231,25.3495385 C6.12,22.8433846 3.82984615,20.0353846 2.28461538,17.2329231 C2.36134811,15.6497598 2.67883705,14.0875275 3.22615385,12.6 L3.22615385,12.5750769 C4.94584615,17.1470769 6.82615385,18.5095385 6.82615385,18.5095385 C4.98461538,14.2587692 4.98461538,11.2126154 5.15907692,8.91969231 C5.86924241,7.91321946 6.69555767,6.99395535 7.62092308,6.18092308 L7.63476923,6.16430769 C6.92307692,10.2461538 7.77876923,12.8963077 7.77876923,12.8963077 C7.77876923,9.67015385 9.59261538,5.81538462 11.0353846,3.87692308 C11.9343839,3.424362 12.8758748,3.06167927 13.8461538,2.79415385 L13.8461538,2.79415385 C13.0570165,3.78244115 12.4178413,4.88163592 11.9492308,6.05630769 C14.6464615,3.48369231 19.1215385,1.93846154 19.8027692,1.764 C20.484,1.58953846 22.4307692,0.875076923 22.9846154,0.750461538 C23.4913846,0.628615385 23.7378462,0.952615385 23.7046154,1.26 C23.652935,1.61807644 23.5817523,1.97306579 23.4913846,2.32338462 C24.9923077,2.68892308 25.6430769,3.43107692 25.6430769,3.43107692 C25.6084074,3.25328591 25.5990841,3.07148178 25.6153846,2.89107692 C27.684,4.73261538 28.2489231,5.61046154 28.3070769,7.28030769 C28.3652308,8.95015385 29.0990769,9.21876923 29.5227692,9.432 C30.1513829,9.76041607 30.7573482,10.1304712 31.3366154,10.5396923 C31.5886154,10.7529231 31.4806154,10.9910769 31.3366154,11.1627692 C31.2283296,11.277076 31.168745,11.4290166 31.1704615,11.5864615 C31.0430769,12.456 30.6553846,12.8049231 30.1209231,13.0015385 C29.7413647,13.104457 29.337201,13.0640406 28.9855385,12.888 C28.3929231,13.5387692 28.2793846,13.1150769 28.2516923,12.8603077 C28.224,12.6055385 27.9110769,12.8049231 27.6978462,12.888 C27.4846154,12.9710769 27.3876923,12.6609231 27.3876923,12.6609231 C26.3076923,12.5169231 25.8341538,13.1538462 25.8341538,13.1538462 C26.7701538,13.2812308 27.2409231,13.9181538 27.2824615,14.1729231 C27.324,14.4276923 27.7504615,14.2587692 27.7504615,14.2587692 C27.8020669,14.1814954 27.8766607,14.1224016 27.9636923,14.0898462 C28.1326154,14.004 28.1769231,14.0455385 28.1326154,14.2587692 C28.0883077,14.472 28.0467692,14.6409231 28.0467692,14.6409231 L28.5230769,14.9538462 C28.3486154,16.1030769 27.8418462,16.0615385 27.5870769,15.9286154 C25.9476923,15.0978462 23.0344615,14.9538462 23.0344615,14.9538462 C23.2039971,14.7380495 23.3982458,14.5428714 23.6132308,14.3723077 C16.1363077,14.3723077 14.8735385,15.2806154 14.4913846,15.7569231 C14.2144615,16.0892308 14.4553846,16.6043077 14.4553846,16.6043077 C13.5664615,16.7732308 11.3067692,17.3436923 10.4427692,18.1384615 C9.57876923,18.9332308 9.33507692,20.6833846 9.30184615,21.3396923 C9.30184615,21.4781538 9.42923077,21.4726154 9.48738462,21.3950769 L9.48738462,21.384 Z M22.5027692,2.12123077 C22.5858462,2.02707692 22.5027692,1.95230769 22.2784615,2.09353846 C21.5048064,2.554465 20.8532757,3.19459871 20.3787692,3.96 C20.2956923,4.104 20.3455385,4.31446154 20.7055385,4.19261538 C21.0596698,4.0730455 21.4239382,3.9859177 21.7938462,3.93230769 C21.9932308,3.90184615 21.9932308,3.76338462 21.852,3.71076923 C21.7107692,3.65815385 21.6775385,3.59723077 21.7384615,3.37015385 C21.9286002,2.91843304 22.1863144,2.49824692 22.5027692,2.124 L22.5027692,2.12123077 Z M20.6335385,5.16738462 C19.1658462,6.36923077 16.7427692,9.22153846 15.5990769,11.8938462 C15.5132308,12.0932308 15.5990769,12.1236923 15.876,11.952 C16.3551103,11.6808516 16.8573989,11.4528756 17.3769231,11.2707692 C17.3769231,11.2707692 16.956,12.7384615 16.8147692,13.5692308 C16.704,14.2393846 17.2606154,14.1867692 17.6067692,14.1092308 C17.9529231,14.0316923 19.3929231,13.968 19.6476923,13.9375385 C19.6476923,13.9375385 18.3156923,13.6246154 18.1744615,13.0846154 C18.0332308,12.5446154 18.4126154,11.3538462 18.684,10.5230769 C18.7421538,10.3486154 18.6563077,10.0966154 18.3738462,10.2073846 C18.0756489,10.296395 17.7825884,10.4017858 17.496,10.5230769 C17.496,10.5230769 18.7421538,7.47692308 20.6667692,5.26153846 L20.6390769,5.17569231 L20.6335385,5.16738462 Z M27.2381538,6.53261538 C27.0941538,7.64030769 26.6843077,7.54892308 26.5015385,7.49630769 C26.2319211,7.38128463 25.9441265,7.31472627 25.6513846,7.29969231 C25.4630769,7.28307692 24.5907692,7.18338462 25.0587692,7.55169231 C25.8092308,8.14984615 26.4433846,9.36553846 26.4433846,9.36553846 C26.4841824,8.96513395 26.4061685,8.5615803 26.2190769,8.20523077 C26.1083077,8.00307692 26.2495385,7.95046154 26.3852308,7.97815385 C26.5586118,8.02545217 26.7225479,8.10226796 26.8698462,8.20523077 C27.1218462,8.34369231 27.2935385,8.31876923 27.3516923,7.97815385 C27.3947172,7.49771295 27.3863623,7.01405284 27.3267692,6.53538462 C27.3217495,6.51577941 27.3040838,6.50206697 27.2838462,6.50206697 C27.2636085,6.50206697 27.2459428,6.51577941 27.2409231,6.53538462 L27.2381538,6.53261538 Z" id="Shape"></path>
                            <path d="M29.1323077,29.3732308 C28.4649231,27.1578462 26.64,25.7233846 25.6070769,24.4883077 C25.1916923,23.9843077 24.5769231,23.2809231 24.5769231,23.2809231 C25.1268896,23.5316488 25.7096021,23.7031993 26.3076923,23.7904615 C25.843641,23.3348898 25.4080494,22.8512075 25.0033846,22.3421538 C24.1157147,21.323677 23.0376936,20.4883517 21.8298462,19.8830769 C19.8332308,18.9775385 17.7507692,18.8612308 17.4683077,18.8086154 C17.1858462,18.756 16.5904615,18.864 16.9532308,18.2935385 C17.316,17.7230769 19.4787692,16.0615385 19.4787692,16.0615385 C19.0273846,16.0615385 17.0446154,16.236 16.4326154,16.3163077 C15.8206154,16.3966154 15.7015385,16.2055385 15.6683077,15.8095385 C15.6683077,15.8095385 14.4747692,16.9338462 15.0452308,17.5070769 C15.1310769,17.5929231 15.3858462,17.6206154 15.6987692,17.4793846 C16.0700708,17.3148789 16.458214,17.1913788 16.8563077,17.1110769 C16.6187731,17.4714131 16.4104174,17.8501574 16.2332308,18.2436923 C16.1196923,18.5843077 16.092,18.7532308 16.6264615,18.9249231 C17.1609231,19.0966154 19.9052308,19.9384615 21.5723077,21.0710769 C23.2393846,22.2036923 24.9729231,23.652 26.2523077,26.3076923 C27.5316923,28.9633846 26.8227692,30.9932308 26.6233846,31.3615385 C27.5316502,30.7826514 28.3771367,30.1107169 29.1461538,29.3566154 L29.1323077,29.3566154 L29.1323077,29.3732308 Z" id="Shape"></path>
                            <path d="M32.8596923,23.7295385 C31.2203077,22.3975385 28.3430769,20.0215385 24.8289231,19.2018462 C24.8289231,19.2018462 29.8356923,21.204 31.6246154,26.2412308 C32.1086496,25.4423997 32.5201407,24.6018087 32.8541538,23.7295385 L32.8596923,23.7295385 Z" id="Shape"></path>
                            <path d="M23.0261538,33.0784615 C23.5606154,31.8295385 24.1504615,28.8636923 23.5301538,26.5652308 C23.5301538,26.5652308 23.6464615,31.9707692 19.9301538,33.7652308 C20.9770724,33.6422559 22.0094012,33.4168687 23.0123077,33.0923077 L23.0261538,33.0784615 Z" id="Shape"></path>
                            <path d="M33.912,17.8255385 C33.4301538,17.6316923 30.4670769,16.7926154 30.4670769,16.7926154 C31.0308296,16.7750481 31.5493177,16.4795099 31.8516923,16.0033846 C30.694115,16.28591 29.4943643,16.3525628 28.3126154,16.2 C30.3292959,17.1634299 32.1800667,18.4412096 33.7956923,19.9855385 L33.7956923,19.9606154 C33.8713064,19.3227625 33.9101399,18.6810857 33.912,18.0387692 L33.912,17.8283077 L33.912,17.8255385 Z" id="Shape"></path>
                        </g>
                    </g>
                </g>
            </g>
        </g>
    </g>
</svg>