<?xml version="1.0" encoding="UTF-8"?>
<svg width="37px" height="35px" viewBox="0 0 37 35" version="1.1" xmlns="http://www.w3.org/2000/svg" xmlns:xlink="http://www.w3.org/1999/xlink">
    <!-- Generator: Sketch 41 (35326) - http://www.bohemiancoding.com/sketch -->
    <title>Слой_2</title>
    <desc>Created with Sketch.</desc>
    <defs></defs>
    <g id="Page-1" stroke="none" stroke-width="1" fill="none" fill-rule="evenodd">
        <g id="Icons" transform="translate(-312.000000, -254.000000)">
            <g id="Tinkoff" transform="translate(312.000000, 254.000000)">
                <g id="Слой_2">
                    <g>
                        <g id="Слой_1-2">
                            <path d="M36.4609877,16.1958904 L36.9177778,14.5849315 L35.332716,14.6376712 C34.6013657,14.6071256 33.8946164,14.3520756 33.3,13.9041096 L33.5146914,13.9041096 C34.4849472,13.9014301 35.3699261,13.3218066 35.798642,12.4082192 L36.4792593,10.8212329 C35.931107,10.8260594 35.3832603,10.7924228 34.8393827,10.7205479 C34.3208559,10.5918226 33.8541519,10.2948883 33.5055556,9.87191781 C33.0319223,9.34103492 32.37131,9.03767849 31.6783951,9.03287671 C31.4069435,9.03422687 31.1373138,9.07950788 30.8790123,9.16712329 C30.9175727,9.03829619 30.9480901,8.90696745 30.9703704,8.7739726 C31.0775572,7.83935529 30.8279349,6.89820111 30.2760494,6.15616438 L29.0883951,4.60753425 L28.3483951,6.42945205 C28.2318894,6.6881002 28.0522227,6.90976459 27.8276543,7.07191781 C27.7018369,6.42194015 27.3968639,5.82508111 26.9506173,5.35547945 C26.2018305,4.54993867 25.1724453,4.09974938 24.1002469,4.10890411 C23.9136964,4.10797199 23.7273637,4.1223998 23.542963,4.15205479 L22.1040741,4.44931507 C22.2286738,3.94163115 22.425806,3.45668063 22.6887654,3.0109589 L23.4835802,1.71164384 L21.4691358,1.91780822 L20.8296296,0.479452055 L19.5962963,1.14589041 L18.4725926,0 L17.3351852,1.18424658 L16.097284,0.513013699 L15.4623457,1.91780822 L13.4616049,1.67808219 L14.2564198,2.97739726 C14.5185421,3.42299443 14.7141793,3.90805667 14.8365432,4.41575342 L13.4661728,4.13287671 L13.4204938,4.13287671 C13.2300513,4.10234994 13.0375812,4.08792002 12.8449383,4.08972603 C11.7742175,4.08132268 10.7465173,4.53149649 9.9991358,5.33630137 C9.55575916,5.81180739 9.25550845,6.41375393 9.13580247,7.06712329 C8.91417573,6.90897916 8.73614579,6.69235127 8.61962963,6.4390411 L7.86592593,4.61232877 L6.6554321,6.17054795 C6.11343058,6.91365389 5.86922384,7.84948776 5.97481481,8.77876712 C5.99755035,8.91166134 6.02806076,9.04296003 6.06617284,9.17191781 C5.8079925,9.08377383 5.53828369,9.03847953 5.26679012,9.03767123 C4.57398939,9.04303611 3.91357941,9.34629963 3.43962963,9.87671233 C3.09268598,10.2947071 2.63191181,10.5909118 2.11950617,10.7253425 C1.5692567,10.8110811 1.0127829,10.8447781 0.456790123,10.8260274 L1.14197531,12.4130137 C1.57151931,13.3258144 2.45597933,13.905098 3.42592593,13.9089041 L3.64061728,13.9089041 C3.04768404,14.3622469 2.34073232,14.6223723 1.60790123,14.6568493 L0,14.5849315 L0.488765432,16.1958904 C0.847087953,17.4620124 1.88496881,18.3858144 3.13358025,18.55 C3.00472886,19.3973277 2.49450431,20.1274437 1.76320988,20.5109589 L0.543580247,21.0335616 L1.20135802,22.2321918 C1.74163306,23.1160879 2.67667334,23.6466389 3.67716049,23.6369863 C3.93815003,23.6363838 4.19838102,23.6074629 4.4537037,23.5506849 C4.51796714,23.8552533 4.59725078,24.1561148 4.69123457,24.4520548 C4.91847494,25.0828946 4.93458301,25.7760906 4.73691358,26.4178082 L4.14308642,27.7219178 L5.46777778,28.0863014 C5.76638879,28.1658758 6.07327332,28.2061395 6.38135802,28.2061644 C6.59969096,28.2073997 6.81740332,28.1816517 7.03,28.1294521 C7.18580289,28.0928009 7.33855559,28.0430983 7.48679012,27.9808219 C7.65658335,28.3018915 7.86541031,28.5984388 8.10802469,28.8630137 C8.95308642,29.7643836 10.1590123,30.2054795 11.6846914,30.2054795 L11.6846914,30.2054795 L12.7901235,30.2054795 L10.5381481,31.1643836 L12.2465432,32.0321918 C12.9324873,32.3891995 13.6353347,32.70925 14.3523457,32.9910959 L14.1376543,33.6047945 L14.7269136,33.8876712 C15.7047861,34.2927846 16.7413494,34.5197867 17.7919753,34.5589041 L18.4954321,34.5589041 L19.194321,34.5589041 C20.2385533,34.5195232 21.2688164,34.2941691 22.2411111,33.8924658 L22.8395062,33.6527397 L22.6248148,33.0390411 C23.3500036,32.7464884 24.0604771,32.4152347 24.7534568,32.0465753 L26.4298765,31.1931507 L24.187037,30.2342466 L25.2787654,30.2342466 C26.8044444,30.2342466 28.0195062,29.7547945 28.86,28.8534247 C29.1029739,28.5891687 29.3118373,28.2925696 29.4812346,27.9712329 C29.6296566,28.0329525 29.7823672,28.0826414 29.9380247,28.119863 C30.1506782,28.1717162 30.3683517,28.1974595 30.5866667,28.1965753 C30.8947192,28.1960113 31.2015407,28.1557559 31.5002469,28.0767123 L32.8340741,27.7075342 L32.2539506,26.4273973 C32.039422,25.7879162 32.0410349,25.0904352 32.2585185,24.4520548 C32.3498765,24.159589 32.4320988,23.8623288 32.4960494,23.5650685 C32.7529067,23.6219045 33.0146579,23.6508242 33.2771605,23.6513699 C34.2864591,23.6591666 35.2265858,23.1139912 35.7575309,22.2130137 L36.4061728,21.0239726 L35.2048148,20.5061644 C34.4725126,20.1239045 33.9618523,19.393165 33.8344444,18.5452055 C35.0800979,18.3739805 36.1148035,17.4530048 36.4792593,16.1910959 L36.4609877,16.1958904 Z" id="Shape" fill="#FFFFFF"></path>
                            <path d="M18.4725926,4.93356164 C17.1981481,4.93356164 16.2434568,5.37465753 16.0333333,5.89246575 L18.4725926,6.90410959 L20.9118519,5.89246575 C20.7062963,5.37465753 19.7516049,4.93356164 18.4725926,4.93356164" id="Shape" fill="#FFFFFF"></path>
                            <path d="M18.5,31.6438356 L18.4497531,31.6438356 C17.6579191,31.6366701 16.8697229,31.530441 16.1018519,31.3273973 L15.4851852,33.0821918 C16.4582508,33.3660889 17.4626702,33.5143931 18.4725926,33.5232877 C19.4855845,33.5153465 20.4931418,33.3670325 21.4691358,33.0821918 L20.8524691,31.3321918 C20.0828725,31.5336831 19.29316,31.6383004 18.5,31.6438356" id="Shape" fill="#FFFFFF"></path>
                            <path d="M23.1638272,29.9130137 C22.4952245,30.2637392 21.8000395,30.5556088 21.0854321,30.7856164 L21.5833333,32.2239726 C22.3802911,32.0044891 23.1545359,31.7025536 23.8946914,31.3226027 L22.8395062,30.9678082 L23.1455556,29.9178082" id="Shape" fill="#FFFFFF"></path>
                            <path d="M13.7859259,29.9130137 L14.0919753,30.9630137 L13.0550617,31.3273973 C13.7938842,31.7067357 14.5665552,32.0086541 15.3618519,32.2287671 L15.864321,30.790411 C15.1497415,30.5603202 14.454563,30.2684533 13.7859259,29.9178082" id="Shape" fill="#FFFFFF"></path>
                            <path d="M18.4725926,3.26027397 C19.3872206,3.25030158 20.2898434,3.47932597 21.0991358,3.92671233 C21.1771983,3.65063412 21.2717897,3.38000446 21.3823457,3.11643836 L21.1082716,3.15 L20.8204938,3.18356164 L20.6971605,2.91027397 L20.3317284,2.1 L19.6648148,2.46438356 L19.4044444,2.60342466 L19.1851852,2.39726027 L18.4725926,1.62534247 L17.7462963,2.39726027 L17.5407407,2.6130137 L17.2803704,2.4739726 L16.6088889,2.10958904 L16.2480247,2.91986301 L16.1246914,3.19315068 L15.8369136,3.15958904 L15.5628395,3.1260274 C15.6729888,3.38976538 15.7675708,3.66036812 15.8460494,3.93630137 C16.654655,3.48596383 17.55723,3.25365644 18.4725926,3.26027397" id="Shape" fill="#FFFFFF"></path>
                            <path d="M33.1355556,12.6479452 C33.2560067,12.6919447 33.3825869,12.7146281 33.5101235,12.7150685 C34.0322433,12.7101561 34.5102906,12.4068922 34.7571605,11.9239726 C33.9573571,11.7845869 33.2279881,11.3594674 32.6924691,10.7205479 C32.4352733,10.4186973 32.0687641,10.2446285 31.682963,10.2410959 C31.384484,10.2469621 31.0934545,10.3399306 30.8424691,10.509589 C32.1351852,11.2335616 32.4001235,12.3938356 33.1264198,12.6527397" id="Shape" fill="#FFFFFF"></path>
                            <path d="M3.43506173,12.710274 C3.56265781,12.7105685 3.68935465,12.6878642 3.80962963,12.6431507 C4.54962963,12.3842466 4.8145679,11.2047945 6.09358025,10.5 C5.84259491,10.3303415 5.55156537,10.237373 5.25308642,10.2315068 C4.86569039,10.23369 4.4972745,10.4078762 4.23901235,10.7109589 C3.70373268,11.3501901 2.97425001,11.7753759 2.17432099,11.9143836 C2.42119088,12.3973032 2.89923818,12.700567 3.42135802,12.7054795" id="Shape" fill="#FFFFFF"></path>
                            <path d="M33.487284,17.3609589 L33.5512346,17.3609589 C34.9216049,17.3609589 35.3783951,15.8363014 35.3783951,15.8363014 L35.3509877,15.8363014 C33.9056104,15.7850073 32.5552708,15.0675709 31.6601235,13.8753425 C30.7237037,12.6239726 29.9517284,11.5260274 28.4351852,11.0945205 L28.2844444,11.0657534 L28.2524691,10.9075342 C28.211358,10.6630137 28.3712346,10.4280822 28.7092593,10.1883562 C30.8059259,8.75 29.3807407,6.91369863 29.3807407,6.91369863 C29.3807407,6.91369863 28.7777778,8.38082192 27.4576543,8.38082192 L27.3571605,8.38082192 C27.2039023,8.3780115 27.051124,8.36197571 26.9003704,8.33287671 L26.6537037,8.28013699 C26.8587151,7.53234522 26.6510366,6.72692131 26.1146914,6.18972603 C25.5832492,5.61794501 24.8521143,5.29920244 24.0911111,5.30753425 C23.9564293,5.30597799 23.8218895,5.31721096 23.6891358,5.34109589 C24.1459259,5.9739726 24.4839506,7.02876712 23.9540741,7.68082192 C23.497284,8.2369863 22.3644444,8.26575342 22.3644444,9.11917808 C22.3644444,9.4739726 22.6796296,9.88150685 23.2414815,10.2506849 C24.9361728,11.3726027 26.6217284,12.8589041 27.3206173,14.8534247 C28.1930864,17.3369863 27.2109877,18.9910959 25.8040741,19.9356164 C26.1104865,20.2065891 26.4879336,20.3737506 26.8866667,20.4150685 L27.2612346,20.4150685 C27.9976434,20.4476763 28.7221732,20.212251 29.3122222,19.7486301 C29.1946934,20.4042797 28.9124087,21.0150659 28.4945679,21.5178082 C27.7973098,22.3683957 26.7670832,22.8366219 25.6990123,22.7883562 C25.7051276,23.2457714 25.9001319,23.6778709 26.2334568,23.9726027 C26.5976495,24.2290038 27.0135949,24.393132 27.4485185,24.4520548 C27.4485185,24.4520548 25.8588889,24.7924658 25.6807407,27.2568493 C25.6850749,27.8834943 25.5406458,28.501406 25.2604938,29.0547945 L25.2879012,29.0547945 C28.9787654,29.0547945 28.8828395,25.7321918 28.8828395,25.7321918 C29.0773186,26.3530415 29.5651113,26.8232759 30.1709877,26.9739726 C30.2964626,27.006807 30.4253792,27.0229156 30.5546914,27.0219178 C30.7641053,27.0205257 30.972629,26.9931671 31.1759259,26.940411 C30.8423462,26.0134679 30.8423462,24.9906417 31.1759259,24.0636986 C31.4370831,23.2947481 31.56397,22.4826632 31.5504938,21.6664384 C31.9721602,22.2083682 32.6163195,22.5045038 33.2817284,22.4623288 L33.2817284,22.4623288 C33.8740038,22.4734765 34.4305922,22.166002 34.7571605,21.6472603 C32.2950617,20.5732877 32.5417284,17.1164384 32.5417284,17.1164384 C32.8247292,17.298446 33.1508305,17.3931544 33.482716,17.389726 M32.742716,21.0047945 C31.7423457,20.4869863 31.1074074,19.1109589 30.9566667,18.6075342 C30.7922222,21.3356164 29.5223457,23.2246575 28.0377778,25.0465753 C27.585083,25.5937043 27.2334477,26.2245552 27.0008642,26.9068493 C27.1216322,26.2171795 27.400713,25.5687919 27.8139506,25.0178082 C29.184321,23.2726027 30.5135802,21.1006849 30.6095062,18.5931507 C30.6867841,17.0694483 30.3271982,15.5564067 29.5771605,14.2493151 C30.0547671,15.6960441 29.6833547,17.3022545 28.627037,18.3582192 C28.627037,18.3582192 31.1622222,15.1746575 27.6175309,11.9047945 C26.2014815,10.6630137 24.6483951,9.89589041 23.8490123,9.34931507 C26.7359259,10.3369863 28.1428395,9.24863014 28.1428395,9.24863014 C27.3348964,9.90984847 26.2919426,10.167321 25.2879012,9.95342466 C25.4888889,10.0541096 25.6990123,10.1643836 25.9228395,10.2890411 C28.3575309,11.6746575 30.5409877,13.9568493 30.9155556,17.1164384 L30.9155556,17.1164384 C31.4819753,20.2184932 32.742716,21.0143836 32.742716,21.0143836" id="Shape" fill="#FFFFFF"></path>
                            <path d="M9.49666667,24.4280822 C9.93325615,24.3702259 10.3509132,24.2060396 10.7162963,23.9486301 C11.0489159,23.6553861 11.2439104,23.2250578 11.2507407,22.7691781 C10.1814732,22.8167816 9.15011864,22.3488074 8.45061728,21.4986301 C8.0353515,20.9947154 7.75479193,20.3842515 7.63753086,19.7294521 C8.22530333,20.1941615 8.94879285,20.4297736 9.68395062,20.3958904 L10.0630864,20.3958904 C10.4616773,20.353986 10.8389655,20.1868949 11.145679,19.9164384 C9.73876543,18.9575342 8.75209877,17.3178082 9.6245679,14.8342466 C10.3234568,12.8445205 12.0090123,11.3534247 13.7037037,10.2315068 C14.2655556,9.86232877 14.5807407,9.45 14.5807407,9.1 C14.5807407,8.26575342 13.4524691,8.24178082 12.9911111,7.66164384 C12.4566667,7.00958904 12.7901235,5.95958904 13.2514815,5.32191781 C13.1187467,5.29787477 12.9841931,5.28664065 12.8495062,5.28835616 C12.088503,5.28002435 11.3573681,5.59876693 10.8259259,6.17054795 C10.2886593,6.70716757 10.08083,7.51317646 10.2869136,8.2609589 L10.0402469,8.31369863 C9.88942415,8.3422822 9.73668555,8.35831381 9.58345679,8.36164384 L9.48753086,8.36164384 C8.1445679,8.36164384 7.55074074,6.89452055 7.55074074,6.89452055 C7.55074074,6.89452055 6.13469136,8.75 8.22222222,10.1883562 C8.58308642,10.4328767 8.74296296,10.6678082 8.67901235,10.9075342 L8.64703704,11.0657534 L8.4962963,11.0945205 C6.97975309,11.5260274 6.21234568,12.6239726 5.27135802,13.8753425 C4.38008478,15.0551814 3.04146819,15.7664544 1.60790123,15.8219178 L1.58049383,15.8219178 C1.58049383,15.8219178 2.03728395,17.3465753 3.40765432,17.3465753 L3.47160494,17.3465753 C3.80345823,17.3497455 4.12949297,17.2550564 4.41259259,17.0732877 C4.41259259,17.0732877 4.65469136,20.5349315 2.19259259,21.6041096 C2.51391228,22.1233213 3.06445574,22.4357251 3.65432099,22.4335616 L3.65432099,22.4335616 C4.31972988,22.4757367 4.96388914,22.1796011 5.38555556,21.6376712 C5.37081374,22.4535897 5.49614619,23.2656289 5.75555556,24.0349315 C6.08788017,24.9621146 6.08788017,25.9844607 5.75555556,26.9116438 C5.95736014,26.9640702 6.16433468,26.9914267 6.37222222,26.9931507 C6.50154525,26.9943548 6.63048662,26.9782431 6.75592593,26.9452055 C7.36180228,26.7945088 7.84959496,26.3242744 8.04407407,25.7034247 C8.04407407,25.7034247 7.94814815,29.0260274 11.6390123,29.0260274 L11.6664198,29.0260274 C11.3880183,28.4704173 11.2451983,27.8510275 11.2507407,27.2232877 C11.0771605,24.7589041 9.48296296,24.4184932 9.48296296,24.4184932 M8.8891358,25.0178082 C7.4045679,23.1958904 6.14839506,21.3020548 5.97024691,18.5787671 C5.81950617,19.0582192 5.1891358,20.4486301 4.18876543,20.9760274 C4.18876543,20.9760274 5.44493827,20.180137 6.01592593,17.0780822 L6.01592593,17.0780822 C6.39049383,13.9184932 8.57395062,11.6363014 11.008642,10.2506849 C11.2324691,10.1212329 11.4425926,10.0157534 11.6435802,9.91506849 C10.6395389,10.1289648 9.59658506,9.87149231 8.78864198,9.21027397 C8.78864198,9.21027397 10.1955556,10.2986301 13.0824691,9.3109589 C12.2830864,9.85753425 10.7345679,10.6246575 9.31851852,11.8664384 C5.77382716,15.1315068 8.30901235,18.319863 8.30901235,18.319863 C7.25269472,17.2638983 6.88128227,15.6576879 7.35888889,14.2109589 C6.60780189,15.5175933 6.24813435,17.0309785 6.32654321,18.5547945 C6.43160494,21.0958904 7.7654321,23.2582192 9.13580247,25.0034247 C9.55000564,25.5525491 9.83063513,26.1992468 9.95345679,26.8876712 C9.71834267,26.2055824 9.36526392,25.57492 8.91197531,25.0273973" id="Shape" fill="#FFFFFF"></path>
                            <path d="M15.7455556,12.2787671 C15.8049383,12.3458904 15.864321,12.4226027 15.9237037,12.4945205 L15.9648148,12.5472603 L16.1246914,12.7821918 L16.1612346,12.8349315 C16.2251852,12.9308219 16.28,13.0363014 16.3393827,13.1369863 C16.7528342,14.0021137 17.5595953,14.584731 18.4771605,14.6808219 C19.3964088,14.5863037 20.2052066,14.0034609 20.6195062,13.1369863 C20.6788889,13.0315068 20.7382716,12.9260274 20.8022222,12.830137 L20.8296296,12.7869863 C20.8844444,12.7054795 20.9392593,12.6239726 20.9940741,12.5472603 L21.0306173,12.4993151 C21.09,12.4226027 21.1493827,12.3458904 21.2133333,12.2787671 L21.2453086,12.25 C21.5230382,11.9438374 21.8753154,11.7233114 22.2639506,11.6123288 L22.062963,11.5068493 L22.062963,11.5068493 L21.3138272,11.0273973 L20.5464198,10.5479452 L18.4908642,11.7226027 L18.4908642,11.7226027 L16.4353086,10.5479452 L15.6679012,11.0273973 L14.891358,11.5068493 L14.891358,11.5068493 L14.6995062,11.6219178 C15.087729,11.7313209 15.4400089,11.9501905 15.7181481,12.2547945 L15.7501235,12.2883562 L15.7455556,12.2787671 Z M17.6458025,12.1924658 L19.3861728,12.1924658 L19.3861728,12.8205479 C19.2260053,12.6579946 19.0042659,12.5804145 18.7832099,12.609589 L18.7832099,13.5109589 C18.7873237,13.7344618 18.8438006,13.9534639 18.9476543,14.1486301 L18.0797531,14.1486301 C18.184317,13.9537684 18.2408432,13.7345749 18.2441975,13.5109589 L18.2441975,12.6 C18.0231415,12.5708255 17.8014021,12.6484055 17.6412346,12.8109589 L17.6458025,12.1924658 Z" id="Shape" fill="#FFFFFF"></path>
                            <path d="M18.2944444,10.969863 L18.2944444,7.30205479 L16.0698765,6.5109589 L16.6545679,10.0684932 L18.2944444,10.9746575 L18.2944444,10.969863 Z M17.8376543,8.20821918 L17.8376543,8.79794521 L17.7280247,8.74520548 C17.5603827,8.68591036 17.4052647,8.59310661 17.2712346,8.47191781 C17.0299776,8.31186948 16.8641457,8.05252154 16.8144444,7.75753425 L17.8376543,8.20821918 Z" id="Shape" fill="#FFFFFF"></path>
                            <path d="M20.2906173,10.0684932 L20.8753086,6.51575342 L18.6507407,7.30684932 L18.6507407,10.9746575 L20.2906173,10.0684932 L20.2906173,10.0684932 Z M19.1303704,8.20821918 L20.1398765,7.76232877 C20.0907167,8.05754475 19.9247502,8.31710329 19.6830864,8.47671233 C19.5490563,8.59790113 19.3939383,8.69070488 19.2262963,8.75 L19.1212346,8.80273973 L19.1303704,8.20821918 Z" id="Shape" fill="#FFFFFF"></path>
                            <path d="M15.1471605,19.4705479 C15.3448158,19.5379658 15.5514305,19.5719522 15.7592593,19.5712329 L15.7592593,19.5041096 C15.7720835,19.4615805 15.7827569,19.4183695 15.7912346,19.3746575 C15.8241424,19.1831114 15.8424719,18.9891198 15.8460494,18.7945205 C15.7216699,18.7164181 15.6204467,18.6035328 15.5537037,18.4684932 C15.4968084,18.3037948 15.3459954,18.1956909 15.1791358,18.2 C14.9780988,18.2204046 14.7850367,18.2928937 14.617284,18.4109589 C14.5600799,18.841671 14.7641337,19.2642885 15.1288889,19.4705479" id="Shape" fill="#FFFFFF"></path>
                            <path d="M20.071358,17.5287671 C19.6602469,18.0082192 18.8471605,18.8232877 18.8106173,18.8616438 L18.7603704,18.9143836 L16.2069136,18.8712329 C16.2046287,19.0928459 16.1770241,19.313371 16.1246914,19.5280822 L16.1246914,19.6143836 L19.1623457,20.189726 C19.4775309,19.959589 20.35,19.2883562 20.6880247,19.0294521 C20.4795518,18.6939079 20.4026342,18.2868047 20.4733333,17.8931507 C20.3269106,17.7970204 20.1971544,17.675419 20.0896296,17.5335616" id="Shape" fill="#FFFFFF"></path>
                            <path d="M20.4139506,14.3020548 C19.9205637,14.8801368 19.2165944,15.211245 18.4771605,15.2130137 L18.4771605,15.2130137 C18.3843439,15.218135 18.2913351,15.218135 18.1985185,15.2130137 C18.1063397,15.2051181 18.0147736,15.1907018 17.9244444,15.169863 C17.865631,15.4020912 17.8816923,15.6482204 17.9701235,15.869863 C18.102323,16.1388531 18.3332479,16.3396834 18.6096296,16.4260274 L18.7146914,16.4691781 L18.7146914,16.5890411 C18.7391383,17.0915438 19.081922,17.5142474 19.5506173,17.619863 C19.6830864,17.4760274 19.8018519,17.3465753 19.8932099,17.2410959 C19.7261824,16.8977339 19.7909245,16.4803017 20.0530864,16.210274 C19.9774606,16.7872264 20.2407659,17.3551062 20.72,17.6486301 L20.8479012,17.7109589 L20.811358,17.8547945 C20.6453859,18.4279528 20.9337835,19.0375679 21.4691358,19.2452055 L21.6381481,19.3123288 L21.5650617,19.4849315 C21.3366831,20.0244828 21.5516902,20.6572132 22.0538272,20.9232877 L23.9495062,20.9232877 L23.9495062,19.3410959 C23.4190005,19.2685635 22.9981139,18.8365699 22.9171605,18.2815068 C22.6319743,18.2425987 22.3727738,18.0876279 22.1954321,17.85 C21.9730761,17.5375001 21.9532097,17.1147737 22.1451852,16.7808219 C22.14943,17.1014993 22.2610026,17.4103924 22.4603704,17.6534247 C22.6245857,17.8329492 22.8453703,17.9437063 23.0816049,17.9650685 L23.218642,17.9650685 L23.218642,18.1136986 C23.2464796,18.5411365 23.5410845,18.8973274 23.9403704,18.9863014 L23.9403704,15.7691781 C23.9583638,15.2649134 24.0620071,14.7680735 24.2464198,14.3020548 L20.4139506,14.3020548" id="Shape" fill="#FFFFFF"></path>
                            <polyline id="Shape" fill="#FFFFFF" points="15.3116049 15.7787671 15.261358 17.8356164 15.4806173 17.8739726 16.0287654 15.8986301 15.7501235 15.289726 15.3116049 15.7787671"></polyline>
                            <path d="M21.3138272,25.209589 L21.368642,25.209589 C21.7066667,25.310274 21.7934568,26.590411 22.387284,26.7054795 C22.440429,26.7113572 22.4940154,26.7113572 22.5471605,26.7054795 C22.7015851,26.706262 22.8459315,26.6250972 22.9308642,26.489726 C22.9308642,26.489726 22.6339506,26.010274 22.4101235,25.6650685 C22.1132099,25.2287671 21.8848148,24.7061644 21.3275309,24.7061644 L21.2864198,24.7061644 C21.1818561,24.7100067 21.0804792,24.7449213 20.9940741,24.8068493 C20.80946,24.6796559 20.5936702,24.6113742 20.3728395,24.610274 C20.1188872,24.6428233 19.8681905,24.6989799 19.6237037,24.7780822 L19.6237037,24.7780822 L18.3903704,24.6486301 C18.2240568,24.6066362 18.0798707,24.498291 17.9883951,24.3465753 L17.9883951,24.3130137 L17.9883951,24.2075342 C18.0047416,23.4932003 17.5476824,22.8621803 16.8875309,22.6876712 C16.8875309,22.6876712 16.9012346,22.5342466 16.8098765,22.4383562 L16.5358025,22.7835616 L15.6222222,22.3041096 L16.2617284,23.0856164 L15.7409877,23.7328767 C15.6866667,23.787825 15.6736192,23.8739066 15.7090123,23.9438356 L15.9419753,24.159589 L16.2388889,23.9726027 C16.2628018,23.9656581 16.2880624,23.9656581 16.3119753,23.9726027 L16.6271605,23.9726027 C16.7367901,23.9726027 16.8509877,23.9438356 16.8646914,23.8287671 C16.8281481,24.2219178 16.4809877,24.9027397 16.7093827,25.439726 L16.8783951,25.8424658 L15.7866667,25.6794521 L15.2750617,26.5856164 C15.111005,26.8229139 15.0984058,27.1402962 15.2430864,27.3910959 L15.4349383,27.640411 C15.5679051,27.4997397 15.6788988,27.3379338 15.7638272,27.1609589 L15.677037,27.060274 C15.611634,26.9945818 15.6019186,26.888528 15.6541975,26.8109589 L15.9739506,26.2547945 L17.2620988,26.5712329 L17.3306173,26.4513699 C17.4029559,26.3212443 17.5391036,26.2451536 17.6823457,26.2547945 C17.7401199,26.250116 17.7981517,26.250116 17.8559259,26.2547945 C18.1943745,26.3265416 18.5384515,26.365064 18.8837037,26.369863 C19.2761403,26.4108937 19.6678365,26.2847912 19.9708642,26.019863 C20.4276543,26.7438356 21.3823457,26.8636986 21.3092593,27.2328767 L21.0580247,28.4794521 C21.2224691,28.4794521 21.3823457,28.4794521 21.5148148,28.4363014 L21.7523457,27.1417808 C21.7797531,27.0027397 21.8025926,26.8109589 21.8025926,26.8109589 C21.6243817,26.6527475 21.4703293,26.4667981 21.3458025,26.259589 C21.181358,25.9239726 21.2681481,25.7465753 21.1128395,25.3006849 C21.1437833,25.2404396 21.2029705,25.2020692 21.2681481,25.2 M16.4901235,23.3924658 C16.4283153,23.3924658 16.3782099,23.3398745 16.3782099,23.275 C16.3782099,23.2101255 16.4283153,23.1575342 16.4901235,23.1575342 C16.5519316,23.1575342 16.602037,23.2101255 16.602037,23.275 C16.602037,23.3398745 16.5519316,23.3924658 16.4901235,23.3924658" id="Shape" fill="#FFFFFF"></path>
                            <path d="M14.7314815,26.369863 C14.7314815,26.369863 15.1608642,26.1876712 15.1882716,26.0534247 L15.1334568,25.9047945 C15.0853724,25.818551 15.1048168,25.7083421 15.1791358,25.6458904 L15.6359259,25.310274 L16.4079012,25.4636986 C16.3210149,25.3404702 16.2759832,25.1902323 16.28,25.0369863 L15.5308642,24.8931507 L14.8365432,25.3342466 C14.5858998,25.5281475 14.4951341,25.8774664 14.617284,26.1780822 L14.708642,26.3890411" id="Shape" fill="#FFFFFF"></path>
                            <path d="M20.1809877,28.4986301 L20.6377778,28.4986301 C20.6377778,28.4986301 21.0351852,27.2808219 21.0580247,27.2424658 C20.7627706,27.0979417 20.4746289,26.9379222 20.1946914,26.7630137 C20.3134568,26.95 20.5966667,27.1561644 20.5418519,27.3191781 L20.1809877,28.5034247" id="Shape" fill="#FFFFFF"></path>
                            <path d="M23.9540741,21.2828767 L12.9911111,21.2828767 L12.9911111,25.5979452 C12.9911111,27.3671233 14.2107407,28.4746575 16.0104938,28.4746575 C17.5133333,28.4746575 17.9107407,28.5369863 18.4725926,29.1171233 C18.8263787,28.7192637 19.3245517,28.4979078 19.842963,28.5082192 L19.842963,28.4410959 L20.1946914,27.3287671 L19.61,26.6287671 C19.3747987,26.7032744 19.1290087,26.7341027 18.8837037,26.719863 C18.5248422,26.7152023 18.1671063,26.6766912 17.8148148,26.6047945 L17.7006173,26.6047945 C17.6503704,26.6047945 17.6503704,26.6047945 17.6366667,26.6335616 L17.5681481,26.7534247 L17.4448148,26.9739726 L17.207284,26.9164384 L16.1566667,26.6575342 L16.0104938,26.9068493 L16.0104938,26.9356164 L16.1383951,27.0842466 L16.0835802,27.2760274 C15.9875354,27.5107242 15.8495325,27.7239293 15.677037,27.9041096 L15.4166667,28.2013699 L15.1745679,27.8849315 L14.9964198,27.65 C14.8053341,27.3868599 14.7569902,27.0389127 14.8685185,26.7294521 L14.8685185,26.7294521 L14.5716049,26.8589041 L14.4391358,26.5568493 L14.3432099,26.3410959 C14.1557793,25.887977 14.2946084,25.3590059 14.6766667,25.0705479 L15.5217284,24.5910959 L16.325679,24.7589041 C16.325679,24.6773973 16.3759259,24.3849315 16.3987654,24.3130137 L16.3530864,24.3130137 L15.8962963,24.4952055 L15.4395062,24.1691781 C15.394313,24.1223355 15.3688757,24.0584466 15.3688757,23.9917808 C15.3688757,23.925115 15.394313,23.8612261 15.4395062,23.8143836 L15.8734568,23.1239726 L14.7771605,21.6856164 L16.4444444,22.3616438 L16.558642,22.2178082 L16.787037,21.930137 L17.0474074,22.1890411 C17.1153651,22.2581923 17.1629358,22.3464032 17.1844444,22.4431507 C17.6412346,22.6349315 18.4817284,23.1958904 18.5548148,24.1068493 L18.2944444,24.2171233 L18.2944444,24.2171233 C18.326286,24.2627741 18.3687498,24.2990908 18.4177778,24.3226027 L19.6237037,24.4472603 L19.7333333,24.4136986 C19.9380597,24.3331455 20.1542558,24.289382 20.3728395,24.2842466 C20.5953585,24.2886795 20.8140179,24.3460564 21.0123457,24.4520548 C21.1004471,24.4185935 21.192834,24.3991994 21.2864198,24.3945205 L21.3458025,24.3945205 C21.9898765,24.3945205 22.3096296,24.9027397 22.57,25.3054795 L22.7024691,25.5068493 C22.9262963,25.8424658 23.2232099,26.3267123 23.2323457,26.3506849 L23.3648148,26.5664384 L23.2003704,26.7678082 C23.0489662,26.9753522 22.8144721,27.0975307 22.5654321,27.0986301 C22.4925083,27.1058662 22.4190967,27.1058662 22.3461728,27.0986301 C22.2802343,27.0853173 22.215895,27.0644148 22.154321,27.0363014 C22.154321,27.1034247 22.154321,27.1849315 22.1223457,27.2520548 L21.9122222,28.4075342 C23.1535633,28.1447043 24.0288617,26.9739422 23.9769136,25.6458904 L23.9769136,21.3308219" id="Shape" fill="#FFE710"></path>
                            <path d="M12.995679,20.9328767 L21.5193827,20.9328767 C21.1717135,20.5498628 21.0524174,19.9974461 21.2087654,19.4945205 C21.09311,19.4366305 20.985531,19.3624285 20.8890123,19.2739726 C20.5555556,19.5328767 19.518642,20.309589 19.2719753,20.5013699 L19.2171605,20.539726 L15.8734568,19.9068493 L15.8049383,19.9068493 C15.6969242,19.9135022 15.5886314,19.9135022 15.4806173,19.9068493 C15.4484997,20.0628252 15.3174644,20.1744487 15.1654321,20.1753425 L15.1106173,20.1753425 C15.023923,20.1618371 14.9463106,20.1115728 14.8959259,20.0363014 C14.8434577,19.9620442 14.822021,19.8685818 14.8365432,19.7773973 L14.8365432,19.7006849 C14.4059871,19.3725116 14.201541,18.8078038 14.3158025,18.2623288 L14.3158025,18.2 L14.3660494,18.1616438 C14.3660494,18.1616438 14.43,18.1136986 14.5167901,18.0657534 L14.2746914,18.0273973 C14.1845851,18.0103177 14.1238233,17.921031 14.1376543,17.8260274 C14.1443454,17.7799511 14.1685056,17.7386735 14.2046398,17.7115829 C14.240774,17.6844922 14.2858105,17.6738915 14.3295062,17.6821918 L14.9096296,17.7780822 L14.9644444,15.639726 L15.8277778,14.6808219 L16.3667901,15.869863 L15.8140741,17.9315068 L16.325679,18.0178082 C16.4084095,18.043307 16.4595894,18.1300838 16.4444444,18.2191781 C16.4309324,18.3031326 16.3611117,18.3642032 16.28,18.3630137 L16.2525926,18.3630137 L15.8369136,18.2910959 L15.8369136,18.3246575 C15.883105,18.4102769 15.9532752,18.4789066 16.0379012,18.5212329 L18.5867901,18.5643836 L19.2765432,17.8835616 C18.7787402,17.7029608 18.4236041,17.2388811 18.362963,16.689726 C18.0453734,16.5634875 17.7856191,16.3148525 17.6366667,15.9945205 C17.5127267,15.6914824 17.4917619,15.352945 17.577284,15.0356164 C17.1749597,14.8704087 16.8117622,14.6151738 16.512963,14.2876712 L12.6896296,14.2876712 C12.872569,14.7541748 12.9761541,15.2507356 12.995679,15.7547945 L12.995679,20.9328767" id="Shape" fill="#FFE710"></path>
                            <path d="M16.5150985,23.1575775 C16.4824305,23.1546546 16.4500574,23.1660346 16.4255023,23.1890729 C16.4009473,23.2121112 16.3863484,23.2448016 16.3850985,23.2795472 C16.3823426,23.314195 16.3930724,23.3485301 16.4147942,23.3745734 C16.436516,23.4006166 16.4673383,23.4161002 16.5000985,23.417426 C16.5677533,23.417426 16.6225985,23.3592569 16.6225985,23.2875017 C16.6225985,23.2157465 16.5677533,23.1575775 16.5000985,23.1575775" id="Shape" fill="#231F20"></path>
                            <path d="M23.9403704,31.0061644 L23.2962963,30.7520548 L23.4698765,30.0664384 L23.6617284,29.3184932 C22.8000612,29.7818277 21.8974458,30.1559686 20.9666667,30.4356164 C20.5098765,30.569863 20.1809877,30.6321918 20.1809877,30.6321918 L20.1809877,31.1643836 C19.6205393,31.2599225 19.0540534,31.3112079 18.4862963,31.3178082 L18.4360494,31.3178082 C17.8728664,31.3105808 17.3109802,31.2592972 16.7550617,31.1643836 L16.7550617,30.6321918 C16.7550617,30.6321918 16.417037,30.569863 15.9693827,30.4356164 C15.0385475,30.1561418 14.1359163,29.7819944 13.274321,29.3184932 L13.4616049,30.0664384 L13.6397531,30.7520548 L13.0048148,31.0061644 L12.301358,31.2794521 C13.244333,31.7996381 14.2286162,32.2327762 15.2430864,32.5739726 L15.0009877,33.2643836 C16.1026313,33.70549 17.2755744,33.917193 18.454321,33.8876712 L18.4817284,33.8876712 C19.6571151,33.9174751 20.8268315,33.7074228 21.9259259,33.2691781 L21.6838272,32.5787671 C22.6986039,32.2384431 23.6829584,31.8052736 24.6255556,31.2842466 L23.9266667,31.0109589 M13.041358,31.3321918 L14.0782716,30.9678082 L13.7722222,29.9178082 C14.4409619,30.2682132 15.1361212,30.560072 15.8506173,30.790411 L15.3481481,32.2287671 C14.553039,32.008034 13.7804249,31.7061379 13.041358,31.3273973 M18.4634568,33.5328767 C17.4562088,33.5197998 16.4549328,33.3682824 15.4851852,33.0821918 L16.1018519,31.3321918 C16.8697633,31.5350116 17.6579339,31.6412373 18.4497531,31.6486301 L18.5,31.6486301 C19.2917985,31.6409208 20.0799336,31.5346999 20.8479012,31.3321918 L21.4691358,33.0821918 C20.4960486,33.3659799 19.491643,33.5142822 18.4817284,33.5232877 M21.5879012,32.2239726 L21.0854321,30.7856164 C21.799949,30.5553393 22.4951131,30.2634785 23.1638272,29.9130137 L22.8395062,30.9678082 L23.8764198,31.3321918 C23.1360756,31.711681 22.3618752,32.0135992 21.5650617,32.2335616" id="Shape" fill="#231F20"></path>
                            <path d="M18.4725926,3.68219178 C19.5036912,3.6533612 20.5156245,3.97823023 21.3549383,4.60753425 C21.4856072,3.8962293 21.7378629,3.21562333 22.0995062,2.59863014 L21.0625926,2.72328767 L20.5235802,1.51506849 L19.4820988,2.0760274 L18.4725926,1.03082192 L17.4676543,2.0760274 L16.4444444,1.51506849 L15.8825926,2.72328767 L14.845679,2.59863014 C15.2075036,3.21552877 15.4597724,3.89617046 15.5902469,4.60753425 C16.4298588,3.97886429 17.4415848,3.65406179 18.4725926,3.68219178 L18.4725926,3.68219178 Z M15.8369136,3.14520548 L16.1246914,3.17876712 L16.2480247,2.90547945 L16.6088889,2.09520548 L17.2803704,2.45958904 L17.5407407,2.59863014 L18.454321,1.63972603 L19.1851852,2.39726027 L19.3953086,2.6130137 L19.655679,2.4739726 L20.3225926,2.10958904 L20.6880247,2.91986301 L20.811358,3.19315068 L21.0991358,3.15958904 L21.3732099,3.1260274 C21.2625174,3.38953575 21.1679228,3.66017459 21.09,3.93630137 C19.4423129,3.05030758 17.4891686,3.05030758 15.8414815,3.93630137 C15.7631355,3.66032188 15.6685505,3.38971064 15.5582716,3.1260274 L15.8369136,3.14520548 Z" id="Shape" fill="#231F20"></path>
                            <path d="M33.5512346,17.8260274 C35.2139506,17.8260274 35.7712346,16.0520548 35.7940741,15.9753425 L35.9767901,15.3424658 L35.3555556,15.3424658 L35.3555556,15.3424658 C34.0421176,15.2956894 32.8152523,14.6430516 32.002716,13.5589041 L31.8748148,13.4246575 C31.0251852,12.2931507 30.2212346,11.2143836 28.7777778,10.7205479 C28.8350392,10.6677044 28.8961287,10.6196143 28.9604938,10.5767123 C29.6455066,10.1695946 30.1274988,9.46938077 30.2806173,8.65890411 C30.3580546,7.92766927 30.1614802,7.19349021 29.7324691,6.61164384 L29.275679,6.01232877 L28.9833333,6.71232877 C28.9833333,6.75547945 28.4762963,7.89657534 27.4530864,7.89657534 L27.3754321,7.89657534 L27.1744444,7.89657534 C27.2261762,7.13696862 26.9572594,6.39187732 26.4390123,5.85890411 C25.8224416,5.19860464 24.9765076,4.82994364 24.095679,4.83767123 C23.932057,4.83715974 23.768644,4.84998367 23.6069136,4.8760274 L22.9080247,5.01986301 L23.3374074,5.61438356 C23.6754321,6.09383562 23.9814815,6.92328767 23.6206173,7.36438356 C23.4479006,7.52254616 23.2499756,7.64751735 23.0359259,7.73356164 C22.57,7.97328767 21.9259259,8.28972603 21.9259259,9.10958904 C21.9259259,9.63219178 22.3141975,10.1787671 23.0130864,10.6438356 C25.0823457,12.010274 26.3567901,13.4342466 26.9095062,15.0068493 C27.7637037,17.4041096 26.6491358,18.8089041 25.5665432,19.5328767 L25.0823457,19.8589041 L25.5071605,20.2664384 C25.8860593,20.6053722 26.3546908,20.8145052 26.8501235,20.8657534 L27.2658025,20.8657534 C27.6897508,20.8672409 28.1115573,20.8026084 28.5174074,20.6739726 C28.416289,20.8595333 28.2985111,21.0345293 28.165679,21.1965753 C27.5499525,21.9482496 26.6376928,22.3588673 25.6944444,22.3089041 L25.2879012,22.3089041 L25.2559259,22.7356164 C25.2516947,23.3338333 25.5010933,23.9030546 25.9365432,24.2890411 C26.0505182,24.3938697 26.1781889,24.4810534 26.315679,24.5479452 C25.6407387,25.2381905 25.2546162,26.1815407 25.2422222,27.1705479 C25.2453197,27.7231756 25.1281436,28.2692483 24.8996296,28.7671233 L24.4428395,29.4863014 L25.2559259,29.4863014 C26.5958436,29.4863014 27.6220988,29.1011416 28.3346914,28.3308219 C28.7046041,27.9227299 28.9797355,27.4304895 29.138642,26.8924658 C29.4026743,27.1260026 29.7158041,27.2903349 30.0522222,27.3719178 C30.2125063,27.4106847 30.376504,27.4299894 30.5409877,27.4294521 C30.7871376,27.4287152 31.0323832,27.3981474 31.2718519,27.3383562 L31.7880247,27.1945205 L31.5596296,26.6863014 C31.2734736,25.8757892 31.2734736,24.9844848 31.5596296,24.1739726 C31.7290473,23.6444633 31.8468924,23.0982927 31.911358,22.5438356 C32.3227452,22.7639139 32.7789124,22.875798 33.2406173,22.869863 C33.9943912,22.8817628 34.7013488,22.4872197 35.1134568,21.8246575 L35.3646914,21.3452055 L34.9079012,21.1438356 C33.3776543,20.4773973 33.0396296,18.6890411 32.975679,17.7205479 C33.1262261,17.7525518 33.2789822,17.7717919 33.4324691,17.7780822 L33.5101235,17.7780822 M34.7206173,21.5657534 C34.3951202,22.0863223 33.8383425,22.3957106 33.2451852,22.3856164 L33.2451852,22.3856164 C32.5799117,22.4269947 31.9360832,22.1310111 31.5139506,21.589726 C31.5274268,22.4059509 31.4005399,23.2180358 31.1393827,23.9869863 C30.805803,24.9139294 30.805803,25.9367556 31.1393827,26.8636986 C30.9360858,26.9164547 30.7275621,26.9438133 30.5181481,26.9452055 C30.388836,26.9462032 30.2599194,26.9300946 30.1344444,26.8972603 C29.5285681,26.7465636 29.0407754,26.2763292 28.8462963,25.6554795 C28.8462963,25.6554795 28.9422222,28.9780822 25.251358,28.9780822 L25.2239506,28.9780822 C25.5039221,28.4246214 25.6483398,27.8067584 25.6441975,27.180137 C25.8177778,24.7157534 27.4119753,24.3753425 27.4119753,24.3753425 C26.9769705,24.3167624 26.5609523,24.1526055 26.1969136,23.8958904 C25.8642939,23.6026464 25.6692995,23.1723181 25.6624691,22.7164384 C26.73054,22.7647041 27.7607666,22.2964779 28.4580247,21.4458904 C28.8758655,20.943148 29.1581502,20.3323618 29.275679,19.6767123 C28.6868614,20.1392752 27.964121,20.3746433 27.2292593,20.3431507 L26.8546914,20.3431507 C26.4559583,20.3018328 26.0785112,20.1346713 25.7720988,19.8636986 C27.1790123,18.9047945 28.165679,17.2650685 27.288642,14.7815068 C26.5897531,12.7917808 24.9041975,11.3006849 23.2095062,10.1787671 C22.6841975,9.86232877 22.382716,9.45 22.382716,9.10958904 C22.382716,8.27534247 23.5109877,8.25136986 23.9723457,7.67123288 C24.5067901,7.01917808 24.1733333,5.96917808 23.7074074,5.33150685 C23.8401611,5.30762192 23.974701,5.29638895 24.1093827,5.29794521 C24.8703859,5.2896134 25.6015208,5.60835597 26.132963,6.18013699 C26.6693082,6.71733227 26.8769867,7.52275617 26.6719753,8.27054795 L26.918642,8.32328767 C27.0694296,8.35213409 27.2221882,8.36816782 27.3754321,8.37123288 L27.4759259,8.37123288 C28.814321,8.37123288 29.412716,6.90410959 29.412716,6.90410959 C29.412716,6.90410959 30.8333333,8.74041096 28.7412346,10.1787671 C28.3803704,10.4232877 28.2204938,10.6582192 28.2844444,10.8979452 L28.3164198,11.0561644 L28.4671605,11.0849315 C29.9837037,11.5164384 30.7511111,12.6143836 31.6920988,13.8657534 C32.577902,15.0437074 33.9088451,15.7579492 35.337284,15.8219178 L35.3646914,15.8219178 C35.3646914,15.8219178 34.9079012,17.3465753 33.5375309,17.3465753 L33.4735802,17.3465753 C33.141727,17.3497455 32.8156922,17.2550564 32.5325926,17.0732877 C32.5325926,17.0732877 32.2904938,20.5349315 34.7525926,21.6041096" id="Shape" fill="#231F20"></path>
                            <path d="M30.6277778,10.9123288 C31.1385106,11.2178257 31.5808851,11.6347339 31.9250617,12.1349315 C32.184164,12.5575741 32.5558482,12.8910133 32.9939506,13.0938356 C33.1602929,13.1522992 33.3347077,13.1814605 33.5101235,13.180137 C34.2119499,13.1807745 34.8546095,12.7675244 35.1728395,12.1109589 L35.4332099,11.5068493 L34.7891358,11.4684932 C34.0982966,11.3374116 33.4711387,10.9617397 33.0122222,10.4041096 C32.6697341,10.013809 32.1884883,9.78988935 31.682963,9.78561644 C31.2936189,9.79291995 30.9139438,9.91413379 30.5866667,10.1356164 L29.9928395,10.5479452 L30.6277778,10.9075342 M31.682963,10.2267123 C32.0687641,10.2302449 32.4352733,10.4043138 32.6924691,10.7061644 C33.229393,11.3457306 33.96041,11.7708701 34.7617284,11.909589 C34.5133317,12.3932656 34.0336073,12.6964827 33.5101235,12.7006849 C33.3825722,12.7004237 33.2559639,12.6777353 33.1355556,12.6335616 C32.4001235,12.3746575 32.1351852,11.1952055 30.8516049,10.490411 C31.1024877,10.3205202 31.3935817,10.2275311 31.6920988,10.2219178" id="Shape" fill="#231F20"></path>
                            <path d="M30.9201235,17.0780822 L30.9201235,17.0780822 C30.5455556,13.9184932 28.3620988,11.6363014 25.9274074,10.2506849 C25.7035802,10.1260274 25.4934568,10.0157534 25.2924691,9.91506849 C26.2965105,10.1289648 27.3394643,9.87149231 28.1474074,9.21027397 C28.1474074,9.21027397 26.7404938,10.2986301 23.8535802,9.3109589 C24.652963,9.85273973 26.2014815,10.6246575 27.6220988,11.8664384 C31.1622222,15.1315068 28.6316049,18.319863 28.6316049,18.319863 C29.6879226,17.2638983 30.059335,15.6576879 29.5817284,14.2109589 C30.3327705,15.526087 30.6893045,17.048035 30.6049383,18.5787671 C30.5090123,21.0910959 29.1934568,23.2582192 27.8093827,25.0034247 C27.3961451,25.5544084 27.1170643,26.2027959 26.9962963,26.8924658 C27.2287827,26.2101241 27.580428,25.5792551 28.0332099,25.0321918 C29.5177778,23.210274 30.7739506,21.3164384 30.9520988,18.5931507 C31.1028395,19.0726027 31.7377778,20.4630137 32.7381481,20.990411 C32.7381481,20.990411 31.4774074,20.1945205 30.9109877,17.0924658" id="Shape" fill="#231F20"></path>
                            <path d="M12.0455556,28.7671233 C11.8238069,28.2769929 11.7068771,27.7418862 11.702963,27.1993151 C11.690569,26.2103079 11.3044465,25.2669576 10.6295062,24.5767123 C10.7672448,24.5102929 10.8949777,24.4230667 11.008642,24.3178082 C11.4446122,23.9322373 11.6941297,23.3627445 11.6892593,22.7643836 L11.6618519,22.3376712 L11.2507407,22.3376712 C10.3090644,22.3861291 9.39879776,21.9756497 8.78407407,21.2253425 C8.65181388,21.0628288 8.53407515,20.887891 8.43234568,20.7027397 C8.83665711,20.8312529 9.25694064,20.895888 9.67938272,20.8945205 L10.0950617,20.8945205 C10.5881371,20.8283204 11.0502541,20.6058695 11.4197531,20.2568493 L11.8765432,19.8493151 L11.3923457,19.5232877 C10.3097531,18.7945205 9.19975309,17.4136986 10.0493827,14.9972603 C10.6020988,13.4246575 11.8765432,12.0006849 13.9503704,10.6342466 C14.6492593,10.1547945 15.032963,9.62260274 15.032963,9.1 C15.032963,8.29452055 14.3934568,7.97808219 13.922963,7.74794521 C13.7087865,7.66217387 13.5108179,7.53717511 13.3382716,7.37876712 C12.9728395,6.93767123 13.2788889,6.0890411 13.6169136,5.62876712 L14.0737037,5.03424658 L13.3702469,4.89041096 C13.2100747,4.86414532 13.048163,4.85131933 12.8860494,4.85205479 C11.9931676,4.83195873 11.1320102,5.19975656 10.5061728,5.86849315 C9.98792579,6.40146636 9.71900897,7.14655766 9.77074074,7.90616438 L9.56975309,7.90616438 L9.49666667,7.90616438 C8.46888889,7.90616438 7.98469136,6.76506849 7.96641975,6.72191781 L7.67864198,6.00753425 L7.22185185,6.60684932 C6.79576595,7.19008433 6.60099676,7.9236342 6.6782716,8.65410959 C6.8313901,9.46458625 7.31338232,10.1648 7.99839506,10.5719178 C8.06300752,10.614443 8.12412508,10.6625552 8.18111111,10.7157534 C6.73765432,11.1952055 5.9337037,12.2883562 5.08407407,13.419863 L4.96074074,13.5828767 C4.14677989,14.6677611 2.91822878,15.3204065 1.60333333,15.3664384 L0.96382716,15.3424658 L1.15567901,15.9705479 C1.15567901,16.0472603 1.73123457,17.8212329 3.39395062,17.8212329 L3.47617284,17.8212329 C3.62964126,17.8146993 3.78237895,17.7954614 3.93296296,17.7636986 C3.86444444,18.7226027 3.52641975,20.5205479 1.99617284,21.1869863 L1.53938272,21.3883562 L1.79061728,21.8678082 C2.20418246,22.5219884 2.90641531,22.9103962 3.65432099,22.8986301 C4.11446502,22.903598 4.56893464,22.7917459 4.97901235,22.5726027 C5.04310393,23.127128 5.16095757,23.673338 5.33074074,24.2027397 C5.61689682,25.0132519 5.61689682,25.9045563 5.33074074,26.7150685 L5.10234568,27.2232877 L5.62308642,27.3671233 C5.8625551,27.4269145 6.1078007,27.4574823 6.35395062,27.4582192 C6.51844311,27.4589275 6.68245945,27.4396205 6.84271605,27.4006849 C7.17925364,27.3194508 7.49245813,27.1550793 7.7562963,26.9212329 C7.91505092,27.459327 8.19020159,27.9516018 8.56024691,28.359589 C9.27283951,29.1299087 10.2990947,29.5150685 11.6390123,29.5150685 L12.4520988,29.5150685 L11.9953086,28.7958904 L12.0455556,28.7671233 Z M11.6024691,29.059589 C7.91160494,29.059589 8.00753086,25.7369863 8.00753086,25.7369863 C7.81305175,26.357836 7.32525907,26.8280704 6.71938272,26.9787671 C6.59394341,27.0118048 6.46500204,27.0279165 6.33567901,27.0267123 C6.12778301,27.0251218 5.92079359,26.9977633 5.71901235,26.9452055 C6.05175424,26.0181021 6.05175424,24.9955966 5.71901235,24.0684932 C5.45960298,23.2991906 5.33427053,22.4871513 5.34901235,21.6712329 C4.92871418,22.1894364 4.3016959,22.4714902 3.65432099,22.4335616 L3.65432099,22.4335616 C3.06137067,22.442751 2.50498248,22.1335791 2.17888889,21.6136986 C4.63641975,20.539726 4.39888889,17.0828767 4.39888889,17.0828767 C4.11578926,17.2646454 3.78975452,17.3593345 3.45790123,17.3561644 L3.39395062,17.3561644 C2.02358025,17.3561644 1.56679012,15.8315068 1.56679012,15.8315068 L1.59419753,15.8315068 C3.03811703,15.7794685 4.38677088,15.0620398 5.28049383,13.8705479 C6.21691358,12.6191781 6.98888889,11.5212329 8.5054321,11.089726 L8.65617284,11.0609589 L8.68814815,10.9027397 C8.72925926,10.6582192 8.57395062,10.4232877 8.23135802,10.1835616 C6.13469136,8.74520548 7.55987654,6.90890411 7.55987654,6.90890411 C7.55987654,6.90890411 8.1537037,8.3760274 9.49666667,8.3760274 L9.59259259,8.3760274 C9.7458202,8.37267744 9.89855731,8.35664599 10.0493827,8.32808219 L10.2960494,8.27534247 C10.0899658,7.52756002 10.2977951,6.72155113 10.8350617,6.18493151 C11.3665039,5.61315049 12.0976388,5.29440792 12.858642,5.30273973 C12.9933306,5.30097024 13.1278889,5.31220475 13.2606173,5.33630137 C12.8038272,5.96917808 12.4658025,7.0239726 13.0002469,7.6760274 C13.457037,8.23219178 14.5898765,8.2609589 14.5898765,9.11438356 C14.5898765,9.46917808 14.2746914,9.88150685 13.7128395,10.2506849 C12.0181481,11.3726027 10.3325926,12.8589041 9.6337037,14.8534247 C8.76123457,17.3369863 9.74790123,18.9910959 11.1548148,19.9356164 C10.8481013,20.206073 10.4708131,20.3731641 10.0722222,20.4150685 L9.69308642,20.4150685 C8.95792865,20.4489517 8.23443913,20.2133396 7.64666667,19.7486301 C7.76392773,20.4034296 8.04448731,21.0138935 8.45975309,21.5178082 C9.15925444,22.3679855 10.190609,22.8359596 11.2598765,22.7883562 C11.2520961,23.2474713 11.0535232,23.6800832 10.7162963,23.9726027 C10.3509132,24.2300122 9.93325615,24.3941985 9.49666667,24.4520548 C9.49666667,24.4520548 11.0862963,24.7924658 11.2644444,27.2568493 C11.258902,27.8845892 11.401722,28.5039789 11.6801235,29.059589 L11.6024691,29.059589 Z" id="Shape" fill="#231F20"></path>
                            <path d="M3.43506173,13.1753425 C3.61047114,13.176578 3.78487227,13.147419 3.95123457,13.0890411 C4.38948193,12.8864607 4.7612263,12.5529675 5.02012346,12.130137 C5.36430004,11.6299394 5.80667461,11.2130312 6.31740741,10.9075342 L6.95691358,10.5479452 L6.36308642,10.1116438 C6.03553481,9.89138378 5.65576395,9.77180025 5.26679012,9.76643836 C4.7612648,9.77071126 4.28001898,9.9946309 3.93753086,10.3849315 C3.47814007,10.9419562 2.85120114,11.3174969 2.16061728,11.4493151 L1.51654321,11.5068493 L1.78148148,12.1253425 C2.09947276,12.7769786 2.73752923,13.1876855 3.43506173,13.189726 M4.25271605,10.730137 C4.51097821,10.4270543 4.8793941,10.252868 5.26679012,10.2506849 C5.56526908,10.2565511 5.85629861,10.3495196 6.10728395,10.5191781 C4.8145679,11.2431507 4.54962963,12.4034247 3.82333333,12.6623288 C3.70305836,12.7070423 3.57636151,12.7297466 3.44876543,12.7294521 C2.92664559,12.7245396 2.44859829,12.4212758 2.2017284,11.9383562 C3.00165742,11.7993485 3.73114009,11.3741627 4.26641975,10.7349315" id="Shape" fill="#231F20"></path>
                            <path d="M6.33567901,18.5787671 C6.25727015,17.0549511 6.61693769,15.5415659 7.36802469,14.2349315 C6.89041808,15.6816605 7.26183052,17.2878709 8.31814815,18.3438356 C8.31814815,18.3438356 5.78296296,15.1554795 9.32765432,11.890411 C10.7437037,10.6486301 12.2967901,9.88150685 13.0916049,9.33493151 C10.2092593,10.3226027 8.79777778,9.23424658 8.79777778,9.23424658 C9.6043159,9.8946671 10.645558,10.152129 11.6481481,9.9390411 C11.4471605,10.039726 11.237037,10.15 11.0132099,10.2746575 C8.58308642,11.660274 6.39506173,13.9424658 6.02506173,17.1020548 L6.02506173,17.1020548 C5.45864198,20.2041096 4.19790123,21 4.19790123,21 C5.1982716,20.4821918 5.82864198,19.1061644 5.98395062,18.6027397 C6.15296296,21.3308219 7.4182716,23.219863 8.90283951,25.0417808 C9.35647079,25.5890449 9.70958892,26.2197776 9.94432099,26.9020548 C9.82631778,26.2094567 9.54875077,25.5576509 9.13580247,25.0034247 C7.7654321,23.2582192 6.44074074,21.0863014 6.34481481,18.5787671" id="Shape" fill="#231F20"></path>
                            <path d="M17.6412346,12.1828767 L17.6412346,12.8109589 C17.8014021,12.6484055 18.0231415,12.5708255 18.2441975,12.6 L18.2441975,13.5013699 C18.2408432,13.7249858 18.184317,13.9441793 18.0797531,14.1390411 L18.9430864,14.1390411 C18.8392327,13.9438749 18.7827558,13.7248727 18.778642,13.5013699 L18.778642,12.6 C18.999698,12.5708255 19.2214374,12.6484055 19.3816049,12.8109589 L19.3816049,12.1828767 L17.6412346,12.1828767" id="Shape" fill="#231F20"></path>
                            <path d="M17.2712346,8.46712329 C17.4052647,8.58831209 17.5603827,8.68111584 17.7280247,8.74041096 L17.8376543,8.79315068 L17.8376543,8.20342466 L16.8281481,7.75753425 C16.8773079,8.05275022 17.0432745,8.31230877 17.2849383,8.47191781" id="Shape" fill="#231F20"></path>
                            <path d="M19.6739506,8.46712329 C19.9156144,8.30751425 20.0815809,8.0479557 20.1307407,7.75273973 L19.1212346,8.19863014 L19.1212346,8.78835616 L19.2262963,8.73561644 C19.3942773,8.67711729 19.5495361,8.58422931 19.6830864,8.46232877" id="Shape" fill="#231F20"></path>
                            <path d="M21.4965432,6.06506849 C21.4965432,5.16849315 20.0622222,4.3630137 18.4771605,4.3630137 L18.4771605,4.3630137 C16.8920988,4.3630137 15.4577778,5.16849315 15.4577778,6.06506849 L15.4897531,6.28561644 L16.1246914,10.1212329 L15.4897531,10.509589 L13.8316049,11.5068493 L13.8316049,11.5068493 C13.8316049,11.5068493 13.4616049,11.7082192 13.2925926,11.8280822 C12.6667901,12.3075342 12.534321,12.95 12.8951852,13.2280822 C12.9792301,12.5674852 13.525838,12.0807503 14.1604938,12.1013699 C14.6863073,12.1162628 15.1736035,12.3942753 15.4714815,12.8493151 C15.56089,12.9652367 15.6432744,13.0869374 15.7181481,13.2136986 C15.8140741,13.3767123 15.91,13.5205479 16.0059259,13.659589 L11.7760494,13.659589 C12.1318785,14.3037307 12.3398834,15.0260066 12.3835802,15.7691781 L12.3835802,25.6075342 C12.3835802,28.0047945 14.1285185,29.1267123 16.0379012,29.1267123 C17.4950617,29.1267123 17.6914815,29.0547945 18.5,29.8986301 C19.2993827,29.0547945 19.5003704,29.1267123 20.9575309,29.1267123 C22.8440741,29.1267123 24.5890123,27.990411 24.5890123,25.6075342 L24.5890123,15.7691781 C24.6327092,15.0260066 24.8407141,14.3037307 25.1965432,13.659589 L20.9346914,13.659589 C21.0306173,13.5205479 21.1265432,13.3767123 21.2179012,13.2136986 C21.2953268,13.0875727 21.3791941,12.9659339 21.4691358,12.8493151 C21.7684648,12.3935272 22.2574491,12.1155203 22.7846914,12.1013699 C23.4140547,12.0820782 23.9576754,12.5599734 24.05,13.2136986 C24.4154321,12.940411 24.282963,12.2547945 23.6525926,11.8136986 C23.4835802,11.6890411 23.1135802,11.4924658 23.1135802,11.4924658 L23.1135802,11.4924658 L21.4691358,10.4856164 L20.8341975,10.0972603 L21.4691358,6.26164384 L21.5011111,6.04109589 L21.4965432,6.06506849 Z M16.0744444,6.48219178 L18.2990123,7.27328767 L18.2990123,10.9410959 L16.6545679,10.0684932 L16.0744444,6.48219178 Z M16.5312346,14.2732877 C16.8301283,14.6006721 17.1932994,14.8558884 17.5955556,15.0212329 C17.5100335,15.3385615 17.5309983,15.6770989 17.6549383,15.980137 C17.8038907,16.300469 18.063645,16.5491039 18.3812346,16.6753425 C18.4418757,17.2244975 18.7970118,17.6885773 19.2948148,17.8691781 C19.0207407,18.1616438 18.7512346,18.4349315 18.6416049,18.5452055 L16.092716,18.5020548 C16.00809,18.4597286 15.9379199,18.3910989 15.8917284,18.3054795 L15.8917284,18.2719178 L16.3074074,18.3438356 L16.3348148,18.3438356 C16.3896343,18.3253004 16.4312203,18.2780139 16.4444444,18.2191781 C16.4582754,18.1241744 16.3975137,18.0348878 16.3074074,18.0178082 L15.7958025,17.9315068 L16.3622222,15.8746575 L15.8232099,14.6856164 L14.9598765,15.6445205 L14.9050617,17.7828767 L14.3249383,17.6869863 C14.2812426,17.6786861 14.2362061,17.6892868 14.2000719,17.7163774 C14.1639377,17.743468 14.1397775,17.7847456 14.1330864,17.8308219 C14.1192554,17.9258256 14.1800172,18.0151122 14.2701235,18.0321918 L14.5122222,18.0705479 C14.4254321,18.1232877 14.3660494,18.1616438 14.3614815,18.1712329 L14.3112346,18.209589 L14.3112346,18.2719178 C14.1969731,18.8173928 14.4014192,19.3821007 14.8319753,19.710274 L14.8319753,19.7869863 C14.8044843,19.9759315 14.9264935,20.1530842 15.1060494,20.1849315 L15.1608642,20.1849315 C15.3128965,20.1840378 15.4439318,20.0724142 15.4760494,19.9164384 C15.5840673,19.9229513 15.6923524,19.9229513 15.8003704,19.9164384 L15.8688889,19.9164384 L19.2125926,20.5493151 L19.2719753,20.5109589 C19.5369136,20.3143836 20.5555556,19.5520548 20.8890123,19.2787671 C20.9856676,19.3670342 21.093221,19.4412185 21.2087654,19.4993151 C21.0524174,20.0022406 21.1717135,20.5546574 21.5193827,20.9376712 L12.9911111,20.9376712 L12.9911111,15.7691781 C12.9715862,15.2651192 12.8680011,14.7685583 12.6850617,14.3020548 L16.5312346,14.2732877 Z M20.6423457,18.9958904 C20.304321,19.259589 19.4318519,19.9260274 19.1166667,20.1561644 L16.0790123,19.5808219 L16.0790123,19.4945205 C16.131345,19.2798094 16.1589497,19.0592842 16.1612346,18.8376712 L18.7146914,18.8808219 L18.7649383,18.8280822 C18.8014815,18.789726 19.6145679,17.9650685 20.025679,17.4952055 C20.1334602,17.6368084 20.2631719,17.7583682 20.4093827,17.8547945 C20.3386836,18.2484486 20.4156011,18.6555517 20.6240741,18.9910959 L20.6423457,18.9958904 Z M15.5765432,18.4732877 C15.6430868,18.6084757 15.7443563,18.7214126 15.8688889,18.7993151 C15.8649169,18.9938896 15.8465904,19.1878488 15.8140741,19.3794521 C15.8140741,19.4273973 15.8140741,19.4657534 15.7820988,19.5089041 L15.7820988,19.5760274 C15.57427,19.5767467 15.3676553,19.5427603 15.17,19.4753425 C14.7875295,19.2814806 14.5652359,18.8534025 14.617284,18.4109589 C14.793292,18.2954724 14.9946361,18.2294308 15.2019753,18.2191781 C15.3692597,18.2133478 15.5208432,18.322004 15.5765432,18.4876712 L15.5765432,18.4732877 Z M15.2567901,17.8356164 L15.307037,15.7787671 L15.7638272,15.2993151 L16.0379012,15.9034247 L15.494321,17.8739726 L15.2567901,17.8356164 Z M20.6377778,28.4890411 L20.1809877,28.4890411 L20.5555556,27.3287671 C20.6103704,27.1657534 20.3271605,26.9547945 20.2083951,26.7678082 C20.4882293,26.9429097 20.7763805,27.1029344 21.0717284,27.2472603 C21.0717284,27.2856164 20.6514815,28.5034247 20.6514815,28.5034247 L20.6377778,28.4890411 Z M21.7888889,27.1609589 L21.551358,28.4554795 C21.3998519,28.4776335 21.2474081,28.4920341 21.0945679,28.4986301 L21.3458025,27.2568493 C21.4188889,26.8876712 20.4733333,26.7773973 20.0074074,26.0438356 C19.70463,26.3092488 19.3127353,26.4354152 18.9202469,26.3938356 C18.5749804,26.3892881 18.2308812,26.3507633 17.8924691,26.2787671 C17.8346949,26.2740886 17.7766631,26.2740886 17.7188889,26.2787671 C17.5754107,26.267968 17.4387154,26.3443649 17.3671605,26.4753425 L17.298642,26.5952055 L15.9876543,26.2452055 L15.6679012,26.8013699 C15.6175591,26.8794683 15.627143,26.9840858 15.6907407,27.0506849 L15.7775309,27.1513699 C15.6926025,27.3283448 15.5816088,27.4901506 15.448642,27.6308219 L15.2567901,27.3815068 C15.1121095,27.1307071 15.1247087,26.8133249 15.2887654,26.5760274 L15.8003704,25.669863 L16.8920988,25.8328767 L16.7230864,25.4253425 C16.4946914,24.8883562 16.8418519,24.2075342 16.8783951,23.8143836 C16.8783951,23.9342466 16.7596296,23.9582192 16.6408642,23.9582192 L16.325679,23.9582192 C16.3017661,23.9512746 16.2765055,23.9512746 16.2525926,23.9582192 L15.955679,24.1452055 L15.722716,23.9294521 C15.6873229,23.859523 15.7003704,23.7734414 15.7546914,23.7184932 L16.2937037,23.0808219 L15.6541975,22.2993151 L16.5677778,22.7787671 L16.8418519,22.4335616 C16.9149383,22.510274 16.882963,22.7116438 16.882963,22.7116438 C17.5431145,22.8861529 18.0001737,23.5171729 17.9838272,24.2315068 L17.9838272,24.3369863 L17.9838272,24.3705479 C18.0745767,24.5229813 18.2190756,24.6315616 18.3858025,24.6726027 L19.6191358,24.8020548 L19.6191358,24.8020548 C19.8636226,24.7229525 20.1143193,24.6667959 20.3682716,24.6342466 C20.5891023,24.6353468 20.8048921,24.7036285 20.9895062,24.8308219 C21.0772105,24.7680262 21.1802898,24.7330715 21.2864198,24.730137 L21.3275309,24.730137 C21.8802469,24.730137 22.1132099,25.2575342 22.4101235,25.6890411 C22.6339506,26.019863 22.9308642,26.5136986 22.9308642,26.5136986 C22.8459315,26.6490698 22.7015851,26.7302346 22.5471605,26.7294521 C22.4940038,26.7350921 22.4404407,26.7350921 22.387284,26.7294521 C21.7934568,26.6143836 21.7066667,25.3342466 21.368642,25.2335616 L21.3138272,25.2335616 C21.2486495,25.2356308 21.1894623,25.2740013 21.1585185,25.3342466 C21.3138272,25.7705479 21.2224691,25.9479452 21.3914815,26.2931507 C21.5160083,26.5003598 21.6700607,26.6863091 21.8482716,26.8445205 C21.8482716,26.8445205 21.8254321,27.0363014 21.7980247,27.1753425 L21.7888889,27.1609589 Z M15.1380247,25.9239726 L15.1974074,26.0726027 C15.1608642,26.2020548 14.7406173,26.3890411 14.7406173,26.3890411 L14.617284,26.1780822 C14.4975583,25.8787766 14.5880871,25.5323496 14.8365432,25.3390411 L15.5308642,24.8931507 L16.2662963,25.0561644 C16.2622795,25.2094104 16.3073112,25.3596482 16.3941975,25.4828767 L15.6222222,25.3294521 L15.1654321,25.6650685 C15.0911131,25.7275201 15.0716687,25.8377291 15.1197531,25.9239726 L15.1380247,25.9239726 Z M21.8711111,28.3691781 L22.0812346,27.2089041 C22.0812346,27.1417808 22.1040741,27.060274 22.1132099,26.9931507 C22.174859,27.0210509 22.2391759,27.0419461 22.3050617,27.0554795 C22.3779894,27.062631 22.4513934,27.062631 22.524321,27.0554795 C22.7749672,27.0558693 23.0114458,26.9335369 23.1638272,26.7246575 L23.3237037,26.5280822 L23.1912346,26.3075342 C23.1912346,26.3075342 22.8851852,25.7993151 22.661358,25.4636986 L22.5334568,25.2623288 C22.3116356,24.7492866 21.8439223,24.4012483 21.3092593,24.3513699 L21.2498765,24.3513699 C21.1667148,24.3734666 21.0868046,24.407339 21.0123457,24.4520548 C20.8156274,24.3525834 20.6003264,24.3001817 20.3819753,24.2986301 C20.1634101,24.3039472 19.9472426,24.3477049 19.7424691,24.4280822 L19.6328395,24.4616438 L18.4269136,24.3369863 C18.378198,24.3129501 18.3358479,24.2767306 18.3035802,24.2315068 L18.3035802,24.2315068 L18.5639506,24.1212329 C18.4908642,23.210274 17.6503704,22.6493151 17.1935802,22.4575342 C17.1731453,22.3589687 17.1254795,22.2689137 17.0565432,22.1986301 L16.7961728,21.939726 L16.5677778,22.2273973 L16.4535802,22.3712329 L14.7634568,21.6424658 L15.8597531,23.0808219 L15.4258025,23.7712329 C15.3806093,23.8180754 15.355172,23.8819643 15.355172,23.9486301 C15.355172,24.0152959 15.3806093,24.0791849 15.4258025,24.1260274 L15.8825926,24.4520548 L16.3393827,24.269863 L16.3850617,24.269863 C16.3622222,24.3417808 16.3348148,24.6342466 16.3119753,24.7157534 L15.5308642,24.5527397 L14.6858025,25.0321918 C14.3037442,25.3206497 14.1649151,25.8496208 14.3523457,26.3027397 L14.4482716,26.5184932 L14.5807407,26.8205479 L14.8776543,26.6910959 L14.8776543,26.6910959 C14.766126,27.0005566 14.8144699,27.3485038 15.0055556,27.6116438 L15.1837037,27.8513699 L15.4212346,28.1678082 L15.6816049,27.8705479 C15.8546318,27.6908308 15.9927092,27.4775104 16.0881481,27.2424658 L16.1475309,27.0506849 L16.0196296,26.9020548 L16.0196296,26.8732877 L16.1658025,26.6239726 L17.2164198,26.8828767 L17.4539506,26.940411 L17.577284,26.719863 L17.6458025,26.6 C17.6458025,26.5760274 17.6458025,26.5712329 17.7097531,26.5712329 C17.7476975,26.5667192 17.7860062,26.5667192 17.8239506,26.5712329 C18.1820556,26.6461863 18.5459839,26.6863106 18.9111111,26.6910959 C19.1564101,26.7051393 19.4021679,26.6743151 19.6374074,26.6 L20.1946914,27.3287671 L19.8475309,28.4506849 L19.8475309,28.5178082 C19.3291196,28.5074968 18.8309466,28.7288527 18.4771605,29.1267123 C17.9198765,28.5417808 17.5224691,28.4842466 16.0150617,28.4842466 C14.2153086,28.4842466 12.995679,27.3767123 12.995679,25.6075342 L12.995679,21.2924658 L23.958642,21.2924658 L23.958642,25.6075342 C24.0105901,26.9355861 23.1352917,28.1063481 21.8939506,28.3691781 L21.8711111,28.3691781 Z M24.2646914,14.2972603 C24.0799964,14.7631858 23.9763418,15.2600798 23.958642,15.7643836 L23.958642,18.9910959 C23.5593561,18.902122 23.2647512,18.5459311 23.2369136,18.1184932 L23.2369136,17.969863 L23.0998765,17.969863 C22.8637529,17.9480739 22.6431041,17.8373849 22.478642,17.6582192 C22.2716478,17.4166622 22.1534265,17.1055962 22.1451852,16.7808219 C21.9490572,17.1170608 21.9689914,17.545034 22.1954321,17.859589 C22.3727738,18.0972169 22.6319743,18.2521877 22.9171605,18.2910959 C22.9981139,18.8461589 23.4190005,19.2781525 23.9495062,19.3506849 L23.9495062,20.9328767 L22.0583951,20.9328767 C21.5562581,20.6668022 21.341251,20.0340718 21.5696296,19.4945205 L21.642716,19.3267123 L21.4691358,19.2452055 C20.9214341,19.0431129 20.624577,18.4220634 20.7976543,17.840411 L20.8341975,17.6965753 L20.7062963,17.6342466 C20.2270622,17.3407226 19.9637569,16.7728428 20.0393827,16.1958904 C19.7772208,16.4659182 19.7124787,16.8833503 19.8795062,17.2267123 C19.7881481,17.3321918 19.6693827,17.4664384 19.5369136,17.6054795 C19.0767683,17.4863077 18.74714,17.0621383 18.7283951,16.5650685 L18.7283951,16.4452055 L18.6233333,16.4020548 C18.3469516,16.3157108 18.1160267,16.1148805 17.9838272,15.8458904 C17.8957331,15.6241642 17.8796795,15.3781532 17.9381481,15.1458904 C18.0283313,15.1685498 18.1199122,15.1845705 18.2122222,15.1938356 L18.4908642,15.1938356 L18.4908642,15.1938356 L18.7695062,15.1938356 C19.4056531,15.1129352 19.9935221,14.7967691 20.4276543,14.3020548 L24.2646914,14.2972603 Z M21.3046914,11.0273973 L22.0538272,11.5068493 L22.0538272,11.5068493 L22.2411111,11.6219178 C21.8524759,11.7329005 21.5001987,11.9534264 21.2224691,12.259589 L21.1904938,12.2883562 C21.1265432,12.3554795 21.0671605,12.4321918 21.0077778,12.5089041 L20.9712346,12.5568493 C20.9118519,12.6335616 20.857037,12.7150685 20.8067901,12.7965753 L20.7793827,12.839726 C20.72,12.9356164 20.6560494,13.0410959 20.5966667,13.1465753 C20.1823671,14.0130499 19.3735693,14.5958928 18.454321,14.690411 C17.5367558,14.5943201 16.7299947,14.0117027 16.3165432,13.1465753 C16.2571605,13.0410959 16.1977778,12.940411 16.1383951,12.8445205 L16.1018519,12.7917808 L15.9419753,12.5568493 L15.9008642,12.5041096 C15.8414815,12.4273973 15.7820988,12.3554795 15.722716,12.2883562 L15.6907407,12.2547945 C15.4124558,11.9503833 15.0602306,11.7315477 14.6720988,11.6219178 L14.8639506,11.5068493 L14.8639506,11.5068493 L15.6130864,11.0273973 L16.3804938,10.5479452 L18.4360494,11.7226027 L18.4360494,11.7226027 L20.5555556,10.5767123 L21.3046914,11.0273973 Z M20.2906173,10.0684932 L18.6507407,10.9746575 L18.6507407,7.30205479 L20.8753086,6.5109589 L20.2906173,10.0684932 Z M18.4634568,6.90410959 L16.0333333,5.88767123 C16.2388889,5.37465753 17.1981481,4.92876712 18.4725926,4.92876712 C19.747037,4.92876712 20.7017284,5.36986301 20.9118519,5.88767123 L18.4634568,6.90410959 Z" id="Shape" fill="#231F20"></path>
                        </g>
                    </g>
                </g>
            </g>
        </g>
    </g>
</svg>