<?xml version="1.0" encoding="UTF-8"?>
<svg width="36px" height="30px" viewBox="0 0 36 30" version="1.1" xmlns="http://www.w3.org/2000/svg" xmlns:xlink="http://www.w3.org/1999/xlink">
    <!-- Generator: Sketch 41 (35326) - http://www.bohemiancoding.com/sketch -->
    <title>Shape</title>
    <desc>Created with Sketch.</desc>
    <defs></defs>
    <g id="Page-1" stroke="none" stroke-width="1" fill="none" fill-rule="evenodd">
        <g id="Icons" transform="translate(-311.000000, -330.000000)" fill="#EF3E35">
            <g id="Отдаете-Copy" transform="translate(53.000000, -327.000000)">
                <g id="Webmoney-USD-Copy" transform="translate(258.000000, 657.000000)">
                    <path d="M27.18,14.65 L4.9,14.65 C5.25191351,15.7904846 5.7386895,16.8848913 6.35,17.91 L26.18,17.91 C28.7194411,20.0951551 30.646003,22.9040065 31.77,26.06 L10.93,26.06 C7.3043014,23.0900927 4.62751852,19.1235871 3.23,14.65 C3.41,14.1 3.61,13.56 3.83,13.02 L27.17,13.02 C28.4806135,12.054586 29.6961215,10.9663212 30.8,9.77 L5.46,9.77 C5.8,9.21 6.15,8.67 6.53,8.14 L32.13,8.14 C32.8578416,7.09206992 33.5255833,6.00365091 34.13,4.88 L9.36,4.88 C9.95443862,4.30438113 10.5786275,3.76030206 11.23,3.25 L34.92,3.25 C35.3400754,2.18756363 35.7006341,1.10254905 36,0 L10.3,0 C5.2901362,3.55955422 1.65414452,8.73113461 0,14.65 C1.65690156,20.5675758 5.28782969,25.7405016 10.29,29.31 L36,29.31 C36,29.31 35.55,21.51 27.22,14.65" id="Shape"></path>
                </g>
            </g>
        </g>
    </g>
</svg>