<?xml version="1.0" encoding="UTF-8"?>
<svg width="37px" height="38px" viewBox="0 0 37 38" version="1.1" xmlns="http://www.w3.org/2000/svg" xmlns:xlink="http://www.w3.org/1999/xlink">
    <!-- Generator: Sketch 41 (35326) - http://www.bohemiancoding.com/sketch -->
    <title>Webmoney</title>
    <desc>Created with Sketch.</desc>
    <defs></defs>
    <g id="Symbols" stroke="none" stroke-width="1" fill="none" fill-rule="evenodd">
        <g id="Webmoney" fill="#419EF5">
            <path d="M18.3666667,0.633333333 C21.66,0.633333333 24.4466667,1.39333333 27.1066667,2.66 C27.6133333,2.91333333 27.74,3.04 27.2333333,3.54666667 C26.0933333,4.56 26.0933333,4.56 24.9533333,3.42 C23.4333333,1.9 23.4333333,1.9 21.9133333,3.29333333 C21.28,3.8 20.52,4.43333333 20.0133333,5.06666667 C19.38,5.95333333 19,5.7 18.4933333,5.06666667 C18.1133333,4.56 17.48,4.05333333 17.1,3.54666667 C16.8466667,3.16666667 16.5933333,3.29333333 16.34,3.54666667 C13.9333333,5.7 11.6533333,7.85333333 9.24666667,9.88 C8.74,10.26 8.99333333,10.5133333 9.37333333,10.7666667 C10.7666667,12.2866667 12.16,13.8066667 13.5533333,15.3266667 C13.9333333,15.7066667 13.9333333,15.96 13.5533333,16.34 C12.0333333,17.7333333 12.0333333,17.7333333 13.4266667,19.1266667 C14.5666667,20.3933333 15.58,21.5333333 16.72,22.8 C17.1,23.18 17.1,23.4333333 16.72,23.6866667 C16.2133333,24.0666667 15.3266667,24.4466667 15.4533333,25.08 C15.4533333,25.5866667 16.2133333,26.0933333 16.5933333,26.6 C18.24,28.5 20.0133333,30.4 21.66,32.3 C22.1666667,32.9333333 22.42,32.8066667 22.9266667,32.3 C23.8133333,31.4133333 24.9533333,30.5266667 25.84,29.64 C26.3466667,29.1333333 26.7266667,29.1333333 27.1066667,29.7666667 C27.8666667,30.78 28.7533333,31.6666667 29.64,32.68 C30.1466667,33.1866667 30.1466667,33.44 29.5133333,33.9466667 C22.6733333,38.8866667 13.0466667,38.5066667 6.84,32.8066667 C1.26666667,27.74 -0.633333333,21.4066667 1.26666667,14.1866667 C3.29333333,6.84 8.36,2.53333333 15.7066667,1.01333333 C16.5933333,0.886666667 17.6066667,0.633333333 18.3666667,0.633333333 Z" id="Shape"></path>
            <path d="M26.6,25.7133333 C26.6,25.9666667 26.3466667,26.0933333 26.22,26.22 C25.08,27.2333333 23.94,28.2466667 22.8,29.26 C22.42,29.64 22.2933333,29.64 21.9133333,29.26 C20.9,28.12 19.8866667,26.98 18.7466667,25.84 C18.3666667,25.46 18.4933333,25.2066667 18.8733333,24.9533333 C20.0133333,23.94 21.1533333,22.9266667 22.1666667,21.9133333 C22.5466667,21.5333333 22.8,21.5333333 23.18,21.9133333 C24.1933333,23.0533333 25.2066667,24.1933333 26.22,25.2066667 C26.3466667,25.46 26.4733333,25.5866667 26.6,25.7133333 Z" id="Shape"></path>
            <path d="M19.5066667,13.9333333 C19.76,13.9333333 19.8866667,14.06 19.8866667,14.1866667 C20.9,15.3266667 22.04,16.5933333 23.0533333,17.7333333 C23.3066667,18.1133333 23.4333333,18.24 23.0533333,18.62 C21.9133333,19.6333333 20.7733333,20.6466667 19.6333333,21.7866667 C19.2533333,22.1666667 19,22.1666667 18.7466667,21.7866667 C17.7333333,20.6466667 16.72,19.5066667 15.58,18.3666667 C15.3266667,18.1133333 15.2,17.86 15.58,17.6066667 C16.8466667,16.5933333 17.9866667,15.4533333 19.1266667,14.3133333 C19.38,14.1866667 19.5066667,14.1866667 19.5066667,13.9333333 Z" id="Shape"></path>
            <path d="M16.2133333,14.82 C15.96,14.82 15.8333333,14.5666667 15.7066667,14.44 C14.6933333,13.3 13.68,12.16 12.6666667,11.02 C12.2866667,10.64 12.4133333,10.3866667 12.7933333,10.0066667 C13.9333333,8.99333333 15.0733333,7.98 16.2133333,6.96666667 C16.5933333,6.71333333 16.72,6.58666667 17.1,6.96666667 C18.1133333,8.10666667 19.2533333,9.37333333 20.2666667,10.5133333 C20.52,10.7666667 20.6466667,10.8933333 20.2666667,11.2733333 C19,12.4133333 17.7333333,13.5533333 16.5933333,14.6933333 C16.34,14.5666667 16.2133333,14.5666667 16.2133333,14.82 Z" id="Shape"></path>
            <path d="M26.3466667,12.0333333 C26.6,12.0333333 26.7266667,12.16 26.8533333,12.2866667 C27.6133333,13.1733333 28.3733333,13.9333333 29.1333333,14.82 C29.3866667,15.0733333 29.3866667,15.3266667 29.1333333,15.58 C28.2466667,16.34 27.4866667,17.1 26.6,17.86 C26.3466667,18.1133333 26.0933333,18.1133333 25.84,17.86 C25.08,16.9733333 24.32,16.2133333 23.56,15.3266667 C23.4333333,15.0733333 23.18,14.9466667 23.4333333,14.6933333 C24.32,13.9333333 25.2066667,13.0466667 26.22,12.2866667 C26.22,12.0333333 26.22,12.0333333 26.3466667,12.0333333 Z" id="Shape"></path>
            <path d="M31.7933333,31.54 C31.6666667,31.4133333 31.54,31.4133333 31.4133333,31.2866667 C30.6533333,30.4 29.8933333,29.64 29.1333333,28.7533333 C28.88,28.5 28.88,28.2466667 29.1333333,27.9933333 C30.02,27.2333333 30.78,26.4733333 31.6666667,25.7133333 C31.92,25.46 32.1733333,25.46 32.4266667,25.7133333 C33.1866667,26.6 33.9466667,27.36 34.7066667,28.2466667 C34.8333333,28.5 35.0866667,28.6266667 34.8333333,28.88 C33.9466667,29.64 33.06,30.5266667 32.0466667,31.4133333 C31.92,31.4133333 31.7933333,31.4133333 31.7933333,31.54 Z" id="Shape"></path>
            <path d="M23.56,5.32 C23.6866667,5.44666667 23.6866667,5.7 23.8133333,5.82666667 C24.5733333,6.58666667 25.2066667,7.47333333 25.9666667,8.23333333 C26.3466667,8.61333333 26.22,8.74 25.9666667,9.12 C25.2066667,9.88 24.32,10.5133333 23.56,11.2733333 C23.18,11.6533333 23.0533333,11.5266667 22.6733333,11.2733333 C21.9133333,10.5133333 21.28,9.62666667 20.52,8.86666667 C20.2666667,8.61333333 20.14,8.48666667 20.3933333,8.10666667 C21.28,7.34666667 22.1666667,6.46 23.0533333,5.7 C23.18,5.44666667 23.3066667,5.44666667 23.56,5.32 Z" id="Shape"></path>
            <path d="M32.0466667,22.04 C31.92,22.1666667 31.7933333,22.2933333 31.6666667,22.42 C30.78,23.18 30.02,23.94 29.1333333,24.7 C28.88,24.9533333 28.6266667,24.9533333 28.3733333,24.5733333 C27.6133333,23.8133333 26.98,22.9266667 26.22,22.1666667 C25.9666667,21.9133333 25.84,21.66 26.22,21.28 C27.1066667,20.52 27.8666667,19.76 28.7533333,19 C29.0066667,18.7466667 29.1333333,18.62 29.3866667,19 C30.1466667,19.8866667 31.0333333,20.7733333 31.7933333,21.7866667 C31.92,21.7866667 32.0466667,21.9133333 32.0466667,22.04 Z" id="Shape"></path>
            <path d="M32.1733333,15.4533333 C31.7933333,15.3266667 31.6666667,15.0733333 31.54,14.9466667 C30.1466667,13.4266667 30.1466667,13.4266667 31.6666667,11.9066667 C32.1733333,11.4 32.5533333,11.4 32.9333333,12.0333333 C34.3266667,13.68 34.3266667,13.5533333 32.68,14.9466667 C32.5533333,14.9466667 32.3,15.2 32.1733333,15.4533333 Z" id="Shape"></path>
            <path d="M36.9866667,20.0133333 C36.7333333,20.2666667 36.48,20.52 36.2266667,20.7733333 C34.8333333,22.04 34.8333333,22.04 33.6933333,20.6466667 C32.9333333,19.76 32.9333333,19.76 33.82,19 C35.2133333,17.7333333 35.2133333,17.7333333 36.3533333,19.1266667 C36.48,19.2533333 36.7333333,19.5066667 36.9866667,20.0133333 Z" id="Shape"></path>
            <path d="M30.1333333,9.12 C30.0066667,8.86666667 29.88,8.61333333 29.7533333,8.48666667 C28.36,6.84 28.36,6.96666667 29.88,5.44666667 C30.3866667,4.94 30.64,4.94 31.1466667,5.44666667 C32.54,7.09333333 32.54,7.09333333 30.8933333,8.48666667 C30.64,8.61333333 30.5133333,8.86666667 30.1333333,9.12 Z" id="Shape"></path>
        </g>
    </g>
</svg>